<?xml version="1.0" encoding="utf-8"?>
<!-- Generator: Adobe Illustrator 22.1.0, SVG Export Plug-In . SVG Version: 6.00 Build 0)  -->
<svg version="1.1" id="Layer_1" xmlns="http://www.w3.org/2000/svg" xmlns:xlink="http://www.w3.org/1999/xlink" x="0px" y="0px"
	 viewBox="0 0 320 512" style="enable-background:new 0 0 320 512;" xml:space="preserve">
<style type="text/css">
	.st0{fill:#007bff;}
</style>
<path class="st0" d="M143,256.3L7,120.3c-9.4-9.4-9.4-24.6,0-33.9l22.6-22.6c9.4-9.4,24.6-9.4,33.9,0l96.4,96.4l96.4-96.4
	c9.4-9.4,24.6-9.4,33.9,0L313,86.3c9.4,9.4,9.4,24.6,0,33.9l-136,136C167.6,265.7,152.4,265.7,143,256.3L143,256.3z M177,448.3
	l136-136c9.4-9.4,9.4-24.6,0-33.9l-22.6-22.6c-9.4-9.4-24.6-9.4-33.9,0L160,352.1l-96.4-96.4c-9.4-9.4-24.6-9.4-33.9,0L7,278.3
	c-9.4,9.4-9.4,24.6,0,33.9l136,136C152.4,457.7,167.6,457.7,177,448.3z"/>
</svg>
