<?xml version="1.0" encoding="utf-8"?>
<!-- Generator: Adobe Illustrator 22.1.0, SVG Export Plug-In . SVG Version: 6.00 Build 0)  -->
<svg version="1.1" id="Layer_1" xmlns="http://www.w3.org/2000/svg" xmlns:xlink="http://www.w3.org/1999/xlink" x="0px" y="0px"
	 viewBox="0 0 448 512" style="enable-background:new 0 0 448 512;" xml:space="preserve">
<style type="text/css">
	.st0{fill:#007bff;}
</style>
<path class="st0" d="M319.4,320.6L224,416l-95.4-95.4C57.1,323.7,0,382.2,0,454.4v9.6c0,26.5,21.5,48,48,48h352
	c26.5,0,48-21.5,48-48v-9.6C448,382.2,390.9,323.7,319.4,320.6L319.4,320.6z M338,103l96.3-23.2c18.2-4.4,18.2-27.1,0-31.5
	l-190.4-46c-13-3.1-26.7-3.1-39.7,0L13.6,48.2c-18.1,4.4-18.1,27.2,0,31.6l6.4,1.5v58.4c-7,4.2-12,11.5-12,20.3
	c0,8.4,4.6,15.4,11.1,19.7L3.5,242c-1.7,6.9,2.1,14,7.6,14h41.8c5.5,0,9.3-7.1,7.6-14l-15.6-62.3C51.4,175.4,56,168.4,56,160
	c0-8.8-5-16.1-12-20.3V87.1l186.8,44.8"/>
<g>
	<path class="st0" d="M224,79.3c-70.9,0-128.3,57.5-128.3,128.3S153.1,336,224,336s128.3-57.5,128.3-128.3S294.9,79.3,224,79.3z
		 M306.8,190.8v3.6c0,3-1.7,5.8-4.4,7.2l-8,4c-2.6,1.3-5.6,1.1-8-0.5l-9.4-6.3c-2.1-1.4-4.6-1.7-7-0.9l-1.4,0.5
		c-5,1.7-7.1,7.7-4.1,12.1l6.9,10.3c1.5,2.2,4,3.6,6.7,3.6h4.2c4.4,0,8,3.6,8,8v5.9c0,1.7-0.6,3.4-1.6,4.8L279,256
		c-0.7,1-1.2,2.1-1.5,3.3l-2.2,11.8c-0.3,1.7-1.2,3.3-2.5,4.4c-4.9,4.5-9.2,9.6-12.9,15.1l-6.7,10.1c-2.7,4-7.1,6.4-11.9,6.4
		c-5.4,0-10.4-3.1-12.8-7.9c-2.8-5.7-4.3-11.9-4.3-18.3v-15.5c0-4.4-3.6-8-8-8h-13.4c-7.5,0-14.7-3-20-8.3s-8.3-12.5-8.3-20v-7.3
		c0-8.9,4.2-17.3,11.3-22.6l14.3-10.7c4.9-3.7,10.8-5.7,17-5.7h0.5c4.4,0,8.7,1,12.6,3l7.6,3.8c1.9,1,4.1,1.1,6.1,0.4l24.5-8.2
		c3.3-1.1,5.5-4.2,5.5-7.6c0-4.4-3.6-8-8-8h-5.2c-2.1,0-4.2-0.8-5.7-2.3l-3.6-3.6c-1.5-1.5-3.5-2.3-5.7-2.3h-46.6c-4.4,0-8-3.6-8-8
		v-2.3c0-3.7,2.5-6.9,6.1-7.8l7.5-1.9c1.9-0.5,3.6-1.7,4.7-3.3l4.2-6.3c1.5-2.2,4-3.6,6.7-3.6h12.5c4.4,0,8-3.6,8-8v-11.2
		c41,6.6,73.9,37.4,83.8,77.2h-9.5C310.4,182.8,306.8,186.4,306.8,190.8z"/>
</g>
</svg>
