<?xml version="1.0" standalone="no"?>
<!DOCTYPE svg PUBLIC "-//W3C//DTD SVG 20010904//EN"
 "http://www.w3.org/TR/2001/REC-SVG-20010904/DTD/svg10.dtd">
<svg version="1.0" xmlns="http://www.w3.org/2000/svg"
 width="700.000000pt" height="700.000000pt" viewBox="0 0 700.000000 700.000000"
 preserveAspectRatio="xMidYMid meet">
<metadata>
Created by potrace 1.14, written by Peter Selinger 2001-2017
</metadata>
<g transform="translate(0.000000,700.000000) scale(0.100000,-0.100000)"
fill="#000000" stroke="none">
<path d="M3375 6034 c-27 -8 -57 -16 -65 -19 -8 -2 -127 -33 -265 -70 -137
-36 -293 -78 -345 -92 -378 -100 -780 -231 -980 -320 -400 -178 -642 -329
-984 -611 -50 -43 -112 -93 -137 -112 -205 -160 -279 -372 -208 -593 41 -126
81 -172 325 -370 306 -250 506 -385 747 -506 77 -39 86 -47 80 -65 -5 -12 -8
-340 -8 -731 0 -662 1 -715 19 -780 48 -180 146 -330 286 -438 30 -23 57 -45
60 -48 14 -16 188 -89 485 -204 182 -70 344 -133 360 -140 93 -41 528 -204
575 -216 31 -8 107 -14 175 -14 113 0 137 2 210 20 28 7 351 130 660 252 222
87 301 118 445 173 181 70 234 95 305 143 166 112 290 291 331 477 4 19 10 42
13 50 9 28 12 1410 3 1444 l-10 33 77 37 c174 86 395 226 561 356 47 36 90 69
96 73 8 4 11 -201 11 -731 0 -718 1 -739 20 -782 25 -56 52 -84 106 -112 81
-41 184 -22 250 46 66 68 63 12 62 1186 -1 586 -5 1081 -9 1100 -16 81 -46
148 -95 214 -40 53 -396 348 -560 464 -97 67 -217 143 -316 199 -131 75 -546
263 -578 263 -8 0 -17 3 -21 7 -3 4 -12 8 -19 9 -7 2 -58 19 -114 39 -118 41
-213 71 -408 126 -77 22 -154 44 -172 50 -18 5 -40 12 -50 14 -17 3 -98 24
-388 102 -71 19 -146 38 -165 43 -19 5 -69 18 -110 29 -87 24 -183 26 -255 5z
m167 -433 c21 -9 276 -78 316 -86 9 -2 94 -24 187 -50 94 -26 179 -50 190 -52
106 -26 452 -139 620 -203 306 -117 622 -277 898 -456 94 -61 436 -329 438
-343 0 -3 3 -18 5 -34 5 -29 -11 -49 -94 -115 -22 -19 -50 -41 -60 -50 -11
-10 -36 -30 -56 -46 -21 -16 -78 -62 -129 -103 -91 -73 -296 -213 -391 -268
-286 -162 -653 -303 -1136 -435 -124 -33 -241 -65 -260 -70 -19 -6 -154 -42
-299 -81 l-264 -71 -291 77 c-659 176 -794 214 -1017 291 -286 98 -511 200
-728 331 -159 96 -225 144 -451 326 -228 185 -210 167 -215 206 -4 36 3 46 85
113 236 193 303 246 387 306 331 236 701 403 1233 557 206 60 346 98 405 110
22 4 47 11 56 16 9 4 27 10 40 13 26 4 192 48 359 95 117 32 139 35 172 22z
m-1373 -2547 c165 -55 730 -213 891 -249 8 -2 98 -27 200 -54 217 -59 263 -62
400 -25 79 21 545 146 840 225 145 39 496 152 507 163 4 3 10 6 15 6 5 0 7
-281 6 -627 l-3 -628 -27 -57 c-36 -78 -98 -141 -171 -177 -34 -16 -204 -84
-377 -151 -173 -67 -324 -125 -335 -130 -48 -22 -417 -164 -484 -187 -128 -43
-207 -31 -426 62 -16 7 -253 99 -525 205 -272 105 -513 202 -535 215 -56 32
-112 96 -143 163 l-27 57 -3 629 c-2 599 -2 628 15 621 10 -3 92 -31 182 -61z"/>
</g>
</svg>
