<svg version="1" xmlns="http://www.w3.org/2000/svg" width="1365.333" height="1365.333" viewBox="0 0 1024.000000 1024.000000"><path d="M494.8.5c-.2.2-2.6.7-5.3 1.1-2.8.3-5.7.7-6.5.9-4.3.8-10.1 1.7-10.7 1.7-.5 0-1.4.4-2 1-.7.6-1.3.8-1.3.6 0-.3-2.6.1-5.7.9-3.2.8-7.8 1.9-10.2 2.4-2.3.5-6.2 1.4-8.5 2.1-2.2.6-4.3 1.2-4.6 1.3-.3 0-2.3.5-4.5 1-2.2.4-4.4.9-5 1.1-.5.2-2 .5-3.3.8-1.3.3-3.1.7-4 1-.9.3-3 .8-4.7 1.1-1.6.3-8.2 1.9-14.5 3.5-6.3 1.7-12.6 3.2-14 3.5-4.1.7-6.3 1.2-11 2.5-4.9 1.3-4.6 1.3-10.5 2.5-5.5 1.2-5.5 1.2-5.7 1.5-.4.2-2.7.8-6.3 1.5-1.6.3-4.1.8-5.5 1.2-3.9 1-4.3 1.1-7 1.6-1.4.3-3.6 1-5 1.5s-2.8 1-3.3 1c-.4 0-2 .3-3.5.6-1.5.4-3.7.9-4.9 1.1-3.9.8-5.5 1.2-13.8 3.4-4.4 1.1-9.1 2.2-10.5 2.5-4.7.9-7.2 1.5-9 2.1-1 .3-2.7.8-3.7 1-1.8.3-8.8 2-12.8 3.1-1.1.3-3.2.7-4.8.9-1.5.2-3.2.7-3.8 1-.5.4-2 .8-3.2 1-1.2.2-5.1 1-8.7 1.9-3.6.9-7.6 1.9-8.9 2.2-1.3.3-5.1 1.2-8.5 2-3.4.8-6.8 1.6-7.7 1.9-.9.2-3.3.8-5.3 1.3-2 .6-3.6.8-3.6.5 0-.3-.7 0-1.5.7s-1.5 1-1.5.7c0-.3-1.6-.1-3.6.5-2 .5-4.6 1.2-5.8 1.4-4.8 1.1-6.4 1.5-12.1 2.9-3.3.9-7.1 1.8-8.5 2.1-1.4.3-6.3 1.4-10.9 2.6-4.6 1.1-8.9 2.1-9.5 2.3-.6.1-2.2.5-3.6.8-1.4.4-11.9 2.9-23.5 5.7-11.5 2.7-23.7 5.7-27 6.5-3.3.9-7 1.8-8.3 2.1-4.2.9-17.6 4.3-20.3 5.1-9.6 3-18.5 12-21.5 21.9-2.7 8.5 0 22.1 5.3 27.1 1.3 1.2 2.3 2.6 2.3 3 0 1.1 9.7 7.3 11.4 7.3.8 0 1.7.4 2 .9.3.5 2.3 1.2 4.3 1.6 2.1.5 4.3.9 4.8 1.1.6.1 2.3.5 3.9.8 2.6.5 6.1 2.6 4.3 2.6-.4 0-.3.9.3 1.9.7 1.3.7 2.2 0 2.6-.6.4-.7 1.3-.2 2.1.5.9.6 3.6.2 6-.4 2.5-.3 4.7.2 5 .4.3.4 1.3-.1 2.3-.5.9-.6 2.3-.2 3 .5.7.5 3 .1 5.1-.4 2.1-.4 4.4.1 5.1.4.7.4 2-.1 3-.5.9-.7 1.9-.3 2.2.7.8 1 9.7.3 9.7s-.4 8.9.3 9.7c.4.3.2 1.3-.3 2.3-.5 1-.7 2-.3 2.3.7.8 1 9.7.3 9.7s-.4 8.9.3 9.7c.4.3.2 1.3-.3 2.3-.5 1-.7 2-.3 2.3.7.8 1 9.7.3 9.7s-.4 8.9.3 9.6c.3.3.1 1.9-.3 3.5-.5 1.6-.5 2.9 0 2.9 1.7 0-.3 3.7-2.8 5.2-3.7 2.2-13.2 11.9-13.2 13.5 0 .7-.3 1.3-.8 1.3-2 0-6.2 12.6-6.7 20-.2 3-.4 5.9-.5 6.5-.1.5-.1 1.3 0 1.7.3 1.1.5 1.6 1.4 6.3.7 3.8 3.4 10.4 4.5 11.5.4.3 1.3 1.8 2.1 3.4.8 1.6 4.3 5.4 7.7 8.6 4.3 3.9 6.1 6.3 5.9 7.6-.2 1-1.2 4.8-2.1 8.4l-2 8-2 8c-.8 3.6-1.7 7.2-1.9 8-.2.8-1.4 5.1-2.5 9.5-1.2 4.4-2.4 8.9-2.6 10-.5 2.6-.8 3.9-4 16.5-1.5 5.8-2.9 11.4-3.1 12.5-.2 1.1-2.8 11.6-5.8 23.3-6.1 24.2-6.4 29.2-2.4 36.9 4.1 7.8 7.9 9.4 23 9.3 6.7-.1 13.2-.1 14.3-.1 1.1.1 4.9 0 8.5 0 3.6-.1 7.2-.1 8 0h8c3.6-.1 7.2-.1 8 0 2.2.1 12.2.1 22.5-.2 10.7-.2 14-2 17.5-9.3 3.8-8.3 3.6-11.2-2.6-36.7-.2-.9-.6-2.5-.8-3.5-.2-.9-1.4-5.3-2.5-9.7-1.2-4.4-2.4-8.9-2.6-10-.2-1.1-.6-3-.9-4.3-.9-3.3-1.6-6-2-8-.2-.9-1.6-6.4-3.1-12.2-1.5-5.8-2.9-11.3-3.1-12.3-.2-.9-.6-2.6-.9-3.7-.3-1.1-.7-2.8-.9-3.8-.2-.9-1.2-4.6-2.1-8.2-2.3-8.7-2.6-10.2-3-12.5-.2-1.1-.4-2-.5-2-.1 0-.3-.7-.5-1.5s-.6-2.4-.9-3.5c-2.7-10.1-2.8-10.9-.9-12.2 2.8-2 11.3-10.6 11.3-11.4 0-.4.6-1.4 1.3-2.1 1.8-2 4.9-7.8 4.1-7.8-.3 0-.2-.6.3-1.3 2.9-3.6 3.9-18.8 1.7-27.1-2.1-8-8.4-18.6-13.4-22.2-.8-.7-2.8-2.4-4.5-3.8-1.6-1.4-3.4-2.6-3.9-2.6s-.7-.3-.3-.6c.3-.3.2-1.7-.3-3s-.6-2.4-.2-2.4c.4 0 .7-1.1.7-2.5s-.2-2.5-.5-2.5c-.7 0-.4-6.6.5-7.9.3-.6.1-1.1-.5-1.1-.8 0-.8-.6 0-2.1.8-1.4.8-2.4.1-3.2-.6-.8-.6-1.8-.1-2.7.4-.7.4-2.4-.1-3.7-.5-1.4-.5-2.3.1-2.3s.6-.9 0-2.5-.6-2.6.1-3.1c.7-.4.7-1 0-1.8-.6-.7-.8-1.5-.5-1.9.8-.8 1.1-7.7.3-7.7-.3 0-.3-2.3.1-5 .4-2.8.4-5 .1-5-.8 0-.5-6.5.3-7.9.4-.5.2-1.2-.4-1.6-.5-.3-1-1.1-1-1.6 0-.6.4-.7 1-.4.7.4.7-.2.1-1.8-.6-1.4-.7-2.8-.4-3.1.8-.8.9-7.6.1-7.6-.4 0-.3-1.4.2-3 .5-1.7.5-3 .2-3-.9 0-.7-6.4.3-7.9.3-.6.1-1.1-.5-1.1-.7 0-.8-.6-.1-1.8.5-.9.9-2 1-2.5.1-.4.3-.8.6-.9.6-.1 18.9 4.1 21.5 5 .8.2 2.2.6 3 .7 2 .2 27.8 6.4 31.5 7.5 1.7.5 4.1 1.1 5.5 1.4 3.1.5 23.3 5.3 28 6.5 5.7 1.6 10.7 2.7 14.8 3.4.9.1 2.2.5 2.7.9.6.3 2.6.9 4.5 1.2 1.9.3 5.3 1.1 7.5 1.7 2.2.5 5 1.2 6.2 1.4 1.2.2 3.7.8 5.5 1.4 1.8.6 4.5 1.3 6.1 1.6 2.6.5 5.2 1 9.2 1.9 1.1.3 4.5 1.2 7.6 2 3 .8 6.6 1.7 8 1.9 1.3.2 3.1.6 3.9.9.8.3 6.8 1.8 13.3 3.3 11.4 2.6 13.2 3.5 10.3 5.2-4.5 2.5-30.9 30.6-34 36.2-.5.9-1.2 1.8-1.6 2.1-.3.3-2.6 3.4-5.1 7-2.4 3.6-5 7.1-5.6 7.8-.7.7-1.3 1.9-1.3 2.7 0 .7-.4 1.5-.9 1.7-1.5.6-12 20.4-18.1 34.3-1.2 2.7-2.6 5.9-3.1 7-1.4 3.3-7.7 22.6-8.9 27.5-.6 2.5-1.3 5.3-1.5 6.2-.5 1.7-.7 2.6-2 8.8-1.5 6.9-2.6 14-3 19.1-.1 2-.4 4.1-.7 4.5-.2.5-.4 3-.4 5.6.1 2.7-.1 4.8-.4 4.8-.5 0-.5 32.9 0 34 .1.3.3 2.7.5 5.5.4 7.5 1.7 17.1 4 29 1.4 7.3 6.8 27.1 7.6 28 .5.5.9 1.7.9 2.6 0 .9 2 6.5 4.4 12.3 2.4 5.8 4.1 10.6 3.7 10.6-.3 0-.1.4.4.8.6.4 2.3 3.4 3.8 6.7 1.6 3.3 4.4 8.8 6.3 12.2 1.9 3.5 3.5 6.6 3.5 7 0 .5.7 1.2 1.5 1.6.8.4 1.4 1.2 1.4 1.7 0 .9 4.7 8.1 11 16.9 2.4 3.3 3.2 4.4 7.7 9.8 1 1.2 3.4 4.1 5.3 6.4 7.4 9 25.1 25.8 36.1 34.2 6.3 4.8 12.1 9.4 13 10.2.9.8 2 1.5 2.6 1.5.5 0 2.7 1.3 4.9 3 2.1 1.6 4.3 3 4.8 3s1.7.6 2.5 1.4c1.4 1.3 16.6 9.1 28.1 14.5 5.9 2.7 23 8.9 30 10.8 10.2 2.7 20.5 5.2 24.1 5.7 2 .3 4.2.8 5.1 1.1.8.3 3.2.8 5.4 1 2.1.2 7.1.7 10.9 1.1 3.9.4 10 .8 13.7.8 3.8.1 6.8.3 6.8.6 0 1 25.6-.5 42.3-2.5 2-.2 8.3-1.4 14-2.6 5.6-1.1 10.9-2.2 11.8-2.4 15.3-3 57.6-20.5 68.9-28.5 1.5-1.1 3.1-2 3.4-2 1 0 18.1-12.3 27.3-19.6 10.5-8.4 25.9-23.3 32.5-31.6 2.6-3.1 4.9-5.4 5.2-5.1.3.4.6-.1.6-.9 0-.9.7-2.1 1.5-2.8 3.2-2.7 25.6-37 26.1-39.9 0-.4 2.6-5.8 5.7-12.2 3.1-6.5 5.9-13 6.3-14.5.4-1.6 1-3.4 1.4-3.9.6-.9 3.9-10.9 4.6-14 .2-.6 1.1-4 2.2-7.7s1.7-7 1.4-7.3c-.3-.3 0-.5.7-.5s1-.4.7-.8c-.2-.4.2-3.7.9-7.2.7-3.6 1.6-8.5 2-11 .3-2.5.9-6.1 1.2-8 .3-1.9.6-5.8.8-8.6.1-2.8.4-5.5.7-6 .5-1.1.1-31.8-.6-39.4-.9-11.1-1.8-17.4-4-28-.4-1.9-.9-4.4-1.1-5.5-.2-1.1-.4-2-.5-2-.1 0-.4-1.1-.7-2.5-.2-1.4-.6-3-.7-3.5-.2-.6-.6-2.4-1-4-1.7-6.7-8.4-25.6-11.8-33.5-3.2-7.2-9.1-19.5-9.7-20-.3-.3-1.9-3-3.5-6-3.4-6.5-9.7-16.4-10.8-16.8-.5-.2-.8-.9-.8-1.6 0-.7-.9-2.1-2-3.1s-2-2.2-2-2.6c0-.9-2.1-3.5-6.7-8.7-1.3-1.4-2.3-2.8-2.3-3.1 0-1.1-22.8-25.1-23.7-25.1-.3 0-1.6-1.1-2.9-2.5-1.6-1.8-2-2.7-1.1-3 1.4-.5 20.5-5.6 22.7-6 .8-.2 1.5-.4 1.5-.5 0-.1.7-.3 1.5-.5s6-1.6 11.5-3c5.5-1.5 10.7-2.8 11.5-3 .8-.2 1.5-.4 1.5-.5 0-.2 1.2-.5 5-1.3 1.1-.3 4-1 6.5-1.7s5.2-1.4 6-1.5c.8-.2 4.7-1.1 8.5-2 3.9-.9 7.7-1.8 8.5-2 .8-.2 7.3-1.8 14.4-3.5 7.1-1.8 13.7-3.3 14.5-3.5.9-.2 5.7-1.3 10.6-2.5 5-1.2 9.9-2.4 11-2.7 3.8-.8 5-1.1 5-1.3 0-.1 1.1-.4 2.4-.6 1.4-.2 6.1-1.4 10.5-2.5 4.5-1.1 9.2-2.2 10.6-2.4 1.4-.2 3.7-.8 5.3-1.4 1.5-.6 2.7-.8 2.7-.5 0 .4.6.1 1.3-.5.8-.6 1.6-.9 1.9-.6.3.3 2.4-.1 4.6-.9 2.3-.9 4.2-1.3 4.2-1.1 0 .2 2.9-.5 6.5-1.5s6.6-1.8 6.8-1.8c.1.1 2.5-.4 5.3-1.1 2.9-.7 6-1.4 7-1.6 1.1-.2 1.9-.4 1.9-.5 0-.1.7-.3 1.5-.5s4.5-1 8.1-1.9c3.7-.8 7.8-1.7 9-2 9.3-1.9 24.5-6.1 25-6.9.3-.5.9-.8 1.3-.8 1.5.3 5.6-1.2 5.6-2 0-.5.6-.9 1.3-.9 1.2 0 6.5-5.1 9.6-9.2.7-.9 2.1-3.9 3.1-6.8 2.6-7.2 2.1-16-1.4-23.1-2.8-5.4-10.8-13.9-13.3-13.9-.7 0-1.3-.5-1.3-1.2 0-.6-.3-.8-.7-.5-.3.4-1.1.3-1.7-.2-1.1-1-14.6-4.7-20.1-5.6-1.6-.3-4.1-1-5.5-1.5-1.4-.5-3.6-1.1-5-1.3-1.4-.2-3.2-.6-4-.9-.8-.3-6-1.6-11.5-2.9-12.6-2.9-12.6-2.9-15-3.2-1.2-.2-2.5-.6-3-.9-.6-.3-2.8-.9-5-1.3-2.2-.5-4.4-.9-5-1.1-.5-.2-2.1-.5-3.4-.8-1.3-.3-6-1.5-10.5-2.7-4.5-1.1-9.2-2.3-10.6-2.5-1.4-.3-7.9-1.9-14.5-3.5-6.6-1.7-14-3.5-16.5-4-2.5-.6-6.1-1.4-8-1.9-3.7-1-14.8-3.6-19-4.5-.8-.2-1.5-.4-1.5-.5 0-.2-1.2-.4-5.5-1.3-1.4-.3-4.4-1-6.7-1.6-8.7-2.2-11.9-3-14.3-3.5-1.4-.3-3.6-.8-5-1.1-1.4-.3-3.2-.8-4-1-.8-.2-1.5-.4-1.5-.5 0-.1-.9-.3-2-.5-1.1-.1-4-.8-6.5-1.4-7.5-2-17.7-4.4-23.2-5.6-1.3-.2-6.8-1.6-12.3-3-5.5-1.4-11.8-3-14-3.5-2.2-.5-8-1.8-13-3-4.9-1.2-9.7-2.3-10.5-2.5-.8-.2-7.1-1.7-14-3.5s-13.4-3.4-14.5-3.6c-1.1-.2-7.8-1.8-14.8-3.5-7.1-1.7-13.6-3.2-14.5-3.4-1-.2-7.3-1.8-14.2-3.6-6.9-1.7-13.4-3.2-14.5-3.4-1.1-.1-2.7-.5-3.5-.8-.8-.4-2.6-.9-4-1.2-1.4-.2-4.3-.9-6.6-1.3-2.2-.5-4.5-1.2-5.1-1.5-.5-.4-2.8-.9-4.9-1.2-4.2-.6-7.9-1.3-7.9-1.5 0-.1-1.5-.3-3.4-.6-1.9-.2-4.6-.7-6-1-2.9-.7-39.7-1.5-40.3-.9zm136 245.7c.2.5 1 .8 1.7.8s1.5.4 1.7.8c.2.4 3.2 3 6.8 5.7 3.6 2.7 11.6 10.1 17.8 16.5 13.5 13.7 12.4 12.4 20.1 23 3.3 4.7 6.6 9 7.1 9.7.6.7 1 1.5 1 1.7 0 .3 1.5 2.9 3.4 5.8 6.8 10.8 14.9 29.1 19.8 44.8 3.5 11.4 3.9 10.6-6.6 10.5-5-.1-10.9.3-13 .7-3.8.9-12.2 6.5-11.2 7.6.3.3.1 1.1-.5 1.8-.6.8-1.2 4.9-1.4 9.1-.1 4.3-.7 8.9-1.3 10.3-1.2 3.1-4.6 7-6 7-.6 0-1.2.3-1.4.7-.3.8-9.6 5.7-10.8 5.8-.3.1-2.3 1-4.5 2.2-5.5 2.8-13.6 2.5-16.2-.7-.7-.8-1.3-1.2-1.3-.8 0 .4-4.6-2.5-10.2-6.3-11.7-8.1-15.9-9.2-23.6-6.4-7.5 2.8-11.3 7.7-11.7 15-.3 4.4 1.3 7.7 10.3 21.1 9.5 14.3 12.1 16 23.8 16.2 10.7.2 15.9 3.1 18.9 10.6 1.4 3.7 1.4 21.8-.1 23.8-13.9 18.6-23.3 31.7-23.7 33.3-.4 1.1-.8 3.1-1.1 4.5-.2 1.4-1.5 7.7-2.7 14l-2.2 11.5-7.8 8c-4.3 4.4-10.1 10.9-12.9 14.5-2.9 3.6-6 7.5-7.1 8.7-1 1.3-1.6 2.3-1.3 2.3.6 0-4.6 7.2-5.9 8.1-.5.3-.7.8-.6 1 .4.4-6.3 10.5-10 15.1-7.3 9-21.8 12.5-32.3 7.7-8.1-3.6-11.8-7.4-15.8-16-1.7-3.8-3.3-7.5-3.4-8.2-.1-.7-.5-1.7-.8-2.3-.4-.6-1-3-1.3-5.4-.3-2.3-.8-4.7-1.2-5.2-.3-.6-.7-11.5-.8-24.3-.2-26.7-.8-29.1-8.3-33.3-3.9-2.2-5.4-2.3-23.9-2.6-20.5-.3-29.3-1.7-35.3-5.6-1.4-.9-3.6-2.1-5-2.7-6.5-2.9-18.1-16.1-22.3-25.4-.9-2-2.3-6.4-3.1-9.9-2-8.3-2-31.7 0-40 2.8-12.2 10-23.8 19.3-31.1 2.3-1.9 4.9-4 5.6-4.7.8-.6 1.8-1.2 2.4-1.2.6 0 1.1-.3 1.1-.8 0-.4 2-2.1 4.5-3.7 2.4-1.7 4.5-3.3 4.5-3.8 0-.4.6-.7 1.4-.7.8 0 1.6-.3 1.8-.8 1.2-2.7 19.9-14.5 24.9-15.6 21.8-5 29.9-4 51 6.3 6.8 3.4 13.6 6.1 15 6.1 1.5 0 7.3-1.6 13-3.5 5.7-2 10.9-3.7 11.4-3.8 1.9-.5 24-7.8 26-8.6 7.4-3 9.6-4.4 12.1-7.6 5.6-7.4 2.8-19.2-5.5-23.2-2.3-1.1-6.4-1.7-12-1.8-12.1-.3-13-.7-22-9.6-6.5-6.5-7.5-6.7-29.6-6.8-74.5-.4-83.8-.6-84.3-1.9-.2-.6-.7-1-1.2-.7-.5.3-2.3-1.3-4.1-3.6-2.8-3.6-3.3-4.9-3.5-10.8-.4-13.1 5.2-18.9 21.1-21.7 9-1.5 12.9-4.2 17.8-11.9 1.7-2.7 3.7-5.6 4.4-6.3.7-.7 1.3-1.8 1.3-2.3 0-.9 1.1-.8 8 .6 3.7.7 11.7 2.6 19 4.5 7.6 2 6 2.2 23-2.5 7.4-2 14.4-3.8 15.5-4 1.1-.2 8.5-2.2 16.5-4.5 8-2.2 15.5-4.2 16.7-4.4 1.3-.3 2.6-.7 3.1-1 .5-.3 2.2-.8 3.8-1.1 1.6-.3 7.4-1.8 12.9-3.3l10-2.8 5.5 3.5c3 2 5.7 3.9 5.8 4.3z"/><path d="M310.7 641.7c-.2.2-3.3.6-6.8.9-3.5.3-7.5.7-8.9 1-1.4.2-4.3.7-6.5 1-2.2.3-6.9 1.2-10.5 2-3.6.8-7.6 1.7-9 1.9-1.4.3-4.9 1.2-7.7 2.1-2.9.9-5.8 1.7-6.5 1.8-.7.2-2 .6-2.8.9-.8.3-5.1 1.7-9.5 3.2-10.4 3.6-29 11.9-39.6 17.9-10.1 5.7-20.2 11.7-20.9 12.5-.3.3-2.5 1.9-5 3.6-2.5 1.6-4.9 3.4-5.5 3.9-.5.6-2.8 2.4-5 4.1-9.9 7.3-21.1 17.7-32.6 30.1-3.9 4.2-7.3 8.3-20.5 24.9-1.3 1.6-2.4 3.6-2.4 4.2 0 .7-.4 1.3-1 1.3-.5 0-1.6 1.6-2.5 3.5-.9 1.9-2.3 3.9-3.1 4.6-.8.6-1.4 1.6-1.4 2.1 0 .6-.8 2.2-1.9 3.6-3.1 4.6-15.9 29.9-16.6 33.2-.1.3-.8 2.1-1.7 4-1.3 3.1-5.9 16.3-6.4 18.2-.1.5-.3 1-.4 1.3-.1.3-.3.8-.4 1.2-.1.5-.5 1.4-1 2.1-.4.7-.5 1.6-.2 1.9.3.3.1 1.4-.5 2.5s-1.3 3.2-1.5 4.6c-.3 1.5-1 4.5-1.6 6.7-1.1 4.3-1.3 5.5-2.2 10.6-.3 1.9-.8 4.3-1 5.5-.4 2-1.2 7.9-2.3 17.2-.3 2.6-.7 16.4-.9 30.7-.3 23-.1 27 1.7 34.5 2.1 9.3 2.7 11.5 2.9 11.5.1 0 .3.7.5 1.5.1.9 2.1 5.4 4.4 10 4.6 9.4 13 21.1 19.3 26.8 2.3 2 4.6 4.1 5.2 4.7 2 1.8 9.1 7 11.1 8.1 1.1.6 3.6 2 5.5 3.1 4.5 2.5 19.7 8.4 23 8.9 1.4.1 4.8.8 7.5 1.3 3.3.7 128.3 1 366.5 1 373.6 0 362.6.1 377.6-3.4 13.2-3.1 31.5-13.9 42.5-25.2 7.3-7.5 17.2-21.1 16.3-22.4-.3-.5-.1-.9.4-.9.7 0 5.4-10.6 6.7-15.3.2-.4.3-.8.5-1 .3-.4.9-3 2.5-11.7 1.3-7 1.5-13.2 1-35-.3-14.6-.8-28.1-1-30-.7-5.7-1.4-10.3-2.1-13-.3-1.4-.6-3.2-.6-4 0-.8-.9-5.3-2-10s-2.2-9.5-2.4-10.7c-.2-1.2-.8-3.3-1.3-4.5-.5-1.3-.9-2.6-1-3.1-.4-2.4-4.2-14.8-5.1-16.7-.5-.8-2-4.7-3.6-8.5-2.7-7-11.4-25-15.1-31.5-5-8.8-10.7-17.6-11.7-18.2-.6-.4-.7-.8-.1-.8s.6-.3 0-.8c-.6-.4-2.8-3.2-5-6.2s-4.4-6-5-6.6c-.5-.7-2.6-3.1-4.5-5.5-10.2-12.6-30.7-32.8-39.1-38.7-1.3-.9-3.5-2.7-4.9-3.9-1.4-1.3-3.3-2.6-4.2-2.9-1-.3-1.8-1-1.8-1.5s-.6-.9-1.4-.9c-.8 0-1.6-.4-1.8-.9-.4-1.3-19-13.1-20.5-13.1-.7 0-1.3-.4-1.3-.8s-1.2-1.3-2.7-2c-1.6-.7-4.4-2.1-6.3-3.2-13-7.3-42.1-18.3-58.5-22-2.7-.7-5.9-1.4-7-1.6-8.1-1.9-16.8-3.3-17.5-2.9-.5.3-1.1.2-1.4-.3-.2-.4-2.2-.9-4.3-1.1-2.1-.1-5.4-.4-7.3-.7-1.9-.2-6.4-.6-9.9-.8l-6.4-.3-95.4 95.4L512 832l-95.2-95.2-95.2-95.2-5.3-.1c-2.9-.1-5.5 0-5.6.2z"/></svg>