<svg width="24" height="24" viewBox="0 0 24 24" fill="none" xmlns="http://www.w3.org/2000/svg">
<path d="M7.48359 5.25954C6.33916 5.38744 5.4231 6.29069 5.29069 7.4228C4.935 10.4639 4.935 13.5362 5.29069 16.5773C5.4231 17.7094 6.33915 18.6127 7.48359 18.7406C10.4604 19.0733 13.54 19.0733 16.5169 18.7406C17.6613 18.6127 18.5774 17.7094 18.7098 16.5773C18.9653 14.3922 19.0373 12.191 18.9256 9.9968C18.9227 9.94014 18.9439 9.88487 18.984 9.84475L20.0227 8.80597C20.143 8.68574 20.3484 8.76092 20.3612 8.93048C20.5572 11.5354 20.5034 14.1544 20.1996 16.7516C19.9848 18.5885 18.5099 20.0272 16.6835 20.2313C13.5959 20.5764 10.4045 20.5764 7.31698 20.2313C5.4906 20.0272 4.0157 18.5885 3.80085 16.7516C3.43162 13.5947 3.43162 10.4055 3.80085 7.24855C4.0157 5.41159 5.4906 3.97294 7.31698 3.76882C10.4045 3.42374 13.5959 3.42374 16.6835 3.76882C17.3267 3.84071 17.9264 4.06574 18.4427 4.40738C18.5444 4.4746 18.5544 4.61744 18.4683 4.70359L17.6654 5.50647C17.5997 5.57215 17.4979 5.58319 17.416 5.53933C17.1426 5.39283 16.8388 5.29551 16.5169 5.25954C13.54 4.92683 10.4604 4.92683 7.48359 5.25954Z" fill="#4bd2af"/>
<path d="M21.0305 6.0304C21.3234 5.73751 21.3234 5.26263 21.0305 4.96974C20.7377 4.67685 20.2628 4.67685 19.9699 4.96974L11.5002 13.4394L9.03054 10.9697C8.73765 10.6768 8.26278 10.6768 7.96988 10.9697C7.67699 11.2626 7.67699 11.7375 7.96988 12.0304L10.9699 15.0304C11.2628 15.3233 11.7376 15.3233 12.0305 15.0304L21.0305 6.0304Z" fill="#4bd2af"/>
</svg>
