<svg width="24" height="24" viewBox="0 0 24 24" fill="none" xmlns="http://www.w3.org/2000/svg">
<path d="M16.0002 7.00005C16.0002 6.44776 16.4479 6.00005 17.0002 6.00005C17.5525 6.00005 18.0002 6.44776 18.0002 7.00005C18.0002 7.55233 17.5525 8.00005 17.0002 8.00005C16.4479 8.00005 16.0002 7.55233 16.0002 7.00005Z" fill="#4BD2AF"/>
<path fill-rule="evenodd" clip-rule="evenodd" d="M12.0002 7.25005C9.37683 7.25005 7.25018 9.37669 7.25018 12C7.25018 14.6234 9.37683 16.75 12.0002 16.75C14.6235 16.75 16.7502 14.6234 16.7502 12C16.7502 9.37669 14.6235 7.25005 12.0002 7.25005ZM8.75018 12C8.75018 10.2051 10.2053 8.75005 12.0002 8.75005C13.7951 8.75005 15.2502 10.2051 15.2502 12C15.2502 13.795 13.7951 15.25 12.0002 15.25C10.2053 15.25 8.75018 13.795 8.75018 12Z" fill="#4BD2AF"/>
<path fill-rule="evenodd" clip-rule="evenodd" d="M17.2584 2.83306C13.7919 2.44562 10.2085 2.44562 6.74195 2.83306C4.7299 3.05794 3.10556 4.64295 2.86901 6.66548C2.45447 10.2098 2.45447 13.7903 2.86901 17.3346C3.10556 19.3571 4.7299 20.9422 6.74195 21.167C10.2085 21.5545 13.7919 21.5545 17.2584 21.167C19.2705 20.9422 20.8948 19.3571 21.1314 17.3346C21.5459 13.7903 21.5459 10.2098 21.1314 6.66548C20.8948 4.64295 19.2705 3.05794 17.2584 2.83306ZM6.90856 4.32378C10.2644 3.94871 13.736 3.94871 17.0918 4.32378C18.4219 4.47244 19.4874 5.52205 19.6415 6.83973C20.0425 10.2683 20.0425 13.7318 19.6415 17.1604C19.4874 18.478 18.4219 19.5277 17.0918 19.6763C13.736 20.0514 10.2644 20.0514 6.90856 19.6763C5.57846 19.5277 4.51297 18.478 4.35885 17.1604C3.95786 13.7318 3.95786 10.2683 4.35885 6.83973C4.51297 5.52205 5.57845 4.47244 6.90856 4.32378Z" fill="#4BD2AF"/>
</svg>
