<?xml version="1.0" encoding="UTF-8"?>
<svg id="Calque_1" data-name="Calque 1" xmlns="http://www.w3.org/2000/svg" viewBox="0 0 339.62 257.78">
  <defs>
    <style>
      .cls-1 {
        stroke-width: 0px;
		fill: #4BD2AF;
      }
    </style>
  </defs>
  <path class="cls-1" d="m.24,257.76c0-75.69,0-151.38,0-227.07,2.46-.25,4.92-.52,7.39-.75,5.8-.53,11.61-1.04,17.42-1.56,6.68-.6,13.36-1.21,20.04-1.8,5.77-.52,11.53-1.02,17.3-1.54,5.85-.52,11.69-1.06,17.54-1.58,5.81-.52,11.61-1.02,17.42-1.54,5.73-.51,11.45-1.05,17.18-1.56,5.81-.52,11.61-1.03,17.42-1.54,5.93-.53,11.85-1.06,17.77-1.59,5.81-.52,11.61-1.05,17.42-1.57,5.77-.52,11.53-1.03,17.3-1.54,5.77-.51,11.53-1.03,17.3-1.55,5.81-.52,11.61-1.05,17.42-1.57,5.77-.52,11.53-1.02,17.3-1.54,5.85-.52,11.69-1.05,17.53-1.58,5.77-.52,11.53-1.03,17.3-1.54,6.72-.6,13.44-1.21,20.16-1.81,5.73-.51,11.45-1.02,17.18-1.53,6.8-.61,13.6-1.19,20.4-1.85,2.82-.27,5.66-.29,8.44-.91h2.16c0,.64.02,1.28.02,1.92,0,84.28,0,168.56,0,252.83,0,3.01.22,2.79-2.79,2.79-111.52,0-223.03,0-334.55,0-.68,0-1.36-.01-2.04-.02Zm192.95-101.89s0,.01,0,.02c2.88,0,5.76,0,8.63,0,2.33,0,4.62-.28,6.89-.8,9.9-2.24,15.89-9.68,16.02-19.82.06-4.56-.23-9.1-.76-13.63-1.14-9.61-3.12-19.01-7.21-27.84-2.43-5.25-5.56-9.97-10.35-13.42-6.98-5.02-16.45-5.1-22.84-.18-2.05,1.58-3.72,3.51-5.17,5.62-3.01,4.39-5.06,9.24-6.69,14.28-4.02,12.5-5.6,25.4-6.42,38.43-.1,1.54-.2,1.68-1.77,1.7-3.16.03-6.31.05-9.47.06-1.69,0-1.78-.1-1.76-1.74.1-8.71,0-17.42-.44-26.12-.19-3.78-2.94-6.89-6.52-7.36-4.06-.53-7.66,1.67-8.84,5.4-.38,1.21-.31,2.45-.26,3.69.28,8.31.36,16.62.28,24.93-.01,1.5-.17,1.63-1.64,1.69-3.07.12-6.15.22-9.22.41-1.09.07-1.5-.38-1.65-1.38-.45-2.94-1.3-5.77-2.49-8.49-3.51-8.08-9.23-13.78-17.73-16.54-5.65-1.83-11.47-2.55-17.35-2.73-6.83-.21-13.66-.2-20.5-.27-2.12-.02-4.23-.22-6.33-.51-.95-.13-1.4-.54-1.28-1.59.66-5.98,3.4-10.66,8.56-13.85,4.87-3.01,10.3-4.27,15.89-4.97,4.22-.53,8.45-.36,12.68-.22,4.19.14,7.58-3.06,7.88-7.14.31-4.23-2.61-7.85-6.82-8.44-2.9-.41-5.83-.29-8.74-.25-8.77.11-17.26,1.6-25.23,5.41-8.59,4.11-14.87,10.4-18.07,19.5-1.64,4.66-2.28,9.48-1.95,14.4.36,5.31,4.46,9.85,10.41,11.74,3.89,1.23,7.92,1.56,11.95,1.67,6.91.19,13.83-.1,20.74.26,4.11.22,8.2.6,12.21,1.67,4.43,1.18,7.43,3.9,9.13,8.1,2.87,7.08,2.45,14.08-.72,20.93-2.47,5.33-6.4,9.43-11.34,12.55-6.58,4.17-13.65,6.81-21.59,6.42-3.46-.17-6.7-1.1-9.53-3.17-3.15-2.3-3.89-4.43-2.86-8.15,1.11-3.98-.9-8.09-4.64-9.53-3.96-1.52-8.18.11-10.04,3.92-1.43,2.94-1.99,6.08-1.76,9.32.49,6.83,3.74,12.23,8.99,16.43,7.63,6.1,16.51,7.75,25.98,6.83,7.47-.73,14.4-3.27,20.94-6.87,4.83-2.66,9.18-5.94,12.88-10.07,4.67-5.21,7.97-11.16,9.83-17.91.22-.8.6-1.21,1.48-1.24,3.27-.12,6.54-.27,9.82-.45,1.08-.06,1.39.41,1.31,1.44-.46,5.29-.92,10.58-1.54,15.86-.2,1.72-.23,3.43.52,5.06,1.48,3.2,4.87,5.12,8.19,4.61,3.98-.61,6.51-3.25,6.93-7.41.62-6.12,1.16-12.25,1.72-18.37.14-1.57.17-1.63,1.81-1.64,3.4-.03,6.79-.02,10.19-.09,1.7-.03,1.69-.09,1.91,1.62,1.4,11.11,6.98,19.57,16.35,25.55,8.76,5.59,18.56,7.58,28.78,7.88,8.53.25,16.91-.84,25.11-3.21.91-.26,1.45-.23,1.48.92.13,4.95.29,9.9.45,14.85.03.79-.32,1.17-1.12,1.21-.92.04-1.83.14-2.75.21-2.26.18-4.16,1.1-5.6,2.86-2.08,2.55-2.42,6.02-.76,8.87,1.8,3.08,4.6,4.25,8.11,3.99,4.46-.34,8.93-.61,13.39-.92,4.26-.3,8.54-.49,12.78-.95,4.17-.45,6.94-4.08,6.68-8.38-.25-4.06-3.57-7.19-7.71-7.18-1.84,0-3.67.18-5.51.26-1.85.07-1.82.06-1.87-1.81-.18-6.43-.35-12.86-.59-19.28-.03-.94.26-1.38,1.1-1.69,4.73-1.75,9.27-3.93,13.67-6.39,8.53-4.79,16.3-10.54,22.62-18.09,6.52-7.79,10.56-16.64,11.09-26.89.48-9.3-1.84-17.95-6.86-25.76-8.94-13.93-21.62-22.03-38.19-23.73-2.93-.3-5.91-.38-8.77.72-4.63,1.78-7.51,5.3-9.54,9.62-2.46,5.23-3.26,10.84-3.43,16.55-.17,5.47.1,10.95.26,16.42.28,10.26.75,20.51,1.15,30.77.19,4.99.38,9.98.62,14.96.08,1.71.06,1.84-1.59,2.41-8.6,2.97-17.43,4.34-26.53,3.64-5.91-.46-11.64-1.61-16.88-4.56-5.16-2.9-8.67-7.1-10-12.97-.33-1.44-.19-1.64,1.25-1.64,3.52-.01,7.03,0,10.55,0Zm-63.71-84.36c0,3.38.61,5.71,2.2,8.33,4.39,7.25,13.74,7.97,18.97,1.46,4.33-5.39,4.42-13.69.21-19.19-4.86-6.34-13.52-6.34-18.36,0-2.11,2.77-3.12,5.9-3.01,9.39Z"/>
  <path class="cls-1" d="m285.63,126.56c-.1,7.61-2.68,13.85-7.18,19.33-5.56,6.77-12.63,11.56-20.42,15.38-1.54.76-3.11,1.45-4.69,2.12-1.22.52-1.44.34-1.5-1.02-.17-4.31-.34-8.62-.5-12.92-.32-8.58-.67-17.15-.95-25.73-.18-5.51-.38-11.02-.22-16.53.07-2.56.25-5.11,1.1-7.56,1.28-3.71,3.72-5.21,7.59-4.49,5.85,1.08,10.87,3.93,15.34,7.73,5.42,4.61,9.11,10.33,10.65,17.35.49,2.23.69,4.49.79,6.33Z"/>
  <path class="cls-1" d="m191.94,140.14c-3.16,0-6.31.06-9.47-.02-1.66-.04-1.75-.24-1.62-1.88.72-8.85,1.92-17.63,3.94-26.28,1.22-5.22,2.6-10.39,5-15.22.5-1.01,1.08-1.96,1.83-2.81,1.63-1.86,3.64-2.09,5.64-.61,2.46,1.82,3.95,4.38,5.18,7.08,3.2,7.06,4.69,14.58,5.77,22.19.44,3.09.69,6.19.87,9.3.06,1.07.03,2.16-.08,3.23-.31,2.98-1.26,4.02-4.25,4.63-2.8.57-5.64.53-8.48.52-1.44,0-2.88,0-4.32,0,0-.04,0-.08,0-.12Z"/>
</svg>