<svg xmlns="http://www.w3.org/2000/svg" viewBox="0 0 218.05 110.16"><defs><style>.cls-1{fill:#fff;}</style></defs><title>Fichier 6</title><g id="Calque_2" data-name="Calque 2"><g id="Calque_1-2" data-name="Calque 1"><polygon class="cls-1" points="18.77 39.48 18.77 66.76 9.67 66.76 9.67 39.48 2.16 39.48 2.16 31.78 26.28 31.78 26.28 39.48 18.77 39.48"/><polygon class="cls-1" points="39.9 45.28 53.03 45.28 53.03 31.78 62.12 31.78 62.12 66.76 53.03 66.76 53.03 52.42 39.9 52.42 39.9 66.76 30.81 66.76 30.81 31.78 39.9 31.78 39.9 45.28"/><polygon class="cls-1" points="90.43 39.48 79.63 39.48 79.63 45.33 89.88 45.33 89.88 53.03 79.63 53.03 79.63 59.06 90.43 59.06 90.43 66.76 70.53 66.76 70.53 31.78 90.43 31.78 90.43 39.48"/><path class="cls-1" d="M24.4,76.2l-3.62,7A10.57,10.57,0,0,0,18,81.61,8.56,8.56,0,0,0,14.75,81l-.51,0a2.8,2.8,0,0,0-.56.12,4.54,4.54,0,0,0-1.94.93,2.23,2.23,0,0,0-.89,1.85,2.19,2.19,0,0,0,.84,1.79,7.78,7.78,0,0,0,1.81,1.09l.72.25.67.21,2.32.65a17.12,17.12,0,0,1,6.15,3.22q2.48,2.11,2.48,6.38v.75a16.48,16.48,0,0,1-.88,4.7,9.05,9.05,0,0,1-2.74,4,11.65,11.65,0,0,1-4,2.27,18.68,18.68,0,0,1-4.55.93l-.72,0-.67,0a20.25,20.25,0,0,1-6.44-1A22.5,22.5,0,0,1,0,106.21l3.9-7.37a19.18,19.18,0,0,0,3.73,2.6A9.16,9.16,0,0,0,12,102.5h.37a5.39,5.39,0,0,0,2.78-1A2.9,2.9,0,0,0,16.38,99a2.49,2.49,0,0,0-1-2.09A8.76,8.76,0,0,0,13,95.64c-.37-.13-.74-.24-1.11-.35l-1-.3a.68.68,0,0,0-.2-.07,1,1,0,0,1-.21-.07,20.23,20.23,0,0,1-6.59-3c-1.64-1.21-2.46-3.46-2.46-6.77A11.18,11.18,0,0,1,4.8,76.57a12.15,12.15,0,0,1,8.65-3.2,20.32,20.32,0,0,1,2.18.12,17.06,17.06,0,0,1,2.23.39,25.62,25.62,0,0,1,3.45,1,19.1,19.1,0,0,1,3.09,1.39Z"/><polygon class="cls-1" points="39.9 87.75 53.03 87.75 53.03 74.25 62.12 74.25 62.12 109.23 53.03 109.23 53.03 94.9 39.9 94.9 39.9 109.23 30.81 109.23 30.81 74.25 39.9 74.25 39.9 87.75"/><rect class="cls-1" x="70.53" y="74.25" width="9.09" height="34.98"/><polygon class="cls-1" points="107.83 81.95 96.83 81.95 96.83 87.8 106.81 87.8 106.81 95.5 96.83 95.5 96.83 109.23 87.74 109.23 87.74 74.25 107.83 74.25 107.83 81.95"/><polygon class="cls-1" points="126.9 81.95 126.9 109.23 117.81 109.23 117.81 81.95 110.29 81.95 110.29 74.25 134.41 74.25 134.41 81.95 126.9 81.95"/><polygon class="cls-1" points="158.01 81.95 147.2 81.95 147.2 87.8 157.45 87.8 157.45 95.5 147.2 95.5 147.2 101.53 158.01 101.53 158.01 109.23 138.11 109.23 138.11 74.25 158.01 74.25 158.01 81.95"/><path class="cls-1" d="M172.21,81.21v8.72h.88a2.4,2.4,0,0,0,.46,0H174a9,9,0,0,0,3.73-1c1.13-.57,1.7-1.71,1.7-3.41s-.57-2.87-1.7-3.45a8.88,8.88,0,0,0-3.73-1Zm9,13.69,11,14.33H180.88L172.3,95.78h-.09v13.45h-9.09v-35h13.59a14.44,14.44,0,0,1,8.67,2.62q3.48,2.58,3.48,8.19a11,11,0,0,1-2,6.43,8.39,8.39,0,0,1-5.68,3.45Z"/><path class="cls-1" d="M216.61,76.2l-3.62,7a10.57,10.57,0,0,0-2.8-1.64A8.52,8.52,0,0,0,207,81l-.51,0a2.71,2.71,0,0,0-.55.12,4.58,4.58,0,0,0-2,.93,2.37,2.37,0,0,0,0,3.64,7.78,7.78,0,0,0,1.81,1.09l.72.25.67.21,2.32.65a17,17,0,0,1,6.15,3.22q2.48,2.11,2.48,6.38v.75a16.48,16.48,0,0,1-.88,4.7,9.05,9.05,0,0,1-2.74,4,11.47,11.47,0,0,1-4,2.27,18.7,18.7,0,0,1-4.54.93l-.72,0-.68,0a20.25,20.25,0,0,1-6.44-1,22.66,22.66,0,0,1-5.85-2.9l3.9-7.37a19.18,19.18,0,0,0,3.73,2.6,9.16,9.16,0,0,0,4.34,1.06h.37a5.39,5.39,0,0,0,2.78-1A2.9,2.9,0,0,0,208.59,99a2.49,2.49,0,0,0-1.05-2.09,8.46,8.46,0,0,0-2.34-1.25c-.37-.13-.74-.24-1.11-.35l-1-.3a.74.74,0,0,0-.21-.07,1,1,0,0,1-.21-.07,20.33,20.33,0,0,1-6.59-3c-1.64-1.21-2.46-3.46-2.46-6.77A11.18,11.18,0,0,1,197,76.57a12.18,12.18,0,0,1,8.66-3.2,20.46,20.46,0,0,1,2.18.12,17.21,17.21,0,0,1,2.22.39,25.76,25.76,0,0,1,3.46,1,19,19,0,0,1,3.08,1.39Z"/><path class="cls-1" d="M145.3,39.91a21.84,21.84,0,0,1,7.75-3L145.87,1.1a56.7,56.7,0,0,0-19,7.53Z"/><path class="cls-1" d="M172.34,43l24-27.11a58.84,58.84,0,0,0-10-7.63L168.2,39.79A22.5,22.5,0,0,1,172.34,43"/><path class="cls-1" d="M178.57,53.9l33.59-12.72a59.92,59.92,0,0,0-3.48-8.56L177.22,50a23.54,23.54,0,0,1,1.35,3.92"/><path class="cls-1" d="M156.27,0l.39,36.56.24,0a21.72,21.72,0,0,1,6.17.91l9.15-35.32A56.64,56.64,0,0,0,156.9,0c-.22,0-.42,0-.63,0"/><path class="cls-1" d="M134.58,57.11l.06-.38c.09-.7.19-1.39.34-2.07,0-.06,0-.12,0-.19.17-.74.37-1.47.61-2.19h0c.25-.77.54-1.51.86-2.24L103.82,35.38a60.51,60.51,0,0,0-5,24.2,62.89,62.89,0,0,0,.46,7.18h36.35a23.6,23.6,0,0,1-.78-3.27c0-.17-.05-.35-.08-.53a23.33,23.33,0,0,1-.27-3.37h0c0-.83.05-1.65.13-2.47"/><path class="cls-1" d="M179,63.25a23.9,23.9,0,0,1-.82,3.51h36.4q.33-2.85.39-5.78Z"/><path class="cls-1" d="M120.69,13a59.49,59.49,0,0,0-15.06,18.53l31.45,17.27a23,23,0,0,1,6.2-7.5Z"/></g></g></svg>