<svg width="926.709" height="589.376" viewBox="0 0 245.192 155.939" xmlns="http://www.w3.org/2000/svg"><defs><clipPath clipPathUnits="userSpaceOnUse" id="a"><path d="M0 1175.742h1175.742V0H0z"/></clipPath></defs><path d="M0 0v-87.135h-28.973V0h-23.936v24.594h76.878V0z" style="fill:#161d39;fill-opacity:1;fill-rule:nonzero;stroke:none" transform="matrix(.35278 0 0 -.35278 21.105 44.498)"/><path d="M0 0h41.85v43.12h28.973V-68.609H41.85v45.803H0v-45.803h-28.973V43.12H0z" style="fill:#161d39;fill-opacity:1;fill-rule:nonzero;stroke:none" transform="matrix(.35278 0 0 -.35278 44.876 51.033)"/><path d="M0 0h-34.423v-18.686h32.67V-43.28h-32.67v-19.261H0v-24.594h-63.428V24.594H0z" style="fill:#161d39;fill-opacity:1;fill-rule:nonzero;stroke:none" transform="matrix(.35278 0 0 -.35278 101.693 44.498)"/><g clip-path="url(#a)" transform="matrix(.35278 0 0 -.35278 -84.61 285.363)"><path d="m0 0-11.538-22.518c-2.646 2.172-5.642 3.929-8.957 5.27a27.062 27.062 0 0 1-10.263 2.012c-.478 0-1.02 0-1.625-.063-.606-.064-1.18-.16-1.785-.384-2.263-.479-4.335-1.469-6.216-2.97-1.88-1.47-2.804-3.45-2.804-5.941 0-2.492.892-4.28 2.645-5.718a24.793 24.793 0 0 1 5.769-3.481c.797-.288 1.562-.575 2.295-.831a39.554 39.554 0 0 1 2.136-.67l7.394-2.077c7.777-2.363 14.311-5.813 19.602-10.285 5.259-4.503 7.905-11.275 7.905-20.378v-2.364a51.664 51.664 0 0 0-2.805-15.044c-1.689-4.887-4.59-9.103-8.733-12.68-3.761-3.258-7.969-5.686-12.718-7.251a62.974 62.974 0 0 0-14.502-2.971c-.797 0-1.562 0-2.295-.064-.733-.063-1.466-.063-2.136-.063-7.012 0-13.864 1.118-20.558 3.321-6.693 2.236-12.909 5.303-18.614 9.263l12.431 23.573a59.78 59.78 0 0 1 11.888-8.305c4.303-2.268 8.893-3.418 13.834-3.418h1.179c3.251.192 6.215 1.214 8.861 3.035 2.645 1.821 3.984 4.567 3.984 8.241 0 2.779-1.116 4.982-3.315 6.675-2.199 1.693-4.717 3.003-7.458 3.993-1.18.383-2.359.767-3.538 1.118-1.18.351-2.263.671-3.251.958-.192.096-.415.16-.67.224a3.338 3.338 0 0 0-.669.223c-8.765 2.46-15.777 5.622-21.005 9.487-5.227 3.865-7.841 11.051-7.841 21.624 0 11.371 3.634 20.442 10.869 27.278C-55.268 5.622-46.057 9.04-34.933 9.04c2.263 0 4.59-.128 6.948-.384a55.127 55.127 0 0 0 7.108-1.245A86.854 86.854 0 0 0-9.849 4.312C-6.247 3.035-2.964 1.534-.032-.127v.159z" style="fill:#161d39;fill-opacity:1;fill-rule:nonzero;stroke:none" transform="translate(317.642 565.48)"/><path d="M0 0h41.85v43.121h28.973v-111.73H41.85v45.772H0v-45.772h-28.973v111.73H0z" style="fill:#161d39;fill-opacity:1;fill-rule:nonzero;stroke:none" transform="translate(367.046 528.588)"/><path d="M493.647 571.709h-28.973v-111.73h28.973z" style="fill:#161d39;fill-opacity:1;fill-rule:nonzero;stroke:none"/><path d="M0 0h-35.061v-18.685h31.81V-43.28h-31.81v-43.855h-28.973v111.73H0z" style="fill:#161d39;fill-opacity:1;fill-rule:nonzero;stroke:none" transform="translate(583.562 547.114)"/><path d="M0 0v-87.135h-28.973V0h-23.969v24.595h76.879V0z" style="fill:#161d39;fill-opacity:1;fill-rule:nonzero;stroke:none" transform="translate(644.345 547.114)"/><path d="M0 0h-34.455v-18.685h32.67V-43.28h-32.67v-19.26H0v-24.595h-63.428v111.73H0z" style="fill:#2e788b;fill-opacity:1;fill-rule:nonzero;stroke:none" transform="translate(743.503 547.114)"/><path d="m0 0 35.029-45.772H-1.052L-28.399-2.811h-.287v-42.961h-28.973v111.73h43.316c11.028-.096 20.24-2.907 27.634-8.369 7.395-5.462 11.092-14.214 11.092-26.159 0-7.698-2.103-14.534-6.279-20.507C13.897 4.95 7.873 1.277 0-.128v.16zm-28.686 43.695V15.842h2.805a7.612 7.612 0 0 1 1.466-.159h1.339c4.334.191 8.287 1.213 11.888 3.034 3.602 1.821 5.387 5.462 5.387 10.892s-1.785 9.167-5.387 11.02c-3.601 1.852-7.554 2.874-11.888 3.066z" style="fill:#2e788b;fill-opacity:1;fill-rule:nonzero;stroke:none" transform="translate(817.449 505.783)"/><path d="m0 0-11.538-22.518c-2.645 2.172-5.642 3.929-8.956 5.27a27.071 27.071 0 0 1-10.264 2.012c-.478 0-1.02 0-1.625-.063-.574-.064-1.179-.16-1.785-.384-2.263-.479-4.335-1.469-6.215-2.97-1.881-1.47-2.805-3.45-2.805-5.941 0-2.492.892-4.28 2.677-5.718a24.814 24.814 0 0 1 5.769-3.481c.797-.288 1.562-.575 2.295-.831a39.554 39.554 0 0 1 2.136-.67l7.394-2.077c7.777-2.363 14.311-5.813 19.602-10.285 5.26-4.503 7.905-11.275 7.905-20.378v-2.364c-.191-5.142-1.147-10.157-2.805-15.044-1.689-4.887-4.59-9.103-8.733-12.68-3.761-3.258-8-5.686-12.718-7.251a62.63 62.63 0 0 0-14.502-2.971c-.797 0-1.562 0-2.295-.064-.733-.063-1.466-.063-2.135-.063-7.013 0-13.865 1.118-20.559 3.321-6.693 2.236-12.908 5.303-18.614 9.263l12.431 23.573a59.787 59.787 0 0 1 11.889-8.305c4.302-2.268 8.892-3.418 13.833-3.418h1.179c3.251.192 6.215 1.214 8.861 3.035 2.645 1.821 3.984 4.567 3.984 8.241 0 2.779-1.116 4.982-3.315 6.675-2.231 1.693-4.717 3.003-7.458 3.993-1.18.383-2.359.767-3.538 1.118-1.18.351-2.263.671-3.251.958-.192.096-.415.16-.67.224a3.338 3.338 0 0 0-.669.223c-8.765 2.46-15.777 5.622-21.005 9.487-5.227 3.865-7.84 11.051-7.84 21.624 0 11.371 3.633 20.442 10.868 27.278C-55.236 5.622-46.025 9.04-34.901 9.04c2.263 0 4.59-.128 6.948-.384a56.073 56.073 0 0 0 7.108-1.245A86.808 86.808 0 0 0-9.817 4.312C-6.215 3.035-2.932 1.534 0-.127v.159z" style="fill:#2e788b;fill-opacity:1;fill-rule:nonzero;stroke:none" transform="translate(930.28 565.48)"/><path d="M0 0c7.458 4.632 15.777 7.922 24.702 9.519L1.785 123.963c-21.802-4.312-42.137-12.616-60.464-24.019z" style="fill:#2e788b;fill-opacity:1;fill-rule:nonzero;stroke:none" transform="translate(702.992 681.394)"/><path d="m0 0 76.368 86.593a185.2 185.2 0 0 1-31.905 24.371L-13.164 10.19A71.52 71.52 0 0 0 0 0" style="fill:#2e788b;fill-opacity:1;fill-rule:nonzero;stroke:none" transform="translate(789.178 671.588)"/><path d="m0 0 107.062 40.597c-2.996 9.486-6.757 18.59-11.092 27.341L-4.303 12.489A75.341 75.341 0 0 0 0-.032" style="fill:#2e788b;fill-opacity:1;fill-rule:nonzero;stroke:none" transform="translate(809.035 636.709)"/><path d="m0 0 1.243-116.744c.255 0 .51.032.765.032 6.821 0 13.419-1.054 19.666-2.875L50.838-6.771C35.252-2.395 18.933.128 2.008.128 1.339.128.669.032 0 .032" style="fill:#2e788b;fill-opacity:1;fill-rule:nonzero;stroke:none" transform="translate(737.957 808.775)"/><path d="M0 0c.032.415.128.798.192 1.214.287 2.235.605 4.439 1.083 6.611.032.192.096.384.16.607a80.349 80.349 0 0 0 1.912 6.995v.032a76.463 76.463 0 0 0 2.741 7.123L-98.074 69.408c-10.263-23.637-16.064-49.764-16.064-77.33 0-7.761.573-15.395 1.466-22.901H3.156C2.072-27.438 1.275-23.956.67-20.411c-.096.575-.16 1.118-.255 1.693-.51 3.546-.861 7.123-.861 10.796 0 2.683.16 5.303.415 7.89" style="fill:#2e788b;fill-opacity:1;fill-rule:nonzero;stroke:none" transform="translate(668.823 626.456)"/><path d="M0 0a77.405 77.405 0 0 0-2.613-11.211h116.019a196.075 196.075 0 0 1 1.243 18.43L0-.032z" style="fill:#2e788b;fill-opacity:1;fill-rule:nonzero;stroke:none" transform="translate(810.34 606.844)"/><path d="M0 0c-19.666-16.13-36.049-36.253-48.001-59.219l100.242-55.162a73.107 73.107 0 0 0 19.761 23.956L0-.032z" style="fill:#2e788b;fill-opacity:1;fill-rule:nonzero;stroke:none" transform="translate(624.551 767.284)"/><path d="M0 0h10.932c4.08 0 6.439 2.779 6.439 7.059 0 3.801-2.359 6.964-6.439 6.964H0zm0 27.757h10.423c3.792 0 5.832 2.779 5.832 6.548s-2.04 6.548-5.832 6.548H0zm-16.542-41.459v68.29h31.044c12.877 0 18.583-8.592 18.583-17.408s-4.813-14.118-11.252-15.651C28.877 20.411 34.2 13.352 34.2 4.856c0-10.03-5.833-18.526-18.71-18.526h-32.064z" style="fill:#2e788b;fill-opacity:1;fill-rule:nonzero;stroke:none" transform="translate(571.227 381.787)"/><path d="M0 0v68.29h41.053V54.044H16.542V41.747h23.81V27.533h-23.81V14.214h24.511V-.032H0z" style="fill:#2e788b;fill-opacity:1;fill-rule:nonzero;stroke:none" transform="translate(613.842 368.085)"/><path d="M0 0v68.29h16.542V14.437h21.961V0z" style="fill:#2e788b;fill-opacity:1;fill-rule:nonzero;stroke:none" transform="translate(664.011 368.085)"/><path d="M0 0c12.558 0 20.24-7.666 23.81-16.674l-13.483-6.132C8.606-18.303 5.132-14.629 0-14.629c-7.649 0-13.163-7.059-13.163-20.666S-7.649-55.961 0-55.961c3.984 0 7.267 1.342 9.18 3.29v7.666H-2.072v14.118h26.679v-28.364C18.487-66.214 10.614-70.622 0-70.622c-18.072 0-30.024 14.022-30.024 35.327C-30.024-13.991-18.072.032 0 .032z" style="fill:#2e788b;fill-opacity:1;fill-rule:nonzero;stroke:none" transform="translate(735.311 437.493)"/><path d="M769.225 436.375h16.542v-68.29h-16.542z" style="fill:#2e788b;fill-opacity:1;fill-rule:nonzero;stroke:none"/><path d="M0 0h16.638v-44.111c0-6.867 3.283-10.86 9.817-10.86 6.534 0 9.689 3.993 9.689 10.86V0h16.638v-44.015c0-16.162-10.104-25.489-26.359-25.489-16.256 0-26.455 9.327-26.455 25.489V0z" style="fill:#2e788b;fill-opacity:1;fill-rule:nonzero;stroke:none" transform="translate(796.604 436.375)"/><path d="M0 0v43.727L-13.897 0h-7.044l-13.673 43.727V0H-50.87v68.29h21.961l11.538-37.371L-5.737 68.29h21.77V0z" style="fill:#2e788b;fill-opacity:1;fill-rule:nonzero;stroke:none" transform="translate(911.093 368.085)"/><path d="M0 0v-77.231h37.891V0a56.737 56.737 0 0 1-18.946 3.247A56.731 56.731 0 0 1 0 0" style="fill:#f6d922;fill-opacity:1;fill-rule:nonzero;stroke:none" transform="translate(721.356 672.864)"/><path d="M0 0v77.231c-22.073-7.804-37.892-28.845-37.892-53.591A56.604 56.604 0 0 1-32.74 0z" style="fill:#040606;fill-opacity:1;fill-rule:nonzero;stroke:none" transform="translate(721.356 595.633)"/><path d="M0 0v-77.23h32.739a56.597 56.597 0 0 1 5.152 23.64C37.891-28.845 22.073-7.804 0 0" style="fill:#ef2c46;fill-opacity:1;fill-rule:nonzero;stroke:none" transform="translate(759.247 672.863)"/></g></svg>