<?xml version="1.0" encoding="UTF-8" standalone="no"?>
<svg
   viewBox="-305 -150 1500 1500"
   style="width: 585px; height: 585px; justify-content: center; align-self: center; transform: scale(1, 1);"
   version="1.1"
   id="svg79"
   sodipodi:docname="peep1.svg"
   inkscape:version="1.1 (c68e22c387, 2021-05-23)"
   xmlns:inkscape="http://www.inkscape.org/namespaces/inkscape"
   xmlns:sodipodi="http://sodipodi.sourceforge.net/DTD/sodipodi-0.dtd"
   xmlns="http://www.w3.org/2000/svg"
   xmlns:svg="http://www.w3.org/2000/svg">
  <defs
     id="defs83" />
  <sodipodi:namedview
     id="namedview81"
     pagecolor="#DC4B78"
     bordercolor="#666666"
     borderopacity="1.0"
     inkscape:pageshadow="2"
     inkscape:pageopacity="0.0"
     inkscape:pagecheckerboard="0"
     showgrid="false"
     inkscape:zoom="1.2186667"
     inkscape:cx="749.58972"
     inkscape:cy="750"
     inkscape:window-width="3840"
     inkscape:window-height="2066"
     inkscape:window-x="-11"
     inkscape:window-y="-11"
     inkscape:window-maximized="1"
     inkscape:current-layer="g77" />
  <g
     transform="rotate(0 519.7896137237549 592.7927093505859)"
     id="g77">
    <g
       transform="translate(0 459)"
       id="g51">
      <path
         d="M971.081 233.472C956.802 234.874 942.523 236.274 928.243 237.676C859.855 242.901 791.494 253.813 723.63 260.362C721.94 257.612 718.633 258.065 716.625 259.976C709.853 259.383 702.263 254.207 696.129 259.591C695.93 259.563 695.731 259.53 695.529 259.511C684.607 238.548 677.058 216.189 669.73 193.8C665.054 180.035 658.761 166.71 647.133 157.468C627.289 143.693 581.822 115.76 558.52 116.934C558.134 112.762 556.189 108.462 552.995 105.684C560.034 93.6851 531.892 85.8561 529.907 87.2471C531.179 47.1591 512.322 12.3451 470.742 4.36214C433.492 -3.39986 380.509 -4.70386 360.475 34.2251C358.273 33.9771 335.762 33.8599 333.584 34.1039C330.197 29.8149 293.008 70.457 308.25 84.606C171.978 144.888 94.4928 137.695 56.7747 307.164C51.6756 323.084 51.3042 340.505 45.9198 356.07C26.7635 400.801 11.2258 448.432 7.35888 497.104C-1.98054 499.497 -3.05463 515.964 7.76329 518.346C11.8955 519.257 15.3509 520.501 18.364 522.86C16.0086 562.746 25.6553 653.86 31.7335 653.579C44.127 693.022 99.4086 704.154 138.546 690.293C131.799 702.986 138.546 710.967 138.546 717.749C279.373 723.077 433.353 720.008 574.141 727.315C592.15 727.059 611.092 731.738 628.855 729.045C639.688 726.448 639.706 709.415 628.718 707.309L676.731 696.881C675.658 696.476 696.522 682.598 712.291 656.665C726.969 627.655 716.979 592.637 723.63 561.081C775.574 556.833 828.377 555.017 879.753 546.22C886.758 567.179 917.082 542.113 926.721 532.03C926.709 532.014 926.697 531.999 926.685 531.983C931.349 530.707 935.09 526.335 935.215 521.159C938.486 516.485 939.173 509.897 936.036 505.38C950.414 422.412 972.335 337.7 980.258 253.952C983.058 253.332 985.696 252.104 987.932 250.212L987.751 250.031C991.54 245.807 992.277 238.516 985.96 234.927C980.865 232.029 976.611 232.928 971.081 233.472Z"
         transform="translate(25.00024 -24.00044)"
         fill="#DC4B78"
         stroke="none"
         id="path47" />
      <path
         d="m 369.072,6.18403 c 4.243,-10.663 18.586,-6.518 16.987,4.68397 -0.957,6.71 -4.632,13.797 -7.933,19.678 -2.688,4.787 -5.754,9.459 -9.911,13.047 7.4,6.904 15.081,13.556 22.957,19.872 8.594,6.891 17.631,13.243 26.972,19.081 8.191,5.12 16.752,9.656 24.473,15.498 7.179,5.431 13.719,11.963 17.047,20.49 3.545,9.08 2.004,18.458 -0.606,27.532 l -0.3,1.026 c -2.667,8.99 -7.284,19.827 -0.882,28.297 3.259,4.312 7.997,7.366 12.088,10.813 3.636,3.064 7.049,6.396 10.179,9.975 6.825,7.802 12.376,16.581 15.879,26.363 l 0.313,0.889 c 3.003,8.659 5.197,19.267 1.14,27.769 -1.164,2.437 -4.918,1.645 -5.57,-0.728 -1.474,-5.376 -1.397,-11.006 -2.633,-16.458 -1.286,-5.67 -3.426,-11.052 -6.221,-16.144 -5.408,-9.851 -12.732,-18.265 -21.385,-25.379 l -2.59,-2.106 c -6.75,-5.54 -12.952,-11.417 -14.322,-20.585 -1.466,-9.809 2.464,-19.153 4.991,-28.437 1.761,-6.47 2.336,-12.672 0.433,-18.519 -2.325,3.795 -5.497,7.397 -8.006,10.61 -4.997,6.401 -10.041,12.763 -15.072,19.137 -5.158,6.536 -10.189,13.175 -14.98,19.986 -2.143,3.047 -4.263,6.112 -6.376,9.18 -1.589,2.306 -3.805,4.61 -5.537,6.962 0.421,1.258 0.389,2.708 -0.374,3.738 -9.185,12.41 -22.252,-13.484 -25.66,-20.026 -6.94,-13.323 -12.105,-27.477 -19.068,-40.797 -7.215,-13.808 -15.431,-27.248 -24.588,-39.854 -5.539,-7.625 -11.747,-14.787 -16.814,-22.654 -11.937,10.824 -27.645,18.08 -42.073,24.66 -15.853,7.229 -32.322,13.134 -48.575,19.404 l -4.801,1.865 c -28.005,10.93 -56.694,22.937 -79.971,42.35 -27.353,22.813 -43.5352,54.609 -55.5822,87.535 -13.868,37.905 -25.341,76.833 -36.036,115.736 -5.473,19.905 -10.666,39.9 -15.548,59.959 -4.302,17.672 -7.868,35.52 -12.848,53.01 10.1,-0.357 21.619,3.553 30.242,4.682 39.299,5.144 78.0692,13.344 115.1722,27.541 4.583,1.754 5.909,6.331 4.911,10.041 2.643,-0.746 5.284,-1.502 7.927,-2.244 -2.896,-4.437 -1.514,-12.369 -1.286,-17.287 l 0.014,-0.338 c 0.234,-6.553 0.945,-13.113 1.406,-19.654 0.878,-12.469 2.02,-24.847 3.54,-37.244 l 0.388,-3.1 c 1.722,-13.488 2.995,-27.055 4.874,-40.52 l 0.222,-1.541 c -0.901,-3.445 -1.95,-6.848 -3.051,-10.236 -2.934,-9.025 -7.075,-17.52 -10.704,-26.261 -0.428,-1.029 1.038,-1.62 1.723,-1.003 6.146,5.529 11.028,12.543 14.95,19.879 0.068,-0.346 0.128,-0.693 0.199,-1.039 l 0.447,-2.203 c 1.104,-5.372 2.446,-11.024 5.742,-15.381 0.351,-0.463 1.045,-0.56 1.377,0 3.154,5.337 3.507,12.096 3.992,18.169 0.549,6.87 0.618,13.827 0.521,20.716 -0.189,13.463 -1.138,26.964 -1.894,40.405 -0.742,13.208 -2.198,26.249 -4.075,39.327 l -0.357,2.453 c -0.918,6.225 -1.669,12.528 -2.879,18.71 l -0.342,1.683 c -0.647,3.066 -1.045,7.389 -2.333,10.98 33.138,-9.243 66.327,-18.275 99.579,-27.148 24.033,-6.414 48.091,-12.732 72.139,-19.09 1.269,-2.287 2.849,-4.423 4.821,-6.332 6.497,-6.292 15.107,-9.099 23.004,-4.256 0.642,0.395 0.696,1.401 0,1.782 -1.513,0.827 -3.029,1.675 -4.518,2.559 l 14.44,-3.911 c 10.793,-2.925 21.715,-6.58 32.762,-8.619 20.347,-10.041 42.231,-17.309 63.665,-24.492 l 2.526,-0.854 c 10.974,-3.742 22.326,-7.931 33.665,-10.005 8.301,-1.518 18.045,0.314 21.383,8.818 4.226,2.785 8.202,6.058 12.039,9.277 2.774,2.326 5.433,4.799 8.137,7.207 l 0.498,0.438 c 2.211,1.918 3.962,3.202 4.505,6.255 0.28,1.577 -0.722,3.709 -2.667,3.5 -5.951,-0.637 -10.79,-7.535 -14.826,-11.654 -3.118,-3.184 -6.261,-6.476 -9.107,-9.975 -1.659,0.903 -3.933,0.741 -4.989,-1.259 -5.476,-10.369 -20.477,-3.184 -28.777,-0.725 l -11.89,3.519 c -5.945,1.762 -11.887,3.533 -17.819,5.335 -16.304,4.951 -32.528,10.492 -48.98,15.039 1.472,1.618 1.269,4.496 -1.527,5.591 -12.878,5.053 -27.006,7.666 -40.385,11.133 -8.447,2.191 -16.889,4.395 -25.328,6.612 -1.447,2.344 -2.488,4.996 -2.926,8.083 -1.611,11.351 1.495,24.447 4.521,35.425 l 0.456,1.638 c 2.487,8.826 6.146,19.646 13.761,25.219 1.859,1.359 4.226,2.305 6.612,2.519 14.907,-7.673 29.813,-15.345 44.728,-23.003 2.763,-1.419 5.316,0.502 5.936,2.786 5.259,-0.863 10.506,-2.223 15.285,-3.845 8.03,-2.727 14.3,-7.928 21.828,-11.525 14.566,-6.958 29.441,1.589 42.482,8.087 l 3.006,1.477 c 5.848,2.838 18.016,8.289 20.822,0.528 2.714,-7.508 -5.867,-15.532 -11.409,-18.911 -6.606,-4.029 -14.298,-6.185 -21.764,-7.981 -4.263,-1.026 -8.578,-1.863 -12.919,-2.474 -4.924,-0.693 -10.01,-0.589 -14.751,-2.186 -2.356,-0.792 -2.718,-4.534 0,-5.152 7.298,-1.661 16.008,0.151 23.624,2.002 l 3.981,0.981 c 7.673,1.883 15.42,4.246 22.409,8.002 5.082,2.732 10.446,6.882 13.95,11.962 3.043,-2.827 6.83,-2.731 10.775,-1.683 l 2.141,0.596 c 3.536,0.979 6.402,1.654 9.843,0.975 0.46,-2.503 0.926,-5.007 1.425,-7.511 4.903,-24.614 10.28,-49.134 16.213,-73.523 10.234,-42.068 22.076,-83.674 35.426,-124.853 l 1.34,-4.117 c 3.079,-9.419 5.557,-19.681 10.521,-28.334 4.695,-8.182 12.217,-12.895 21.154,-15.391 10.142,-2.832 20.799,-4.314 31.145,-6.227 2.308,-0.426 4.622,-0.831 6.932,-1.25 -1.952,-3.525 -3.409,-7.526 -4.722,-10.596 l -0.23,-0.532 c -2.82,-6.429 -5.353,-12.973 -7.799,-19.553 l -1.829,-4.946 c -4.417,-11.911 -8.976,-23.626 -15.185,-34.766 -6.536,-11.724 -15.207,-21.309 -26.016,-29.242 -22.038,-16.176 -48.601,-24.427 -69.976,-41.714 -0.876,-0.708 0.247,-1.919 1.136,-1.471 14.433,7.252 30.014,12.183 45.026,18.087 l 2.961,1.168 c 11.866,4.704 23.916,9.825 34.186,17.44 11.45,8.492 20.468,19.038 27.246,31.579 6.68,12.362 10.953,26.199 15.666,39.403 l 1.26,3.518 c 1.901,5.276 3.865,10.536 6.115,15.67 1.786,4.076 5.119,8.729 6.634,13.385 4.145,-0.719 8.289,-1.44 12.438,-2.133 89.867,-15.004 180.738,-23.82 271.811,-26.399 3.566,-0.101 5.406,3.299 4.876,6.407 -8.735,51.681 -16.502,103.539 -25.024,155.259 -3.72,22.573 -7.514,45.129 -11.397,67.674 -1.967,11.422 -4.241,22.8 -6.104,34.239 -1.504,9.238 -2.596,18.548 -5.178,27.572 -2.316,8.091 -5.87,15.893 -11.707,22.066 -6.292,6.654 -15.074,9.875 -23.914,11.397 -22.441,3.862 -45.459,5.439 -68.082,8.012 l -120.447,13.703 c 1.76,15.999 1.892,31.748 1.084,47.933 l -0.46,8.836 c -0.377,7.106 -0.826,14.224 -1.847,21.257 -1.28,8.823 -5.316,16.294 -11.261,22.884 -5.459,6.052 -12.091,11.216 -18.542,16.164 -6.696,5.138 -13.615,10.097 -21.488,13.274 l -1.022,0.406 c -6.907,2.696 -19.864,6.872 -29.304,5.346 1.234,6.183 3.622,12.831 1.505,18.949 -0.982,2.841 -4.697,4.258 -6.973,1.841 -4.509,-4.791 -4.861,-11.119 -5.929,-17.369 -1.111,-6.504 -2.069,-13.031 -2.92,-19.574 -1.646,-12.651 -2.927,-25.418 -3.318,-38.176 -0.402,-13.102 -0.247,-26.222 0.459,-39.31 0.363,-6.721 0.813,-13.438 1.666,-20.116 0.364,-2.848 0.736,-5.698 1.161,-8.539 0.155,-1.036 0.327,-2.067 0.512,-3.096 l -10.811,1.22 c -16.577,1.85 -33.161,3.521 -49.855,3.781 -1.977,0.03 -3.498,-0.87 -4.492,-2.181 -1.059,1.725 -2.903,2.959 -5.544,2.949 -23.313,-0.087 -45.023,-7.71 -66.227,-16.694 -10.688,-4.53 -21.21,-9.434 -31.914,-13.925 -9.991,-4.192 -20.672,-7.183 -30.422,-11.905 l -25.62,13.438 c -0.188,0.661 -0.429,1.286 -0.685,1.809 -1.668,3.405 -4.957,5.252 -8.316,6.643 -3.224,1.338 -6.563,1.754 -9.816,1.416 -19.43,10.182 -38.865,20.354 -58.313,30.503 l -19.452,10.14 c -38.756,20.179 -77.359,40.689 -116.359,60.394 l -2.871,1.445 c -13.471,6.755 -27.936,13.602 -42.885,18.711 -0.266,3.784 -0.098,7.464 0.219,11.469 l 0.076,0.872 c 0.446,4.733 1.402,10.664 -2.395,14.033 -1.975,1.752 -5.503,1.759 -6.846,-0.883 -2.437,-4.791 -0.249,-12.344 0.523,-17.549 0.274,-1.851 0.608,-3.754 1.102,-5.6 -17.138,5.102 -34.795,7.576 -52.2352,4.711 -16.98,-2.787 -30.131,-13.484 -40.733,-26.568 -11.189,-13.807 -19.14,-29.898 -23.406,-47.147 -4.855,-19.628 -5.172,-39.898 -5.058,-60.003 0.121,-21.409 0.913,-42.924 3.517,-64.189 -2.853,-0.671 -6.017,-1.251 -8.9,-1.051 -1.428,2.285 -4.198,3.247 -6.701,2.95 -5.443,6.003 8.363,12.138 12.775,13.674 1.532,0.534 1.368,3.022 -0.399,2.947 l -1.113,-0.053 c -6.8174,-0.363 -13.86063,-1.527 -17.869,-7.862 -3.212,-5.078 -2.246996,-11.094 1.582,-15.235 2.529,-23.912 8.575,-47.197 14.202,-70.523 5.522,-22.895 11.663,-45.643 18.172,-68.276 l 2.918,-10.13 c 10.2483,-35.489 20.9604,-71.264 35.097,-105.342 7.059,-17.016 15.191,-33.719 26.2142,-48.556 10.275,-13.831 22.406,-25.666 36.35,-35.774 25.995,-18.846 56.497,-30.233 86.467,-41.0815 l 1.342,-0.4855 c 15.531,-5.618 31.024,-11.303 46.378,-17.39 13.579,-5.383 26.588,-12.208 40.103,-17.672 -0.439,-0.797 -0.863,-1.603 -1.271,-2.418 l -0.25,0.2102 c -0.043,0.0339 -0.087,0.0668 -0.132,0.0978 -1.359,0.942 -3.36,0.479 -4.48,-0.578 -3.163,-2.984 -2.092,-6.2965 0.019,-9.3911 l 0.275,-0.3939 c 2.582,-3.617 4.885,-7.441 7.268,-11.189 l 1.492,-2.3438 c 4,-6.2617 8.203,-12.5651 13.537,-17.7402 2.47,-2.398 5.174,-4.192 8.039,-5.529 -0.245,-0.518 1.903,-1.577 2.512,-1.044 9.077,-3.322 19.52,-2.626 29.416,-1.71 m 356.624,544.951 -12.62,1.435 c -13.884,1.58 -27.774,3.107 -41.665,4.62 l -30.172,3.279 c -0.077,1.72 -0.286,3.402 -0.324,4.701 -0.197,6.697 -0.344,13.397 -0.483,20.096 -0.279,13.428 0.027,26.869 0.911,40.271 0.857,12.986 1.985,25.974 3.739,38.873 l 0.359,2.578 0.208,1.356 c 1.431,0.138 2.837,0.818 4.006,2.215 2.552,3.047 11.793,0.085 15.402,-1.199 5.935,-2.112 11.524,-5.68 16.681,-9.258 5.036,-3.494 9.571,-7.567 13.929,-11.859 l 3.565,-3.526 c 3.547,-3.525 7.098,-7.28 9.271,-11.713 2.947,-6.012 3.328,-13.392 4.192,-19.94 1.064,-8.054 2.331,-16.107 3.67,-24.121 m -357.024,-122.35 -1.309,0.344 c -47.551,12.635 -95.031,25.643 -142.728,37.72 -23.604,5.978 -47.32,11.521 -70.953,17.384 l -3.826,0.957 c -18.644,4.712 -37.512,10.383 -51.7892,23.906 -0.527,0.498 -1.292,-0.267 -0.796,-0.796 15.3872,-16.38 37.2712,-23.314 58.2832,-29.325 3.884,-1.111 7.773,-2.196 11.658,-3.301 -28.576,-10.187 -57.6032,-19.05 -87.3002,-25.371 -7.647,-1.628 -15.383,-2.823 -23.024,-4.457 -5.3289,-1.14 -10.5331,-2.788 -15.8057,-4.156 l -4.1473,-1.043 -0.0551,13.108 c -0.069,18.565 -0.036,37.115 0.9111,55.677 l 0.1793,3.439 c 1.1051,20.657 2.83,41.743 10.1607,61.221 5.957,15.828 15.452,30.739 27.869,42.268 6.283,5.833 13.038,10.374 21.388,12.616 7.753,2.081 15.8762,2.325 23.8462,1.77 38.229,-2.667 72.259,-23.434 105.467,-40.628 54.317,-28.123 108.64,-56.232 163.012,-84.247 -1.47,-1.005 -2.854,-2.163 -4.113,-3.464 -7.291,-7.53 -11.137,-17.838 -13.663,-27.821 -2.689,-10.626 -4.297,-22.015 -4.484,-32.985 m 70.402,75.126 c 0.48,-0.258 1.036,0.065 1.058,0.607 0.168,4.153 -2.127,8.249 -3.842,11.99 l -0.181,0.399 c -2.083,4.634 -4.364,9.206 -6.723,13.706 -4.715,8.991 -9.615,17.886 -14.729,26.655 -10.284,17.641 -21.712,34.539 -35.22,49.899 -3.051,3.47 -8.069,-0.979 -6.111,-4.715 9.44,-18.01 20.445,-35.015 31.773,-51.872 5.671,-8.44 11.338,-16.888 17.065,-25.29 2.389,-3.506 4.809,-6.999 7.294,-10.439 l 1.499,-2.058 M 990.592,220.45 c -47.717,1.441 -95.378,4.553 -142.868,9.43 -44.166,4.535 -88.17,10.572 -131.926,18.098 -9.139,1.572 -18.267,3.208 -27.384,4.909 l -5.468,1.028 c -9.118,1.728 -20.257,2.441 -28.375,7.312 -8.559,5.135 -10.872,15.867 -13.72,24.717 -3.348,10.408 -6.611,20.846 -9.786,31.309 -12.608,41.543 -24.125,83.446 -34.399,125.626 -5.1,20.937 -9.625,41.991 -14.393,63.004 -4.236,18.67 -8.91,37.129 -13.793,55.612 0.602,-0.468 1.34,-0.824 2.231,-1.014 24.248,-5.159 48.999,-7.401 73.61,-10.251 l 2.381,-0.278 c 25.459,-2.994 50.918,-5.966 76.392,-8.83 l 168.659,-18.967 c 9.947,-1.118 20.603,-1.27 30.283,-3.939 16.458,-4.54 20.315,-22.94 23.076,-37.593 l 0.084,-0.443 c 8.325,-44.273 14.952,-88.931 22.716,-133.316 M 572.405,510.029 c -6.548,-0.432 -15.51,-6.429 -20.478,-5.999 2.608,4.376 3.785,9.367 2.282,14.697 -4.183,14.832 -23.1,7.158 -32.212,2.627 -7.471,-3.717 -14.685,-8.265 -22.956,-10.006 -9.37,-1.97 -15.718,1.756 -23.634,6.051 -6.502,3.527 -13.583,6.06 -20.865,7.371 -3.872,0.698 -7.55,0.772 -11.221,0.5 -0.221,0.18 -0.47,0.347 -0.754,0.496 l -1.942,1.019 c 8.781,0.402 17.725,3.112 25.897,5.593 8.468,2.57 16.781,5.668 25.05,8.836 l 8.134,3.127 c 20.066,7.683 40.836,14.98 62.552,14.916 1.561,-0.004 2.84,0.428 3.847,1.133 m -30.336,-96.835 c 6.469,-0.791 12.44,0.057 17.609,4.268 6.234,5.078 10.422,13.5 19.384,14.053 2.613,0.161 3.22,3.835 0.623,4.603 -6.671,1.975 -12.072,-1.634 -16.617,-6.32 l -3.056,-3.193 c -4.491,-4.65 -8.634,-8.246 -16.255,-7.968 -8.162,0.298 -16.338,2.184 -24.447,3.143 -9.186,1.086 -18.37,2.012 -27.585,2.811 -0.428,0.037 -0.501,-0.637 -0.1,-0.736 l 10.321,-2.569 m 33.879,-34.538 1.067,-0.107 c 9.393,-0.912 17.984,-0.947 26.374,4.106 l 1.609,0.973 c 7.564,4.597 15.797,10.013 20.527,17.457 0.774,1.219 -0.505,2.652 -1.8,2.342 -9.091,-2.182 -15.737,-8.852 -23.382,-13.844 -8.58,-5.602 -17.443,-4.678 -27.226,-3.808 -9.472,0.843 -18.939,2.001 -28.318,3.58 -8.813,1.482 -17.654,3.822 -26.556,4.568 l 0.002,-0.018 c -1.017,-0.002 -1.597,-1.529 -0.56,-2.047 9.034,-4.511 19.497,-6.646 29.324,-8.707 M 207.862,181.676 c -0.012,-0.743 1.033,-1.021 1.398,-0.378 6.112,10.753 9.308,23.934 12.564,35.781 3.409,12.41 6.162,24.946 8.636,37.574 5.008,25.571 7.677,50.995 7.859,77.057 0.024,3.721 -6.038,4.711 -6.631,0.898 -3.937,-25.351 -7.709,-50.728 -11.676,-76.072 -1.996,-12.747 -4.319,-25.445 -6.541,-38.154 m 54.9,-17.977 c -0.45,-1.483 1.707,-1.979 2.259,-0.623 12.266,30.109 16.421,64.231 8.546,95.996 -1.206,4.859 -8.322,2.754 -7.413,-2.044 M 426.588,173.651 c -0.062,-1.11 1.379,-1.285 1.922,-0.521 5.812,8.189 8.223,19.156 18.42,23.388 5.091,2.113 10.82,1.745 15.318,5.314 3.007,2.387 5.313,6.155 3.056,9.77 -0.728,1.168 -2.766,1.753 -3.754,0.484 -1.442,-1.849 -2.205,-4.063 -4.164,-5.449 -2.763,-1.955 -6.489,-2.076 -9.657,-2.995 -4.098,-1.188 -7.71,-3.267 -10.668,-6.356 M 523.686,37.0674 c 0.599,-0.305 1.174,-0.11 1.557,0.408 0.547,0.738 0.48,1.456 -0.19,1.962 0.895,1.829 1.952,6.411 2.103,7.078 0.612,2.704 1.263,5.392 1.944,8.078 1.374,5.417 2.578,10.876 3.953,16.295 1.458,5.744 3.195,11.427 5.128,17.028 0.125,0.3627 0.262,0.7329 0.406,1.1086 l 0.22,0.5674 0.054,-0.086 c 0.393,-0.621 1.211,-0.187 1.114,0.469 -0.09,0.598 -0.211,1.193 -0.313,1.791 l 0.203,0.5358 c 1.264,3.4031 2.13,6.9873 -0.19,9.9898 -0.868,1.123 -1.823,1.788 -3.013,1.986 -1.908,6.29 -4.302,12.463 -6.865,18.391 l -0.751,1.732 c -3.77,8.65 -7.791,17.186 -13.794,24.55 -6.554,8.04 -15.569,13.53 -21.278,22.34 -2.656,4.098 -4.504,8.407 -6.004,13.035 l -0.564,1.757 c -1.065,3.274 -2.293,6.446 -5.364,8.366 -0.98,0.612 -2.448,0.417 -3.238,-0.418 -6.297,-6.661 0.295,-19.099 4.092,-25.548 5.278,-8.968 12.917,-14.705 20.566,-21.471 8.245,-7.293 13.504,-17.049 18.591,-26.66 3.116,-5.888 6.124,-11.903 9.291,-17.817 -3.309,-2.9239 -4.368,-8.7329 -5.489,-12.7705 l -0.102,-0.3621 c -1.853,-6.466 -3.325,-13.1 -4.255,-19.763 -0.895,-6.4066 -1.268,-12.721 -1.032,-19.1635 l 0.069,-1.6411 m 15.453,18.7244 c -0.731,-1.002 0.479,-2.137 1.482,-1.928 6.099,1.261 12.061,4.9523 17.534,7.9371 l 0.584,0.3169 c 4.369,2.356 8.765,5.242 11.059,9.819 2.495,4.9746 2.29,10.7042 1.95,16.1102 l -0.033,0.5056 c -0.417,6.483 -0.484,13.219 -1.856,19.585 -0.702,3.258 -3.653,4.176 -6.176,3.406 -3.002,9.479 -11.435,16.463 -17.595,23.943 -7.854,9.536 -6.376,22.411 -5.555,33.896 0.332,4.65 -5.452,5.972 -8.431,3.491 l -6.865,-5.702 c -1.143,-0.952 -2.285,-1.905 -3.424,-2.863 -0.975,-0.82 -1.941,-1.647 -2.9,-2.485 l -1.432,-1.264 c -0.635,-0.568 -3.436,-3.697 -4.255,-3.827 -1.983,-0.315 -6.696,4.913 -8.309,6.553 l -0.205,0.204 c -3.036,2.977 -5.779,6.18 -8.334,9.577 -0.47,0.624 -1.389,0.106 -1.053,-0.615 2.29,-4.904 4.952,-9.593 8.113,-13.981 l 0.638,-0.874 c 2.103,-2.834 4.926,-7.838 8.638,-8.675 4.533,-1.021 9.059,3.524 12.357,6.047 l 0.208,0.158 c 1.569,1.177 3.12,2.375 4.668,3.581 -0.162,-8.551 0.918,-17.191 5.333,-24.56 3.113,-5.197 7.777,-9.046 11.768,-13.512 4.443,-4.973 6.763,-11.085 10.785,-16.264 0.518,-0.666 1.232,-1.025 2.005,-1.139 0.155,-4.163 0.768,-8.368 1.242,-12.487 l 0.137,-1.233 c 0.479,-4.4748 1.611,-9.9408 -0.58,-14.1318 -2.069,-3.9585 -6.818,-6.7527 -10.334,-9.4385 L 544.28,75.4825 M 338.074,20.241 c -1.836,1.062 -3.552,2.383 -5.109,4.034 -4.901,5.199 -8.405,11.669 -11.815,17.893 -1.836,3.352 -3.606,6.741 -5.457,10.085 -0.805,1.455 -1.633,2.894 -2.47,4.331 -0.387,0.662 -1.537,1.978 -2.107,2.789 0.633,0.8874 1.288,1.7612 1.956,2.6256 0.255,0.3298 17.836,19.4811 23.964,26.9764 9.384,11.481 17.772,23.608 24.943,36.588 7.022,12.711 12.368,26.169 18.873,39.126 3.256,6.487 6.892,12.928 11.527,18.542 0.179,0.219 0.368,0.426 0.551,0.642 1.769,-4.779 6.302,-9.896 8.528,-12.834 l 0.208,-0.277 c 5.049,-6.806 10.381,-13.407 15.829,-19.896 4.976,-5.925 10.078,-11.723 15.304,-17.424 l 1.966,-2.134 c 3.641,-3.933 8.266,-9.818 13.596,-12.628 -0.571,-1.018 -1.232,-2.025 -1.992,-3.019 -4.994,-6.526 -12.054,-11.262 -19.019,-15.535 l -4.518,-2.7479 C 405.804,87.0013 389.042,76.1436 374.259,62.661 366.438,55.527 358.725,48.054 352.151,39.733 l -2.325,-2.9421 m 16.66,-21.6869 c -7.974,0.669 -16.585,0.51 -23.954,3.108 6.551,6.193 12.778,12.88 19.175,19.177 0.569,-4.259 1.733,-8.466 2.719,-12.619"
         transform="translate(18.9997,-5.000531)"
         fill="#000000"
         stroke="none"
         id="path49"
         sodipodi:nodetypes="ccccccccccsccccccccccsscccccccccscccccccccccccccccccccccccccccccccccccccccccccccccccccccccccccccccccccccccccccsccccccccccccccccccccccccccccccccccsccsccscccccccccccccccccssccccccscccccccccccccccccccccccccccccccccccsccccccccccccccccccccccccccsccscccccccccsccccccccsccccccccccccccccccccccscccccscccccccccccccccccccsccccccccscccscscccccccccccccccccccccccccccccscccscccccsccsccccccscccsccccccsccccccccccccccscccccsccccccccccccccccccccccccccccsccccccccccccccccccccc" />
    </g>
    <g
       transform="translate(225 0)"
       id="g75">
      <g
         id="g59">
        <g
           id="g57">
          <path
             d="M372.581 193.192C372.183 170.79 371.743 147.94 368.413 125.756C365.157 104.068 356.2 84.4644 340.808 68.7154C308.115 35.2624 260.725 27.0914 216.613 19.6034L141.194 6.80038C118.185 2.89538 93.6377 -3.34662 70.3907 2.19138C58.9357 4.92038 49.2077 11.2604 40.3167 18.7614C31.7467 25.9914 22.5327 33.7554 16.7257 43.4824C10.9087 53.2234 8.9077 64.6104 7.0167 75.6274C4.8837 88.0484 3.2267 100.566 2.0497 113.114C-0.309298 138.254 -0.631297 163.583 1.0797 188.775C1.9087 200.994 3.2277 213.178 4.9117 225.308C5.7467 231.323 6.6907 237.323 7.7567 243.302C8.0707 245.065 8.3097 247.017 8.6317 248.989C6.2527 255.755 4.9007 262.762 5.0097 269.739C5.3307 290.291 22.6777 303.23 40.1657 310.177C50.3057 314.205 60.9067 316.942 70.8697 321.442C81.3507 326.175 88.4847 333.848 95.6507 342.601C109.318 359.295 124.741 374.299 142.352 386.817C179.69 413.358 226.982 425.911 272.286 416.383C283.156 414.097 294.122 410.547 303.893 405.198C314.209 399.551 321.966 391.368 328.48 381.693C340.575 363.732 349.249 343.507 355.811 322.926C362.504 301.932 367.255 280.9 369.846 259.009C372.428 237.189 372.972 215.147 372.581 193.192L372.581 193.192Z"
             transform="translate(45.99902 88.99984)"
             fill="#DC4B78"
             stroke="none"
             id="path53" />
          <path
             d="M329.741 38.5583C314.198 10.4243 271.121 -3.52869 239.911 0.764309C169.075 10.5123 127.36 61.8043 124.697 76.7473C122.543 81.6213 121.144 88.1003 120.312 94.1663C118.648 102.92 118.498 112.895 118.521 122.477L118.545 128.165C134.471 118.65 151.178 110.429 168.316 103.522C171.902 102.077 173.447 107.883 169.911 109.308C144.01 119.745 119.093 133.308 96.5093 149.934C-23.4667 247.345 -43.0067 401.635 103.363 409.245C104.918 409.39 106.479 409.538 108.045 409.687C134.425 412.187 162.279 414.828 187.551 404.848C196.096 420.347 244.427 476.392 252.623 458.55C255.734 452.922 249.568 448.927 244.164 445.425C242.04 444.049 240.033 442.748 238.754 441.455C231.04 435.916 224.799 430.139 217.941 423.234C198.504 404.826 190.79 385.714 179.091 374.998C177.491 371.27 173.948 370.486 169.824 373.055C120.742 388.24 111.943 301.61 156.601 295.858C159.297 295.668 162.046 295.817 164.79 296.203C167.19 297.411 169.722 299.092 172.275 300.785C179.611 305.652 187.113 310.628 192.085 304.819C194.115 302.447 194.068 299.533 193.648 296.603C192.992 292.03 192.132 287.477 191.375 282.92L186.932 256.172C252.637 184.563 354.491 155.73 449.621 166.178C483.029 252.209 490.268 400.919 420.06 461.569C382.599 494.751 333.986 494.214 298.232 462.772C294.217 458.1 290.848 457.898 294.759 464.18L295.044 464.628C331.557 519.017 410.464 498.002 444.348 452.466C487.043 398.723 493.077 278.238 489.207 259.431C542.36 238.895 622.52 147.81 558.701 78.7283C497.54 20.4913 403.947 21.0643 329.741 38.5583ZM168.958 286.014L169.528 285.681L169.522 286.284C169.522 286.686 169.53 287.089 169.54 287.492C168.883 287.162 168.219 286.853 167.547 286.567C168.023 286.462 168.497 286.283 168.958 286.014ZM154.648 315.747C156.175 314.296 158.597 314.995 160.628 315.58C161.602 315.862 162.487 316.117 163.139 316.096C168.284 316.8 173.172 318.973 176.984 321.655C179.501 323.065 181.265 324.389 182.739 325.607L182.765 325.6C182.758 325.603 182.749 325.608 182.742 325.61L182.881 325.704C185.027 327.229 192.884 335.818 187.92 333.508C187.55 333.027 187.171 332.565 186.789 332.112C186.748 332.174 186.691 332.235 186.623 332.294L186.902 332.708C191.121 339.054 183.837 332.368 182.716 330.592C182.663 330.635 182.603 330.664 182.544 330.695L184.003 332.471C184.207 332.723 184.368 332.925 184.501 333.095L184.809 333.392C189.687 338.187 189.839 342.502 184.172 335.413C184.395 335.747 184.574 336.101 184.599 336.415L184.935 336.843C189.384 342.577 185.765 340.541 183.554 338.092L183.369 337.881L183.407 337.938C185.464 341.107 181.383 338.884 180.661 337.189L180.631 337.112C179.845 336.471 179.361 335.751 179.196 335.569L179.165 335.539C175.339 331.619 169.793 328.302 165.082 326.795C164.399 326.665 163.708 326.561 163.01 326.487C160.177 325.855 157.313 325.422 154.419 325.188C154.065 325.146 153.706 324.886 153.438 324.55C149.062 324.402 150.413 322.609 152.228 322.275L152.26 322.27L151.9 322.24C149.091 321.966 147.173 320.958 150.013 320.339L150.373 320.268C150.329 320.199 150.29 320.13 150.252 320.061C147.82 319.794 149.407 317.43 150.757 318.002C150.353 316.681 151.549 316.769 152.39 316.83C152.732 316.855 153.015 316.876 153.109 316.796C153.356 316.522 153.663 316.28 153.84 316.267C154.345 315.91 154.366 315.805 154.426 315.77C154.46 315.751 154.505 315.753 154.648 315.747ZM182.765 325.6C182.77 325.598 182.775 325.596 182.779 325.596L182.765 325.6Z"
             transform="translate(-62.00126 16.99961)"
             fill="#000000"
             fill-rule="evenodd"
             stroke="none"
             id="path55" />
        </g>
      </g>
      <g
         transform="translate(159 186)"
         id="g65">
        <g
           id="g63">
          <path
             d="M140.63 0.473197L139.193 0.179116C137.503 -0.15929 135.804 -0.0161244 134.311 0.591153C132.847 1.18684 131.572 2.2242 130.68 3.72083C129.495 5.71373 129.337 7.38618 129.887 9.59525C130.311 11.3022 131.242 12.5864 132.46 13.5139C133.744 14.4911 135.37 15.0612 137.06 15.2595C144.854 16.175 152.53 17.8896 159.992 20.3235C163.488 21.4643 166.788 23.0096 170.058 24.6132L172.877 26.002C175.477 27.2735 178.163 28.499 181.557 29.3885C181.824 29.4584 182.087 29.5243 182.349 29.5865C183.29 29.2909 183.45 28.9329 183.649 28.6733L183.73 28.5721C183.972 28.2679 184.271 27.8025 183.988 25.6306C176.583 10.2711 156.267 3.74181 140.63 0.473197ZM43.5878 4.83023L45.4652 4.50163C51.273 3.49719 58.4944 2.53203 62.6028 7.20123C64.7819 9.67723 65.5318 14.2792 62.6028 16.6492C58.7671 19.7539 54.6298 19.6513 50.2182 19.5419C48.7043 19.5044 47.1582 19.466 45.5808 19.5562C40.4928 19.8482 35.6028 20.6902 30.7018 22.0912C19.9498 25.1642 11.1888 30.7742 2.00585 36.9342C0.800849 37.7422 -0.429151 36.2012 0.145849 35.0742C5.44685 24.6912 15.7198 16.1622 26.0098 10.9632C31.5019 8.18823 37.5118 5.88623 43.5878 4.83023ZM29.9632 50.1461C30.7976 39.7899 46.5702 37.4381 48.1392 47.6861C49.5442 56.8661 47.8902 65.2991 43.7552 73.5641C39.8042 81.4601 29.8737 77.7763 29.1227 70.5863C28.3809 63.4843 28.9069 59.2482 29.4428 54.933C29.6341 53.3921 29.8267 51.8412 29.9632 50.1461ZM159.205 41.8262C155.401 40.7152 152.226 42.6812 150.027 45.5612C149.773 45.8932 149.566 46.2222 149.38 46.5482C142.515 52.8562 145.101 65.6452 150.501 72.0492C153.814 75.9762 161.145 74.8452 163.413 70.3852C167.587 62.1722 171.09 45.2992 159.205 41.8262ZM128.748 119.039C136.872 107.66 125.366 96.9569 117.814 92.3669C115.836 90.9469 117.406 86.2431 121.634 86.9701C160.031 93.5671 140.136 159.708 91.112 123.413C85.2754 118.704 92.3434 108.334 98.6342 112.366C98.9532 112.611 99.2876 112.869 99.6364 113.139C106.704 118.603 119.636 128.601 128.748 119.039ZM93.5865 188.926C86.8642 186.184 80.8663 181.61 76.4812 175.766C74.9566 173.735 74.5614 171.589 74.8812 169.627C75.2408 167.421 76.546 165.422 78.326 164.08C80.1115 162.735 82.345 162.072 84.5043 162.41C86.3806 162.704 88.2484 163.731 89.7265 165.862L90.0354 166.288C92.6424 169.815 96.0396 172.708 99.9104 174.574C103.641 176.372 107.814 177.211 112.132 176.723C120.356 175.794 126.024 171.346 132.049 165.306C132.796 164.544 133.543 163.757 134.294 162.958C134.768 162.234 135.426 161.768 136.157 161.524C136.968 161.253 137.886 161.268 138.726 161.562C139.537 161.845 140.262 162.381 140.747 163.094C141.209 163.772 141.471 164.61 141.386 165.574C140.835 171.833 137.562 177.419 132.914 181.805C127.752 186.677 120.909 190.047 114.466 191.229C107.368 192.531 100.136 191.598 93.5865 188.926Z"
             transform="translate(53.00005 52.00027)"
             fill="#000000"
             fill-rule="evenodd"
             stroke="none"
             id="path61" />
        </g>
      </g>
      <g
         transform="translate(123 338)"
         id="g67" />
      <g
         transform="translate(47 241)"
         id="g73">
        <g
           id="g71">
          <path
             d="M400.241 22.4717C406.555 19.4817 413.812 19.6607 420.603 20.5487C434.349 26.9267 404.861 34.3147 401.349 27.5287C404.801 52.9717 394.935 94.8897 366.724 108.133C334.13 124.07 298.773 99.8287 300.056 60.9787C293.067 59.2817 297.925 39.7137 300.739 31.7647C288.447 29.8527 276.738 28.7257 264.894 32.4797C271.42 50.8857 248.187 106.288 225.854 117.325C208.541 129.283 169.496 123.951 153.944 105.365C142.844 91.1707 137.3 58.2287 143.442 35.3387C143.388 35.3147 143.332 35.2967 143.279 35.2697C142.912 38.8697 118.056 38.4687 119.298 32.3037C83.5946 32.9447 49.0266 38.4207 13.6856 42.2807C9.41771 42.6777 9.20869 45.7037 9.00443 48.6607C8.82951 51.1931 8.65807 53.675 5.94363 54.4117C-4.52237 54.6617 0.226628 36.3637 9.44663 34.6657C18.2509 33.7459 27.1162 32.5506 36.011 31.3514C64.1217 27.5615 92.5269 23.7319 120.232 28.4287C124.112 23.4993 131.1 25.2524 136.795 26.6809C138.398 27.083 139.898 27.4593 141.198 27.6537C145.902 -0.109269 221.595 1.54173 246.677 12.8057C273.452 9.72473 301.309 7.96173 327.861 5.72573C344.673 0.333732 364.25 -2.44827 381.745 2.80973C384.166 2.67632 384.439 3.06209 384.978 3.82285C385.074 3.95736 385.177 4.10358 385.303 4.26073C392.194 7.30073 398.297 14.2087 400.241 22.4717ZM391.09 53.2827C381.556 117.772 315.002 124.904 303.177 60.8817C305.075 60.0507 306.44 58.4147 306.155 55.2387C306.088 41.2867 310.419 26.5407 323.005 18.7817C336.011 10.7757 351.232 9.98173 366.283 10.1837C395.005 9.49973 394.401 33.5067 391.09 53.2827ZM264.265 30.6657C272.34 25.1737 283.744 24.8557 292.758 25.2357C295.861 25.4177 300.059 25.2717 302.99 26.8347C306.149 20.6497 311.009 15.2997 316.233 11.7387C313.192 11.9693 310.141 12.2092 307.085 12.4496C288.207 13.9342 269.092 15.4374 250.449 14.8917C256.277 18.3047 262.045 24.6877 264.265 30.6657ZM253.026 60.1197C228.031 146.156 165.64 108.656 158.838 97.6297C146.569 79.3837 144.261 35.0297 154.948 23.1707C167.469 14.393 184.251 14.6491 199.84 14.8869C203.297 14.9396 206.695 14.9915 209.975 14.9437C243.176 15.3917 266.756 25.3237 253.026 60.1197Z"
             transform="translate(-1.999528 9.999668)"
             fill="#000000"
             fill-rule="evenodd"
             stroke="none"
             id="path69" />
        </g>
      </g>
    </g>
  </g>
</svg>
