<?xml version="1.0" encoding="UTF-8"?>
<svg width="240px" height="324px" viewBox="0 0 240 324" version="1.1" xmlns="http://www.w3.org/2000/svg" xmlns:xlink="http://www.w3.org/1999/xlink">
    <!-- Generator: Sketch 62 (91390) - https://sketch.com -->
    <title>peep-96</title>
    <desc>Created with Sketch.</desc>
    <g id="Introduction" stroke="none" stroke-width="1" fill="none" fill-rule="evenodd">
        <g id="variations" transform="translate(-3246.000000, -1406.000000)">
            <g id="images" transform="translate(126.000000, 110.000000)">
                <g id="a-person/bust" transform="translate(3120.000000, 1296.000000)">
                    <g id="body/Shirt-and-Coat" transform="translate(31.056338, 135.052838)" fill-rule="evenodd">
                        <path d="M169.19981,137.035472 C168.862838,130.772318 168.448754,124.514024 167.95312,118.261226 C166.965444,105.806353 165.672275,93.3417581 163.520303,81.0299695 C161.397275,68.8824 158.426007,57.0702434 154.145303,45.4947992 C152.159387,40.1243883 150.008683,35.5429479 146.888683,30.7152845 C143.938542,26.1507523 140.173965,23.0578521 135.483824,20.3024783 C131.258049,17.8199577 126.348824,13.5126387 122.295866,10.732537 C120.603824,9.57201252 117.122556,9.64936673 115.962275,7.9325683 C114.442838,5.68443523 115.427979,2.2434411 113.896289,0.00270528376 C112.145514,-2.55928297 109.692697,-4.54956869 106.926782,-5.99541605 C103.907979,-8.04044149 100.352345,-8.96615577 96.7872042,-8.83871155 C91.5300211,-9.15763914 86.2352324,-7.48332211 82.8600211,-3.20263327 C81.1757958,-1.0663045 80.1923451,1.39846262 80.0562887,4.12762896 C80.0207958,4.8375546 80.2487535,5.39721018 80.6239648,5.80131194 C80.4015,6.09889315 80.1800915,6.39668571 79.960162,6.69616908 C79.2697394,5.67323366 77.6560775,5.1296407 76.5807254,5.90170333 C73.0626972,8.42797339 69.2605141,10.4366466 65.2474859,11.9091241 C64.3086127,11.4646544 63.171993,11.6705096 62.3676972,12.3960751 C62.0412887,12.6902748 61.6950211,12.941993 61.3331197,13.1556681 C59.845162,13.5591358 58.3341761,13.8962395 56.8007958,14.1568344 C56.3207958,14.2382043 55.9141056,14.5108462 55.6056549,14.8783843 C55.1486831,14.4510341 54.5205845,14.2458129 53.8191761,14.5133824 C45.7202324,17.6018442 38.0719225,22.3997072 32.2584718,28.8999969 C25.8177676,36.1013354 22.4349507,45.0594176 19.8595986,54.2370928 C17.0717113,64.172036 15.2900915,74.3542591 13.7936831,84.5536016 C12.2774155,94.8879969 10.7839648,105.26276 9.74072535,115.656968 C9.15361268,121.506298 8.92966901,127.408678 9.19544366,133.283793 C9.32790845,136.219872 9.59600704,139.14665 10.0229789,142.054831 C10.1224859,142.735167 10.2266408,143.518854 10.3943873,144.301061 C9.88459859,144.201938 9.27741549,144.633093 9.38072535,145.323151 C10.1003028,150.129468 15.9088944,151.529453 19.9149507,152.082768 C26.467838,152.987981 33.0547394,153.489938 39.6705845,153.528615 C46.1719225,153.566447 52.6722042,153.14903 59.1600211,152.775151 C65.8115704,152.391973 72.4629085,152.006893 79.1142465,151.616741 C105.763331,150.053805 132.413894,148.507778 159.06319,146.944208 C161.497838,146.801335 164.277908,146.60795 166.363331,145.195285 C169.221993,143.25847 169.369035,140.180787 169.19981,137.035472 L169.19981,137.035472 Z" id="ðŸŽ¨-Background" fill="#FFFFFF"></path>
                        <path d="M39.2863521,83.2772571 C39.1938169,83.1039499 39.4084648,82.9481847 39.5508592,83.0730928 C42.786,85.913218 44.4797324,90.4743687 44.8348732,94.6903843 C45.2111408,99.1610771 44.6776901,103.78986 44.4738169,108.25865 C44.2469155,113.236373 44.0430423,118.215997 43.7660704,123.191394 C43.4848732,128.239285 43.1819155,133.285484 42.9222676,138.334431 L42.3381127,149.691973 L42.3381127,149.691973 C42.276,150.902377 42.4105775,152.390917 41.9462113,153.520584 C41.2266383,155.271819 39.0891832,155.000674 38.6399753,153.537031 L38.6259296,153.488881 L38.5849437,153.520584 C38.1886056,152.201547 38.4852254,150.635018 38.5524085,149.271175 L39.1644507,136.862165 L39.1644507,136.862165 C39.596831,128.091149 39.9824937,119.319962 40.4469602,110.550606 L40.6048732,107.627559 C40.8220141,103.692575 40.9885014,99.7675214 41.1222008,95.8337537 L41.1655775,94.5221495 C41.2925493,90.5724352 41.1917746,86.843582 39.2863521,83.2772571 Z M117.710958,10.4641432 C119.513282,10.2929495 120.874268,10.8908595 122.510535,11.5206834 C123.223352,11.7948047 123.898352,12.1116188 124.582225,12.4396344 C125.438359,12.8502945 125.988928,13.5763753 126.516172,14.3440502 L126.798,14.7577245 C128.993282,17.9753213 130.470042,21.6874779 132.13631,25.190609 C134.085465,29.2884798 136.054056,33.377474 137.961592,37.494789 L138.902969,39.5233057 C139.373556,40.537611 139.842752,41.5525503 140.304985,42.5706599 L141.103656,44.3426331 C141.905953,46.1397094 142.625251,48.0408373 141.481732,49.8947108 C140.418423,51.6189065 138.533282,52.9529495 137.040676,54.2857245 C135.795465,55.3978497 134.550042,56.5097636 133.304197,57.6214661 C135.879338,60.2012078 137.608141,63.4494505 138.624338,66.932926 C140.068141,66.3312117 141.830324,66.2158145 143.323141,65.9554309 C145.412789,65.591063 145.668845,68.7558223 143.696662,68.7171452 C142.240183,68.6886129 140.531451,68.8374035 139.037366,68.5305229 C139.297014,69.6751961 139.485465,70.8372 139.605254,72.0023742 C140.233054,78.1094142 138.861153,84.2518946 137.430277,90.1606736 L137.312577,90.6457949 C135.758704,97.0412548 134.285324,103.453411 132.967225,109.90192 C131.646169,116.364167 130.457789,122.853677 129.40293,129.364746 C128.329268,135.992057 127.569549,142.655932 126.753,149.318327 C126.629408,150.326679 125.995183,151.190891 124.88138,151.190891 C123.953493,151.190891 122.89293,150.324566 123.009549,149.318327 C123.852085,142.063094 125.047014,134.845905 126.234127,127.640339 C128.27884,115.231345 130.852261,102.930302 133.8129,90.7100334 L134.330073,88.5819373 C135.662078,83.0625996 136.870458,77.3755382 136.202366,71.6823898 C135.658145,67.0465395 133.720594,62.1037011 129.891172,59.2243133 L129.774549,59.1376932 C128.880042,58.4814505 128.535887,57.2264524 129.416873,56.3622411 C129.977507,55.8122372 130.538798,55.2628908 131.100418,54.7138888 L134.471451,51.4215053 L135.151079,50.7565418 C135.717757,50.203032 136.287145,49.6528958 136.873563,49.1196892 C137.228493,48.7971687 138.190817,48.1821393 138.261169,47.6516501 C138.306876,47.3053608 137.897076,46.6972284 137.731009,46.3783334 L136.970113,44.8419593 L136.970113,44.8419593 C136.53807,43.9659123 136.119338,43.0835249 135.697437,42.2024055 C134.823211,40.3771843 133.93631,38.5574583 133.081099,36.7231491 L127.942859,25.7092626 L127.942859,25.7092626 C126.493352,22.6019906 125.202085,19.3216227 123.307014,16.4489495 L122.933364,15.88908 C122.621468,15.4175692 122.345981,14.9636971 122.148845,14.387016 C121.959338,13.8322215 121.721451,13.22311 121.371169,12.7496853 C120.550394,11.6386168 118.981521,11.0083703 117.668915,10.7756736 C117.479197,10.7418575 117.54807,10.4797832 117.710958,10.4641432 Z M78.1926127,7.57132107 C78.3066972,7.57132107 78.3240211,7.73427945 78.2188099,7.765982 C76.6351479,8.24236556 75.121838,9.01104658 73.8871901,10.1206356 C73.2964859,10.6515476 72.7017676,11.2541072 72.3371197,11.9688939 C72.1975563,12.2424235 72.1202831,12.5313605 72.0637162,12.8309286 L72.0455704,12.9311718 C71.9515007,13.4723843 71.8168536,13.773641 71.541932,14.2069308 L71.4947958,14.2804321 C69.9257113,16.7044086 68.8260634,19.3968 67.8206408,22.092573 L65.6310898,27.9705417 L65.6310898,27.9705417 L63.4429648,33.8491444 C62.7379648,35.7432658 62.0325423,37.6375984 61.327331,39.5317198 C60.9377535,40.577481 60.5371901,41.6188039 60.136838,42.6603382 C59.9635986,43.111571 59.7772606,43.5594223 59.6188099,44.0161503 C59.5970493,44.0784986 59.5277535,44.4544908 59.4757817,44.5457941 L59.4935282,44.5768626 L59.4935282,44.5768626 C59.9348662,45.3195476 61.111838,45.940072 61.7790211,46.4796493 L64.0763451,48.3376297 L64.0763451,48.3376297 C65.7143028,49.6625847 67.3943028,50.9503421 68.9830352,52.3344751 C69.9810634,53.2035476 69.3601479,54.7599311 68.2471901,55.1228196 C66.3821197,55.730663 64.5548662,56.4581307 62.7176831,57.1458646 C61.9755634,57.4235789 61.202812,57.6653425 60.4693513,57.9716119 L60.0228642,58.1646447 C59.8484698,58.243088 59.9323118,58.2423563 59.9393028,58.5642364 C59.9462746,58.9019742 60.0419789,59.2538724 60.0969085,59.5856924 C60.7157113,63.3287061 61.3716972,67.0653793 62.0640211,70.7955006 C64.5130352,83.9860838 67.4388803,97.0802912 70.7758521,110.073896 C72.4613451,116.635688 74.2689507,123.165144 75.9914155,129.717215 C77.7096549,136.251743 79.9704296,142.692643 82.129162,149.092542 C82.7382465,150.897282 79.8774718,151.674397 79.2833873,149.877285 C76.7955,142.350256 74.5195141,134.757497 72.169162,127.187775 C67.9932465,113.737442 64.7025423,99.9950231 61.7921197,86.2194223 C60.3495845,79.3919624 59.0302183,72.5382951 57.8352887,65.6630701 C57.6090211,64.3615221 57.3871505,63.059142 57.1698552,61.7560188 L56.8531439,59.8392419 C56.6360384,58.4730107 56.512421,57.04987 57.5739507,55.9686434 C58.6105,54.9133261 60.389946,54.5393647 61.7539201,54.0443919 L61.8529648,54.0079468 C62.7208521,53.6839468 63.5950775,53.3717824 64.4659225,53.0498959 C63.1831056,52.0396415 61.9161338,51.006984 60.6364859,49.9973636 C59.6042324,49.1828196 58.5557113,48.3847609 57.5382465,47.551618 C56.6993028,46.8643068 56.0152183,45.9819194 55.9277535,44.864299 C55.8385194,43.7220233 56.3278362,42.6620618 56.7224854,41.6144721 L56.7603592,41.5131288 C57.1478239,40.4671562 57.5363451,39.4218176 57.9347958,38.3798607 L60.4002887,31.9296611 L60.4002887,31.9296611 C61.9670493,27.8309448 63.4676831,23.6990466 65.1155704,19.6322442 C65.7675423,18.0228117 66.4780352,16.4387413 67.3176127,14.9174419 C67.7224014,14.183845 68.1565563,13.4658881 68.6283169,12.7735045 C69.1569085,11.9970035 69.6366972,11.6184751 70.4557817,11.1900681 C71.7654296,10.5050818 72.7932465,9.35660431 74.1083873,8.65048297 C75.3992324,7.95725401 76.7272606,7.587391 78.1926127,7.57132107 Z M82.4442465,0.258925245 C82.4943169,0.172905675 82.626993,0.211154638 82.6286831,0.309015264 C82.6629085,2.34600939 82.1791056,4.42759843 81.8814296,6.44176673 C81.5824859,8.46312094 81.4865704,10.5967022 81.0541056,12.5964986 C81.0451479,12.6896618 81.027131,12.7814724 81.0016775,12.8716057 L80.981007,12.9401542 L80.981007,12.9401542 C80.7984718,13.5004438 80.3237535,13.9753479 79.7412887,14.1237159 C79.9244577,15.1390427 80.0970634,16.1560603 80.2422042,17.178573 C80.4915,18.9361016 80.7190223,20.6962183 80.9427873,22.4569203 L81.2106549,24.5699155 C81.4635423,26.5612579 81.7094577,28.5534458 81.9526268,30.545845 C82.571007,30.8045378 83.2020634,31.0180016 83.848331,31.2029331 C85.3367113,31.6290153 86.8612183,31.8023225 88.3971338,31.9530153 C91.5250493,32.2599523 94.6768897,32.4021112 97.8158965,32.5764156 L98.488331,32.6143303 C102.017345,32.8165926 105.565585,32.8525221 109.085725,32.4902677 C110.831218,32.31062 112.562979,32.0092344 114.265162,31.5820955 C115.130092,31.3650387 115.970725,31.0408274 116.833965,30.8286317 C117.120232,30.7582521 117.376077,30.595935 117.662979,30.4226278 C117.790373,30.2615789 117.969106,30.1396297 118.201923,30.0924986 L118.264986,30.0815084 L118.264986,30.0815084 L118.327415,30.0724204 L118.348965,30.0626982 L118.347275,30.0694614 C118.523894,30.0455789 118.691641,30.0457902 118.84988,30.0673479 C118.912838,28.5139233 118.981077,26.9604986 119.066641,25.4074967 C119.296289,21.2362873 119.930303,16.8850074 119.083965,12.7501503 C119.055655,12.6110818 119.244739,12.5620485 119.293965,12.6922403 C120.954739,17.0695162 120.76819,21.8559663 120.851852,26.46298 C120.933613,30.9683342 120.884176,35.4768587 120.861782,39.9832697 C121.184387,40.1206474 121.472134,40.306847 121.700092,40.5680759 C122.155373,41.0901112 122.286359,41.9976493 121.700092,42.5015084 C121.440232,42.7249057 121.152697,42.8800368 120.847627,42.9876141 C120.831359,46.9024556 120.803683,50.8177198 120.764387,54.7327726 C121.508683,55.3078568 121.57819,56.673391 120.736289,57.2408665 C120.596218,69.9193479 120.365937,82.5982521 120.174951,95.2748313 L119.77481,121.87073 L119.77481,121.87073 C119.72157,125.414229 119.633261,128.957516 119.60157,132.500593 L119.626711,132.510526 L119.626711,132.510526 L119.715273,132.5516 C119.864396,132.621626 120.086271,132.734888 120.132275,132.8508 C120.144317,132.881234 120.147486,132.901947 120.146007,132.917587 C120.390232,132.951825 120.632134,133.067223 120.8415,133.265892 C121.358261,133.75707 121.253261,134.49743 120.8415,134.997696 L120.73143,135.131481 L120.73143,135.131481 C120.474739,135.443223 119.987345,135.56327 119.589317,135.499865 C119.593331,137.711223 119.607486,139.923004 119.600514,142.134362 C119.598232,142.809753 119.588041,143.48522 119.576374,144.160672 L119.548532,145.780268 C119.530045,146.704462 119.448209,147.878959 118.501923,148.294166 C117.434387,148.76273 116.477134,148.378917 116.04488,147.294268 C115.927838,147.000491 115.952979,146.726792 115.995655,146.436397 C115.982345,145.999959 115.914106,145.494197 115.922556,145.08925 L115.957838,143.400773 L115.957838,143.400773 C115.963331,143.140389 115.973894,142.880217 115.981289,142.619833 L115.950444,142.623004 L115.950444,142.623004 C112.157234,142.807212 108.337478,142.717321 104.538061,142.715076 L102.848288,142.717533 C101.43839,142.718744 100.025474,142.711215 98.6175866,142.657304 L98.0898803,142.634839 C97.0358662,142.585383 95.9273451,142.569532 94.834669,142.47527 C94.9738944,143.597328 95.1040352,144.720232 95.2200211,145.844193 C95.3298803,146.910033 94.2302324,147.815669 93.2493169,147.815669 C92.0843873,147.815669 91.4180493,146.899677 91.2786127,145.844193 C90.6203028,140.865626 90.3509366,135.840561 89.721993,130.858823 C89.1586056,126.396754 88.6701718,121.924584 88.173678,117.454023 L88.0077676,115.963912 C86.1908012,99.6949463 84.4267592,83.4198582 82.7394036,67.1369848 L81.953761,59.5251818 C81.1602906,51.8531934 80.3621761,44.1807288 79.6891056,36.4974693 C79.3041761,32.1047648 78.9494577,27.7112149 78.6156549,23.3142834 C78.3707958,20.0840055 78.216993,16.8716924 78.1168521,13.647755 C77.721993,13.2413284 77.5240352,12.6478568 77.6989648,12.0349409 C77.8012183,11.6773362 77.920162,11.3216337 78.0456549,10.9665652 C78.037838,10.6176258 78.0295986,10.2688978 78.022838,9.91953581 C78.0165,9.58898395 78.351993,9.41884697 78.6205141,9.47358669 C79.1085423,8.2915045 79.646007,7.11956712 80.0945282,5.94889785 C80.8204437,4.05393112 81.4187535,2.01207593 82.4442465,0.258925245 Z M41.9030282,20.7390434 C49.4915493,15.9815483 58.524507,12.5580963 67.5716197,12.9266912 C67.7773944,12.9351452 67.8352817,13.248789 67.6216901,13.2963429 C62.7959155,14.3742294 57.9171127,15.6871374 53.3484507,17.5979554 C48.7664789,19.5144798 44.4097183,22.0950669 40.5293662,25.1962098 C33.3699296,30.9178849 27.8051408,38.3601628 24.1409155,46.74929 C21.9946479,51.663607 20.4902113,56.8518341 19.1765493,62.0419632 C17.7864085,67.534746 16.6407042,73.0867068 15.6880986,78.6720611 C13.8065493,89.7047577 12.7111268,100.858981 12.1282394,112.032437 C11.5352113,123.398433 11.7796479,134.77246 11.3566901,146.140147 C11.2835915,148.109721 8.46950704,148.071255 8.32647887,146.140147 C7.36816901,133.215865 7.89908451,120.085306 8.78535211,107.170112 C9.58225352,95.5597949 10.9738732,83.9737832 13.2147887,72.5502998 L13.4099845,71.5602612 C15.5048853,60.9913547 18.0317157,50.1663567 23.0961972,40.5949808 C27.42,32.4235444 34.0952113,25.6343389 41.9030282,20.7390434 Z M147.281049,71.2511718 C147.320556,71.1378881 147.470134,71.1393675 147.510063,71.2511718 C148.375204,73.67369 148.406272,76.4072244 148.636193,78.9608697 L148.654289,79.1569409 C148.874758,81.4861151 149.040809,83.8181281 149.195176,86.1520894 L149.252599,87.0274145 C149.872246,96.5487452 150.646754,106.059508 151.814007,115.530749 C152.977035,124.966272 154.5495,134.336064 156.249993,143.687258 C156.4395,144.728369 155.978514,145.788925 154.887106,146.088831 C153.924993,146.353231 152.689923,145.760393 152.486472,144.725411 C151.430768,139.357959 150.577035,133.983321 149.815415,128.569371 C148.474711,119.035994 147.474148,109.458655 146.830838,99.8527843 C146.508021,95.0282912 146.309218,90.2057002 146.230204,85.3708509 C146.193715,83.1276694 146.251952,80.8790209 146.371422,78.6381044 L146.400063,78.1211131 C146.531894,75.83071 146.518373,73.4354771 147.281049,71.2511718 Z M65.2823873,131.896553 C65.3837958,131.841602 65.5092887,131.954463 65.4450634,132.059293 C63.9756972,134.448186 61.9878803,136.508005 60.0666127,138.538236 C58.0580915,140.660405 56.0992183,142.846612 54.0501338,144.927144 C52.5695704,146.430056 50.1879507,144.005657 51.7504859,142.626596 C53.9474577,140.688092 56.2437254,138.845962 58.4797817,136.950573 L59.4576653,136.121364 C61.2910429,134.571924 63.1788022,133.036359 65.2823873,131.896553 Z M135.072803,130.700121 C134.963155,130.491095 135.213718,130.321592 135.384,130.460027 C136.569211,131.424207 137.631465,132.574375 138.775901,133.591815 C139.909352,134.599745 141.085056,135.539831 142.292873,136.456668 C143.505761,137.37731 144.745056,138.261177 146.017732,139.09749 C147.073437,139.791142 148.161465,140.346782 149.267028,140.922712 C149.77893,140.988653 150.253014,141.239948 150.632451,141.716543 C151.232451,142.470218 151.296254,143.891338 150.46407,144.545678 L150.314704,144.662978 L150.314704,144.662978 C149.343507,145.426586 148.19062,145.51958 147.234634,144.662978 C146.167156,143.706714 145.15817,142.654381 144.133073,141.643811 L143.824986,141.342031 C142.723437,140.270907 141.648718,139.165123 140.635479,138.00967 L139.718209,136.965841 C138.016538,135.024581 136.245322,132.932337 135.072803,130.700121 Z M129.613162,18.7829753 C129.416049,18.6523609 129.537528,18.300674 129.780908,18.38458 L130.227316,18.538929 C132.092323,19.1872595 134.012004,19.9062708 135.705275,20.9045096 C137.524923,21.9771123 139.205134,23.2549362 140.810345,24.6257542 C144.132951,27.4631319 146.959711,30.9523139 149.362035,34.5890184 C154.182317,41.8867327 157.163303,50.2443687 159.570063,58.6068658 C162.136331,67.5233119 164.112106,76.6316642 165.725345,85.7658012 C167.36457,95.0485174 168.629218,104.414928 169.460345,113.805011 C169.869782,118.430623 170.144641,123.058983 170.28281,127.700658 C170.354007,130.088494 170.351683,132.474639 170.331824,134.86332 C170.326754,135.477609 170.33082,136.091582 170.337792,136.705555 L170.36119,138.547789 C170.373655,139.712541 170.513092,140.93647 170.236331,142.07438 C169.790979,143.906153 166.763514,143.5644 166.863021,141.692259 C166.771754,141.06941 166.768162,140.425637 166.791824,139.780596 C166.777458,139.697324 166.761824,139.612784 166.7445,139.526341 C166.694852,139.27885 166.737106,139.049746 166.834289,138.852768 C166.849923,138.543351 166.864077,138.235836 166.869148,137.933605 C166.889007,136.703758 166.887739,135.478772 166.853725,134.249347 C166.782106,131.656924 166.679007,129.064502 166.574852,126.473347 C166.366754,121.295265 166.077317,116.114858 165.657739,110.949457 C164.19788,92.9698873 161.115275,74.8878129 155.937317,57.5902708 C153.532458,49.5576916 150.217035,41.6724235 145.462458,34.7312571 C143.351894,31.6497699 140.970697,28.8035155 138.330908,26.1618481 C135.67443,23.5036955 132.747106,20.8592806 129.613162,18.7829753 Z M93.7848803,134.687434 L94.1436668,137.283817 C94.3230127,138.582231 94.5006549,139.881072 94.6692465,141.180749 C95.8145282,141.023927 96.9862183,140.958197 98.0898803,140.860342 C100.021923,140.689148 101.967275,140.606299 103.905021,140.526197 C107.912134,140.360921 111.939317,140.074119 115.950444,140.094197 C115.991641,140.094409 116.030514,140.097156 116.069387,140.100326 L116.268401,134.977407 L116.268401,134.977407 L113.450092,134.972968 L113.450092,134.972968 C111.062345,134.969164 108.675021,134.948874 106.287275,134.928373 C104.136808,134.90988 101.985533,134.906921 99.8354302,134.862153 L98.9140352,134.84024 C97.2834718,134.796279 95.4830493,134.886949 93.7848803,134.687434 Z M116.50481,127.251497 C116.38988,127.265023 116.272838,127.276436 116.148401,127.28172 C115.590232,127.30518 115.027627,127.288906 114.469035,127.293555 C113.279599,127.303912 112.090373,127.311943 110.900725,127.311732 C108.521852,127.31152 106.14319,127.325892 103.764739,127.354636 C101.316148,127.384225 98.8692465,127.426706 96.4204437,127.431567 C95.2339648,127.433681 94.0512887,127.402189 92.8652324,127.369007 C93.0570634,129.05516 93.2575563,130.740045 93.4789648,132.420914 C95.320787,132.171987 97.3017278,132.297488 99.1017772,132.28029 L99.3355141,132.277195 C101.792345,132.235137 104.251289,132.266205 106.708754,132.269164 C109.236782,132.272123 111.764599,132.280366 114.292838,132.301078 L116.36981,132.318197 L116.36981,132.318197 L116.373824,132.213579 L116.373824,132.213579 C116.434669,130.561242 116.473965,128.906792 116.50481,127.251497 Z M91.9515,119.185101 C92.1817817,121.175387 92.3979085,123.169054 92.6182606,125.162088 C92.764669,125.139473 92.9129789,125.120029 93.0640352,125.104178 C94.2522042,124.979904 95.437838,124.873383 96.6302324,124.799411 C99.0072042,124.652099 101.383965,124.574323 103.764739,124.510495 C106.212908,124.444765 108.6615,124.394463 111.110514,124.359802 C112.300373,124.343105 113.489176,124.344796 114.679035,124.353039 C115.237204,124.356843 115.801077,124.339301 116.35819,124.37671 C116.424528,124.381148 116.48812,124.388123 116.551077,124.395309 L116.592908,121.402996 C116.600115,120.904366 116.607627,120.40579 116.615725,119.907285 C114.776762,120.02072 112.907194,119.977432 111.06961,119.977946 L110.646148,119.978933 C108.337204,119.989501 106.027415,119.957798 103.718894,119.909822 C101.337275,119.860154 98.9605141,119.782377 96.5831197,119.629782 C95.6199205,119.568189 94.6637061,119.486099 93.7058286,119.380451 L93.2267113,119.325649 C92.8098803,119.276405 92.3805845,119.236671 91.9515,119.185101 Z M116.805444,110.740812 C112.376671,111.092458 107.971468,111.239368 103.530888,111.283052 L102.864528,111.288843 C98.9404437,111.318643 94.9840352,111.480538 91.0506549,111.376553 C91.2857958,113.416295 91.5203028,115.456037 91.7567113,117.495356 C92.3199507,117.469148 92.8859366,117.468937 93.4365,117.44907 C94.5564296,117.408702 95.6725563,117.398557 96.7931197,117.396021 C99.1016408,117.390737 101.410162,117.410816 103.718894,117.406166 C106.09819,117.401094 108.477063,117.360937 110.855937,117.316131 C112.784599,117.27999 114.733754,117.134792 116.667697,117.140076 L116.805444,110.740812 L116.805444,110.740812 Z M116.992838,102.038675 C116.479632,102.209147 115.873789,102.220111 115.209481,102.25059 L113.495017,102.336014 C112.700396,102.374975 111.905683,102.411623 111.110514,102.440663 C108.461007,102.537673 105.8115,102.628342 103.16157,102.712671 C100.446148,102.798902 97.7176268,102.848992 95.0017817,102.763395 C93.6714296,102.721336 92.3522746,102.651591 91.0259366,102.540632 C90.6980493,102.513156 90.3638239,102.495191 90.0289648,102.47152 C90.3376268,105.174056 90.6475563,107.87617 90.9585423,110.578283 C94.8731197,110.097673 98.8179085,109.798401 102.727627,109.301305 L106.26284,108.849709 C109.79639,108.398641 113.327028,107.955955 116.873472,107.582816 L116.992838,102.038675 L116.992838,102.038675 Z M117.1815,93.2403734 C116.428493,93.4263616 115.57031,93.4170827 114.847202,93.4627464 L114.713261,93.4720133 C113.34319,93.5759977 111.969528,93.6279898 110.596289,93.6618059 C107.904739,93.7281699 105.2115,93.7613519 102.519106,93.7778372 L100.900071,93.7879059 C98.7417338,93.8005531 96.5846408,93.8060313 94.4256549,93.7556454 C93.0407958,93.7235202 91.6591056,93.6556767 90.2753028,93.5863538 C89.8607958,93.5654301 89.436993,93.5516924 89.0119225,93.530346 C89.3011479,96.0889526 89.593331,98.6469252 89.8848803,101.205109 C90.3395282,101.132827 90.7962887,101.077876 91.2317113,101.004326 C92.346993,100.815802 93.460162,100.665321 94.5834718,100.53069 C97.0164296,100.239027 99.4620634,100.029156 101.90643,99.8520446 C104.415866,99.670072 106.927415,99.516209 109.437275,99.3401542 L111.214827,99.2147971 C111.807327,99.173663 112.39988,99.1338763 112.992697,99.0975241 C114.005092,99.0353871 115.181852,99.1055554 116.186007,98.885117 C116.457908,98.7718333 116.75981,98.7458372 117.062134,98.8105104 L117.1815,93.2403734 L117.1815,93.2403734 Z M117.409458,82.9419076 C117.148965,83.2728822 116.75981,83.4464008 116.295866,83.5064243 C113.879153,83.8200094 111.400252,83.8704217 108.963102,84.0182041 L108.533472,84.0453675 C106.017063,84.2112775 103.499176,84.3414693 100.980866,84.475254 C98.3938944,84.6126317 95.8073451,84.7246474 93.2182606,84.8148939 C92.119088,84.8531748 91.0144159,84.8576362 89.9135854,84.8435699 L89.4420634,84.8364517 C88.9899507,84.8288431 88.5165,84.8298998 88.041993,84.8144712 C88.3045986,87.2069566 88.5697394,89.5992305 88.8386831,91.9908705 C89.3224859,91.9382442 89.8060775,91.8980877 90.2753028,91.8484204 C91.6582606,91.7021659 93.0395282,91.5576023 94.4256549,91.4483342 C97.0521338,91.241211 99.6805141,91.1167256 102.311852,90.9865339 C105.004035,90.8531718 107.697697,90.7644047 110.390303,90.6386513 C111.695725,90.577571 113.000725,90.5016963 114.302345,90.3816493 C115.214599,90.2977432 116.29819,89.9870583 117.249951,90.1011875 C117.301923,87.71462 117.356007,85.3282638 117.409458,82.9419076 Z M117.621782,73.7164673 C117.580585,73.7802951 117.532415,73.8420094 117.473894,73.8994967 C116.409904,74.9510616 115.098577,74.8699935 113.688648,74.9803121 L113.602204,74.9873166 C112.220303,75.1035593 110.837768,75.2140955 109.454387,75.3138528 C106.689106,75.5135789 103.918331,75.6532814 101.149035,75.7777667 C98.3148803,75.905211 95.4625563,75.9929213 92.6256549,75.9350114 C90.8089648,75.8978137 88.9062887,75.9043656 87.0532606,75.727254 C87.337838,78.3621581 87.6241056,80.9968509 87.9124859,83.6313323 C88.4334718,83.5330544 88.957838,83.4578137 89.4545282,83.3796141 C90.7062887,83.1826356 91.9593169,82.9846004 93.2182606,82.8396141 C95.7340352,82.5498528 98.2504437,82.2789018 100.771077,82.0343695 C102.926711,81.8253088 105.081612,81.6130192 107.238835,81.4219624 L108.533472,81.310072 C111.107345,81.093438 113.713754,80.736256 116.295866,80.6834184 C116.721359,80.674753 117.202627,80.906393 117.44643,81.272029 C117.503472,78.7533675 117.562627,76.2349174 117.621782,73.7164673 Z M117.800514,66.247982 C117.143261,66.3278724 116.435092,66.2824321 115.828542,66.302299 C114.294951,66.352389 112.761148,66.3988861 111.227345,66.4441151 L102.024317,66.7159115 L102.024317,66.7159115 C98.891007,66.8082716 95.7467113,66.8775945 92.6121338,66.833211 C91.2332324,66.813809 89.8483415,66.8115264 88.4699364,66.7365379 L88.0107254,66.7087256 C87.4434718,66.6708939 86.7473451,66.6656102 86.0674859,66.5964986 L86.8700915,74.0332814 L86.8700915,74.0332814 C88.7141479,73.7667828 90.6145197,73.6670874 92.4428961,73.5108091 L92.8335423,73.4763734 C95.530162,73.230573 98.239669,73.0680446 100.941148,72.8850153 C103.712345,72.6973362 106.479528,72.4695006 109.246923,72.2363812 C110.630092,72.1201386 112.013049,72.0041072 113.395162,71.8768744 L113.565899,71.8600573 C114.871488,71.723677 116.099167,71.4335495 117.255444,72.2036219 C117.424669,72.3160603 117.557134,72.4665417 117.647768,72.6349879 C117.698261,70.5060564 117.747697,68.3769135 117.800514,66.247982 Z M118.014951,57.5688822 C112.410232,57.7946043 106.804669,57.965798 101.195725,58.0410387 C98.0385423,58.0833088 94.8853732,58.0535084 91.7286127,57.9875671 C90.3597864,57.9588235 88.979609,57.8933414 87.6118214,57.7884491 L87.0995282,57.7472618 C86.4492465,57.6925221 85.766007,57.6527883 85.0857254,57.5872697 C85.3669225,60.1441855 85.6457958,62.7015241 85.9225563,65.2592853 C86.5917163,65.1348604 87.2911156,65.0774982 87.8774818,65.0024201 L88.0107254,64.9847413 C89.467838,64.7841699 90.9386831,64.6672932 92.4029789,64.5383695 C95.2542465,64.287074 98.119669,64.1251796 100.978542,63.9875906 C103.906077,63.84662 106.835092,63.727207 109.763049,63.5970153 L112.691265,63.4658841 C113.17927,63.4442795 113.667275,63.4230035 114.155303,63.4023616 C114.852697,63.372984 115.54988,63.3448744 116.247063,63.3159194 C116.591007,63.3017589 116.948472,63.2550505 117.292838,63.2728039 L117.390836,63.2596326 C117.436018,63.2538754 117.475923,63.2492595 117.512556,63.2453284 C117.606218,63.1739977 117.707069,63.1148489 117.813887,63.0699614 L117.878683,63.0447569 L118.014951,57.5688822 Z M84.1667113,49.3439742 C84.426993,51.6457902 84.6843169,53.9482403 84.9382606,56.2509018 C85.7376972,56.1595984 86.5466408,56.1090857 87.3099507,56.0403969 C88.8490352,55.9023851 90.3953028,55.7814928 91.9390352,55.7104791 L95.0243169,55.5671444 C97.0809836,55.4720055 99.1375563,55.3799977 101.195725,55.3048978 C106.828542,55.099254 112.461148,54.8635984 118.090585,54.5759507 C118.130303,53.0142834 118.171289,51.452616 118.21312,49.8909487 C117.942908,50.1804986 117.552486,50.3709252 117.039528,50.3696571 C111.129528,50.3538059 105.21488,50.3880446 99.3055141,50.2908235 C96.3475563,50.2420016 93.3929789,50.1703538 90.4384014,50.0186043 C88.9926972,49.9444204 87.5389648,49.7930935 86.1042465,49.5942129 C85.4924155,49.5094614 84.8229085,49.4490153 84.1667113,49.3439742 Z M83.2208662,41.1416806 C83.4986831,43.4995045 83.7712183,45.8581738 84.0393169,48.2172658 C84.7732606,48.0862286 85.5315,48.016483 86.2162183,47.9232775 C87.6874859,47.7231288 89.167838,47.5637706 90.649669,47.4800759 C93.5330493,47.3169135 96.4181197,47.2346982 99.3055141,47.1734067 C105.214458,47.0478646 111.129317,47.04871 117.039528,47.0020016 C117.594739,46.9975632 118.006923,47.2173675 118.277556,47.5453832 C118.318542,46.0729057 118.361852,44.6004282 118.40643,43.1277393 C117.835585,43.0675045 117.269599,42.982119 116.745866,42.9455554 C115.136218,42.833117 113.525937,42.7304008 111.915021,42.6380407 C108.553331,42.4450779 105.188472,42.280436 101.824458,42.1339703 C98.4595986,41.9875045 95.0936831,41.8444204 91.7277676,41.7197237 L90.2556979,41.6659446 C87.9149852,41.5788481 85.5345496,41.4688693 83.2208662,41.1416806 Z M82.1624155,32.2613753 C82.4516408,34.6494223 82.7364296,37.037892 83.0205845,39.4267843 L83.106993,40.1660877 L83.106993,40.1660877 C85.9221338,39.6186904 88.8889648,39.4582755 91.7277676,39.3375945 C95.0943169,39.194299 98.4549507,39.1205378 101.824458,39.1308939 C105.190585,39.1410387 108.551641,39.2207178 111.915021,39.3597863 C113.595655,39.4291092 115.276077,39.5094223 116.955655,39.6007256 C117.417486,39.625665 117.958965,39.6123499 118.516289,39.6203812 C118.528331,39.2450231 118.538683,38.869665 118.55157,38.4945182 C118.602697,36.9740642 118.652768,35.4536102 118.704951,33.9333675 C117.568926,34.5170701 116.091825,34.7525079 114.950155,35.00128 L114.819951,35.0300642 C112.93481,35.4536102 111.009951,35.7281542 109.085725,35.8959663 C105.306993,36.2256728 101.488965,36.1024556 97.7138239,35.7831053 L97.0525256,35.7265079 C93.7374119,35.4389544 90.3006285,35.0744742 87.0868521,34.2537746 C85.556007,33.8629879 83.9734014,33.3160133 82.6016408,32.5232384 C82.4590352,32.4408117 82.3117817,32.3535241 82.1624155,32.2613753 Z M114.082289,3.8821456 C114.115035,3.75301057 114.308345,3.72363288 114.371937,3.84431389 C114.818345,4.69267397 114.984401,5.71095969 115.294331,6.6199773 C115.627923,7.59726106 115.93912,8.58173072 116.307148,9.54717886 C117.075951,11.5643061 117.982923,13.5025996 119.06419,15.3711476 C120.135106,17.221308 117.136585,18.542036 116.348556,16.5164548 C115.534965,14.4262004 114.866303,12.2649323 114.461725,10.0561104 C114.26419,8.97843523 114.088204,7.88596556 114.031162,6.79095969 C113.981937,5.85045088 113.849683,4.79961722 114.082289,3.8821456 Z" id="ðŸ–-Ink" fill="#000000"></path>
                    </g>
                    <g id="head/Long-Curly" transform="translate(78.591549, 38.043053)" fill-rule="evenodd">
                        <path d="M72.5508169,31.0088712 C58.6557465,19.7109299 36.3887746,16.0425229 21.5149014,27.4408556 C9.95771831,38.137928 5.17504225,68.5355953 7.22032394,83.8103037 C7.78905634,93.6074466 15.2710986,104.712002 26.2542676,101.613396 C28.119338,101.429732 29.9303239,100.714523 31.812507,100.564676 C34.0639859,100.305349 36.3325775,100.30091 38.5796197,100.61857 C43.4759577,101.311376 47.8164507,103.912041 52.5687042,105.12794 C61.3868028,107.383893 71.2257465,105.866398 78.816169,100.784691 C103.899338,84.28711 92.5373662,46.9763859 72.5508169,31.0088712 L72.5508169,31.0088712 Z" id="ðŸŽ¨-Background" fill="#FFFFFF"></path>
                        <path d="M70.7003451,105.39944 C70.9583028,105.310462 71.215838,105.217679 71.4714718,105.122571 C71.4883732,105.18175 71.515838,105.238603 71.5477394,105.293765 C71.5836549,105.382532 71.6195704,105.468975 71.6595,105.555628 C71.3385845,105.557953 71.0172465,105.500677 70.7003451,105.39944 M70.1850634,-4.0844501 C70.0709789,-4.3399726 69.9397817,-4.58513894 69.7918944,-4.82206262 C70.1510493,-4.70560861 70.5104155,-4.54498239 70.8357676,-4.3378591 C70.6160493,-4.2638865 70.4003451,-4.17934638 70.1850634,-4.0844501 M15.2998521,29.3429237 C15.2850634,29.3403875 15.2704859,29.338274 15.2559085,29.3357378 C15.4443592,28.8337808 15.7800634,28.3599335 16.150838,28.0177573 C16.2173873,27.9562544 16.2894296,27.8994012 16.3591479,27.8406458 C15.9655563,28.3096321 15.6085141,28.8098982 15.2998521,29.3429237 M115.725697,81.8315577 C115.539782,80.0688963 115.303162,78.3127867 114.996824,76.5668219 C114.703162,74.8952524 114.455979,73.107229 113.60457,71.6235499 C112.7595,70.1462114 111.912317,68.7109315 110.906894,67.4113386 C111.050345,66.7476986 111.240697,66.1242153 111.405275,65.6212016 C112.355979,62.7257025 113.292106,59.0482074 111.316542,56.3577182 C110.858092,55.7342348 110.298444,55.2565832 109.658092,54.8254286 C109.385556,54.6415538 108.933655,54.4745871 108.724289,54.2209667 C108.576401,54.041319 108.627317,54.1385401 108.620768,54.049773 C108.584852,53.5721213 109.70457,52.5639804 109.966542,52.1856634 C110.456894,51.4858826 110.822176,50.6977573 111.101049,49.8925127 C112.203866,46.7053503 111.453866,43.1948219 110.790697,40.0011076 C110.439993,38.3084031 110.053373,36.6112603 109.926401,34.8824149 C109.808092,33.2592446 110.029923,31.6741174 110.160908,30.0594012 C110.28788,28.4656086 110.254077,26.8215147 109.571472,25.3460783 C109.237669,24.6274873 108.732951,23.9934364 108.117951,23.4988767 C107.518162,23.0150959 106.770063,22.734 106.185063,22.2521213 C105.601754,21.7721448 105.768655,21.1235108 105.920979,20.4598708 C106.129923,19.5595186 106.394007,18.6655068 106.419359,17.7355656 C106.465838,16.1145088 105.80457,14.5355108 104.771683,13.3098904 C103.706683,12.0439022 102.185556,11.1877221 100.541894,10.9953933 C99.7897817,10.9066262 99.0503451,11.0568963 98.3024577,11.0040587 C97.5630211,10.9533346 97.402669,10.5834716 97.2630211,9.90715068 C96.9421056,8.35795303 97.0728803,6.82777691 96.3104155,5.3821409 C95.6343592,4.09713112 94.4320352,3.22615656 93.103162,2.71278669 C90.6674577,1.77016438 87.8343592,1.96460665 85.2651338,2.52024658 C83.7484437,-1.94326027 79.0139366,-4.87046184 74.3554859,-4.90639139 C73.6285141,-6.1406771 72.3968239,-7.06216438 70.9921056,-7.60343249 C68.668162,-8.50167123 66.2066831,-7.97731115 63.7857676,-7.97731115 L63.7752042,-7.97731115 C63.5320352,-7.99231703 63.2890775,-7.99844618 63.046331,-7.99633268 C62.8179507,-8.00922505 62.5897817,-8.02824658 62.3616127,-8.05339726 C59.6066831,-8.37908806 56.881331,-9.50769863 54.1517535,-8.40212524 C52.9348521,-7.90967906 51.9672465,-7.15093151 51.3547817,-6.18294716 C50.4315423,-5.93165166 49.5207676,-5.64400391 48.6273169,-5.31007045 C44.7545704,-5.20883366 40.9179507,-3.13126027 38.9597113,0.235761252 C36.202669,-0.077037182 33.2111197,0.453452055 31.387669,2.70644618 C30.9127394,3.2927319 30.5449225,3.9815225 30.3011197,4.71279452 C28.4419648,5.31429746 26.7216127,6.38605479 25.5957676,8.00034834 C24.5683732,9.47345988 24.3710493,11.3781487 25.0659085,12.9594716 C23.4061901,14.1622661 22.1092183,15.884137 21.4845,17.9173268 C21.1048521,19.1526693 21.0484437,20.4290137 21.292669,21.6449119 C19.5934437,22.0219609 17.968162,22.7208963 16.528162,23.7698278 C15.0190775,24.868638 13.1343592,26.6175616 13.0350634,28.6304618 C13.027669,28.7781957 13.0333732,28.9259295 13.0452042,29.0732407 C9.72302113,28.8396986 6.33555634,29.4027358 4.08999296,32.067229 C2.4038662,34.0663914 1.67097887,36.6408493 2.12097887,38.9847241 C-1.83183803,39.7878552 -5.56937324,41.8548611 -8.17641549,44.9109863 C-10.0712746,47.1322779 -11.7550775,49.9559178 -11.6538803,52.9801292 C-11.6221901,53.8912603 -11.4085986,54.8085205 -11.0388803,55.6560352 L-11.0388803,55.6579374 C-11.197331,55.9561526 -11.3602183,56.2879726 -11.5165563,56.6409276 C-13.9651479,58.3547671 -15.7440211,61.0412407 -16.7454296,64.0022583 C-17.5543732,66.4008728 -18.0635282,69.5163875 -17.1996549,71.9574834 C-17.0684577,72.3294599 -16.9015563,72.6803014 -16.7071901,73.0055695 C-16.8700775,73.1790881 -17.0240915,73.3523953 -17.1740915,73.527816 C-18.8243028,75.4572329 -20.4954296,77.8877613 -20.3811338,80.5444344 C-20.3346549,81.6140783 -19.9376831,82.6898513 -19.2888803,83.5730841 C-21.5707817,85.8875812 -23.4085986,88.8084423 -23.2271197,92.0695773 C-23.0707817,94.9080117 -21.5135282,97.7908297 -19.0735986,99.1540391 C-19.4811338,101.341515 -18.9360634,103.64946 -17.2334577,105.35717 C-16.3839507,106.211025 -15.3827535,106.773217 -14.3219789,107.073335 C-14.0853592,109.649695 -11.7996549,111.723041 -9.37219014,112.318838 C-8.9198662,112.431065 -8.46775352,112.498697 -8.01796479,112.530188 C-5.83345775,113.601945 -3.22852817,113.479151 -0.99965493,112.496372 C-0.342612676,113.331417 0.513021127,114.011965 1.51020423,114.500184 C1.91372535,114.698853 2.34069718,114.863706 2.78626056,114.996646 C5.93414789,115.928701 9.16252817,114.665037 11.9151338,113.189812 C12.0038662,113.143315 12.1665423,113.084137 12.3102042,113.018618 C12.6904859,113.443432 13.3834437,113.86402 13.7447113,114.071143 C14.9702746,114.774939 16.468162,115.102321 17.8752042,115.009538 C19.5252042,114.899636 20.9806268,114.354352 22.3285141,113.578697 C22.5252042,113.612513 22.7235845,113.631534 22.9223873,113.642102 C24.189993,113.709523 25.3200634,113.308168 26.3364718,112.674117 C27.0080915,112.762885 27.6968239,112.754431 28.394007,112.631847 C29.9301338,113.022634 31.4259085,112.401476 32.6278099,111.41447 C33.1604155,110.976975 33.6102042,110.463393 34.0921056,109.973061 C34.5925986,109.463495 34.9730915,109.34535 35.5580915,109.002963 C36.9421056,108.193491 37.1087958,106.14128 36.5087958,104.657389 C36.6228803,104.39764 36.6885845,104.10809 36.6885845,103.786838 C36.6841479,100.984333 35.3935141,98.4143131 33.809007,96.1718865 C33.1010493,95.1721996 32.3322465,94.1934364 31.4890775,93.3059765 C30.8109085,92.5935147 29.8583028,91.4376399 28.8547817,91.1478787 C28.7935141,91.1037065 28.7299225,91.0591115 28.6665423,91.0170528 C28.8611197,90.3362935 28.974993,89.6432759 28.9266127,88.9352524 C28.8756972,88.2079961 28.6411901,87.5189941 28.2653451,86.9316517 C29.5264014,84.4863288 30.059007,81.8042935 29.8054859,79.0060157 C30.8320352,77.5496008 31.6097113,75.9414364 32.0109085,74.178775 C32.2580915,73.0882074 32.3998521,71.9405753 32.3806268,70.8223209 C32.3721761,70.2857025 32.1756972,69.6070568 32.1716831,69.0514168 C32.2012606,69.2268376 32.4294296,68.5716517 32.518162,68.4087006 C33.5362606,66.5173268 34.844007,65.0421018 35.0618239,62.8123562 C35.1883732,61.5081135 34.8799225,60.0669159 34.0982324,58.9974834 C34.5989366,57.0234716 34.5925986,54.9034168 33.8045704,53.0204971 C33.5933028,52.5174834 33.3505563,52.0250372 33.0716831,51.557953 C33.2003451,51.1648415 33.3188662,50.7675029 33.4707676,50.4101096 C33.5301338,50.2685049 33.5890775,50.124998 33.6482324,49.9812798 C34.2207676,49.4759413 34.7533732,48.9245284 35.2012606,48.3832603 C36.194007,47.1851155 36.952669,45.8113386 37.0477394,44.2281135 C37.0942183,43.4355499 36.9083028,42.6768023 36.6780211,41.9246067 C36.5764014,41.5843327 36.5151338,41.2060157 36.3947113,40.8741957 C36.3273169,40.6901096 36.1644296,40.5022192 36.1075986,40.3289119 C36.0947113,40.2908689 36.0841479,40.2591663 36.0756972,40.2338043 C36.0841479,40.2084423 36.0906972,40.1556047 36.0906972,40.0560587 C36.0925986,39.2973112 36.1918944,38.5554716 36.196331,37.824411 C36.8914014,38.5260939 37.7280211,39.0500313 38.6787254,39.3567006 C40.5947113,39.9717299 42.5935141,39.6927476 44.2897817,38.7437847 C46.1153451,39.9949785 48.1665423,41.1276047 50.3174577,41.5822192 C51.5954155,41.8525362 52.8759085,41.7407319 54.1580915,41.9076986 C55.4320352,42.0746654 56.6639366,42.6305166 57.8637254,43.0637847 C60.5343592,44.0296556 63.1982324,45.0206771 65.8771056,45.9613973 C68.0404859,46.7201448 70.381331,47.3224932 72.646331,46.8955656 C73.2822465,47.8760196 74.1083028,48.7047241 75.1667535,49.3134129 C75.924993,49.746681 76.7573873,50.0402466 77.6172465,50.1862896 C78.3778099,50.3152133 79.2695704,50.2644892 79.8862606,50.7865245 C80.4883732,51.2937652 80.8644296,52.0501879 81.4052746,52.621045 C82.0075986,53.2593229 82.7510493,53.8130607 83.5306268,54.2103992 C84.1559789,54.5295382 84.7942183,54.7596986 85.4425986,54.9099687 C85.3857676,56.3534912 85.3306268,57.7949002 85.3137254,59.2405362 C85.2822465,62.3812016 85.2947113,65.5216556 85.252669,68.6625323 C85.2104155,71.7924188 85.1111197,74.922728 84.946331,78.0485988 C84.7897817,80.9821409 84.5700634,83.9260391 83.8707676,86.7879335 C81.5510493,96.2839022 72.8616127,103.083041 63.1348521,103.429656 C60.2470352,103.533217 57.3883732,103.127425 54.6271056,102.277585 C51.7667535,101.396466 49.2123169,99.5828689 46.2799225,99.0251155 C45.5130211,98.8811859 44.7904859,99.6528258 45.2299225,100.394454 C45.9864718,101.669108 46.9052746,102.446877 48.1623169,103.213867 C49.4787254,104.015096 50.9447113,104.60899 52.3918944,105.128912 C55.0538662,106.084004 57.8702746,106.637953 60.6949225,106.792239 C62.8496408,106.910384 65.0130211,106.76265 67.1235845,106.356857 C67.2716831,106.81126 67.5336549,107.252982 67.7320352,107.673569 C67.7616127,107.734861 67.8611197,107.692591 67.8421056,107.629186 C67.8102042,107.523511 67.7892887,107.430517 67.780838,107.354431 C68.4904859,108.280145 69.5869648,108.920325 70.7132324,109.231221 C71.5073873,109.451025 72.3505563,109.518446 73.168162,109.425663 C73.4322465,109.395863 73.6834437,109.351691 73.9329507,109.29674 C74.7651338,110.025898 75.8299225,110.512004 76.8989366,110.755057 C76.7153451,111.870986 77.2665423,113.088364 78.5449225,113.405389 C79.081331,113.53854 79.5968239,113.540654 80.1125282,113.492043 C80.5287254,113.686485 80.9766127,113.838658 81.4519648,113.942219 C82.0707676,114.077483 82.8102042,113.903965 83.2771056,113.456114 C83.5327394,113.635761 83.7714718,113.760458 84.0080915,114.045569 C84.9822465,115.220888 87.0820352,114.284607 87.174993,112.925624 C87.4834437,112.925624 87.794007,112.929851 88.1047817,112.940419 C88.1785141,112.974235 88.2524577,113.008051 88.3285141,113.04398 C89.6869648,113.675706 91.094007,114.227542 92.596331,113.730869 C92.8728803,113.639777 93.1264014,113.523746 93.3566831,113.388481 C94.4151338,113.483589 95.4587958,113.485703 96.5322465,113.139088 C97.1660493,112.933867 97.7616127,112.608599 98.2580915,112.181671 C99.9144296,112.667777 101.661824,112.887581 103.309711,112.285022 C104.543303,111.835057 105.536472,111.12492 106.235556,110.188427 C107.304782,110.226681 108.390486,109.968834 109.368655,109.459479 C111.041894,108.592943 112.21443,106.946313 113.032035,105.295879 C114.832246,101.654313 115.897035,97.7422192 116.315134,93.7075421 C116.727106,89.7341566 116.139782,85.7819061 115.725697,81.8315577" id="ðŸ–-Ink" fill="#000000"></path>
                    </g>
                    <g id="face/Smiling" transform="translate(112.183099, 77.354207)" fill="#000000" fill-rule="evenodd">
                        <path d="M30.968993,50.9198978 C29.548794,50.3403012 28.2816173,49.3734958 27.3551889,48.1384646 C27.0331038,47.7091169 26.9495926,47.2557326 27.017159,46.8410547 C27.0931327,46.3747786 27.3688808,45.9521824 27.7449394,45.6687178 C28.1221628,45.3843752 28.5940214,45.2441445 29.0502103,45.3156301 C29.4466117,45.3777469 29.8412104,45.5948709 30.1535058,46.0451781 L30.2187521,46.1352289 C30.7695298,46.8806513 31.4872438,47.4922614 32.3050288,47.8864795 C33.0932406,48.2664417 33.9747757,48.4437847 34.8870208,48.3406561 C36.6244504,48.1443157 37.8219743,47.2043274 39.0948115,45.9278391 C39.2525834,45.7666792 39.4104563,45.6004672 39.5690946,45.4315797 C39.6692778,45.278484 39.8083069,45.1800892 39.962667,45.1284632 C40.1340565,45.0711416 40.327938,45.0743848 40.5055187,45.1363808 C40.6767961,45.1961763 40.8299095,45.309486 40.9325762,45.4602937 C41.0301525,45.6036243 41.0854754,45.7806897 41.0675245,45.9843589 C40.9510195,47.3072301 40.2596776,48.4878363 39.2776553,49.4148615 C38.1869942,50.4444414 36.7412431,51.1567117 35.3801317,51.4065272 C33.8805866,51.6817086 32.3525901,51.4845569 30.968993,50.9198978 L30.968993,50.9198978 Z M36.0875289,30.5120405 C37.6828906,31.482148 40.1137318,33.7442494 38.3974899,36.149264 C36.3773089,38.2698449 33.4687045,35.8384541 32.0353946,34.7388307 C30.7063626,33.8866164 29.2131206,36.0784478 30.4461973,37.0735516 C40.8033244,44.7445605 45.006466,30.7657101 36.8944406,29.3714319 C36.0012775,29.2177885 35.6695544,30.2119271 36.0875289,30.5120405 Z M17.5274577,21.5886716 C17.7037243,19.3998697 21.0359789,18.9028321 21.3674577,21.0687499 C21.6642887,23.0089456 21.3148521,24.7912626 20.4412606,26.5380728 C19.6065423,28.2068947 17.5085456,27.4283107 17.3498837,25.9087021 C17.1372039,23.8717299 17.4178099,22.9502317 17.5274577,21.5886716 Z M42.8930282,20.6196517 C43.3576056,20.0109628 44.0283803,19.5954481 44.8320423,19.8302583 C47.3429577,20.5642779 46.6028873,24.1303914 45.7210563,25.8662114 C45.2419014,26.8088337 43.6930986,27.0478708 42.993169,26.2178982 C41.8523239,24.864411 41.3059859,22.1614521 42.756338,20.8282544 C42.7956338,20.7593542 42.8393662,20.68982 42.8930282,20.6196517 Z M20.4058944,12.0111429 L20.802522,11.9416942 C22.0295218,11.7294045 23.5551549,11.5254176 24.4231479,12.5122544 C24.8835,13.0355577 25.0419507,14.0081918 24.4231479,14.509092 C23.3346972,15.3904227 22.1313169,15.0488806 20.8269507,15.1234873 C19.7520211,15.1852016 18.7189225,15.3631585 17.6835,15.6592603 C15.4119507,16.3087397 13.5610352,17.4944149 11.6209648,18.7963327 C11.3663873,18.9671037 11.1065282,18.6414129 11.228007,18.4032211 C12.3479366,16.208771 14.5182887,14.4061644 16.6922324,13.3073542 C17.8525141,12.7208571 19.1222324,12.2343288 20.4058944,12.0111429 Z M40.6041287,11.0281289 L40.9077055,11.0902829 C44.2113469,11.7811043 48.5035506,13.1610768 50.0679842,16.4073021 C50.1275964,16.8663298 50.0646105,16.9647086 50.0133917,17.0289838 L49.9963385,17.0503723 C49.9541341,17.1052595 49.9204583,17.1809212 49.7215736,17.2433957 C49.6663832,17.2302408 49.6106433,17.216308 49.5543131,17.2015401 C48.8372041,17.0135386 48.2698321,16.7545401 47.720556,16.4857982 L47.1250012,16.192275 C46.4340388,15.8533498 45.7369757,15.5267598 44.9982488,15.2856588 C43.4217423,14.7712438 41.8001698,14.4088706 40.1534741,14.2153715 C39.7965654,14.1734678 39.4528848,14.0529641 39.1817455,13.8464404 C38.92438,13.6504079 38.7277692,13.3789964 38.6381257,13.0182314 C38.5219478,12.5513438 38.5553348,12.1978716 38.8057421,11.7766707 C38.9940329,11.4603578 39.263447,11.2411116 39.5728025,11.115213 C39.888177,10.9868648 40.2472278,10.9566068 40.6041287,11.0281289 Z" id="ðŸ–-Ink"></path>
                    </g>
                    <g id="accessories/*-None" transform="translate(88.521127, 88.978474)"></g>
                </g>
            </g>
        </g>
    </g>
</svg>