<?xml version="1.0" standalone="no"?>
<svg viewBox="-350 -160 1500 1500" xmlns="http://www.w3.org/2000/svg" style="width: 585px; height: 585px; justify-content: center; align-self: center; transform: scale(1, 1);"><g transform="rotate(0 421.3642044067383 565.3217544555664)"><g transform="translate(0 459)"><path d="M688.718 327.928C685.576 319.302 690.164 310.698 692.709 302.353C701.75 273.412 711.621 244.47 725.587 217.48C730.878 208.452 722.174 197.376 712.089 199.922C694.824 202.34 677.021 200.415 659.726 199.348C653.401 182.984 636.521 176.196 623.234 166.772C608.157 157.362 593.491 146.554 577.811 138.304C576.939 130.509 567.487 128.577 561.707 134.153C545.832 124.278 526.795 126.112 509.778 119.642C496.848 98.7414 495.878 76.7643 492.454 56.6009C490.962 47.8117 492.547 39.3313 486.541 31.4949C466.366 3.11989 386.65 -9.18311 357.259 7.63189C341.438 -2.23511 341.057 15.6349 338.544 26.6639C335.751 32.1819 334.24 38.4309 334.707 45.0149C317.713 80.5099 278.834 96.5569 244.015 109.556C239.647 105.353 233.404 105.884 229.248 109.362C199.068 115.923 169.777 127.456 144.491 145.464C115.763 153.866 95.5315 177.231 80.9015 202.284C79.2895 204.925 78.9095 207.618 79.3805 210.091C34.3915 276.038 12.9195 354.987 9.90347 434.725C-19.0275 452.088 23.6545 608.066 33.5905 640.448C33.6005 640.444 33.6105 640.44 33.6205 640.435C40.0665 651.847 47.3855 684.411 63.5175 681.892C74.5835 694.404 92.2185 691.944 107.235 692.905C104.789 702.287 105.991 713.022 108.902 722.293C112.345 733.329 129.241 733.703 131.637 721.671C281.181 750.725 434.62 727.543 585.845 731.904C629.569 732.214 673.289 733.567 716.908 736.682C723.05 737.12 729.277 730.844 728.859 724.729C719.481 624.957 710.674 493.706 700.187 394.911C697.7 372.38 695.733 349.602 688.718 327.928Z" transform="translate(54.99983 -33.00009)" fill="#DC4B78" stroke="none"></path><path d="M348.011 0.789763C348.44 -0.380237 350.188 -0.225237 350.221 1.08876C350.91 29.1418 343.926 63.4228 321.478 82.3718C309.955 92.0987 294.72 96.5503 280.729 101.666L279.151 102.248L254.433 111.456C253.501 111.803 252.558 112.177 251.61 112.553C245.892 114.82 239.981 117.164 235.014 114.205C239.7 125.825 243.634 137.765 249.341 148.964C256.445 162.905 265.034 175.66 275.546 187.261C317.192 233.22 383.102 247.239 442.249 233.773C472.706 226.838 502.343 213.696 523.122 189.726C538.914 171.506 547.987 147.052 550.125 122.931C549.5 123.031 548.845 123.027 548.172 122.879C540.688 121.246 533.133 117.235 526.548 113.301L525.914 112.921C519.578 109.107 512.974 104.736 508.427 98.8098C503.911 92.9249 499.172 73.7276 499.172 73.7276C497.881 66.513 496.669 52.1398 496.877 44.8468C496.896 44.1588 499.949 43.7528 500.275 44.4678C503.096 50.659 504.008 64.2625 506.185 70.7063L506.625 71.9928C508.95 78.7218 510.944 86.9148 515.765 92.3548C524.816 102.57 538.472 106.894 550.661 112.017C551.536 100.472 569.976 100.741 569.742 112.782C569.729 113.435 569.7 114.085 569.677 114.736C571.131 115.535 572.53 116.45 573.837 117.332L575.113 118.198C579.941 121.482 584.806 124.603 589.947 127.389C599.9 132.784 610.437 137.061 620.635 141.958C630.952 146.913 640.601 152.816 649.61 159.881C653.841 163.198 657.898 166.732 661.747 170.486L662.791 171.516C666.454 175.164 671.22 179.243 673.307 184.037C673.767 185.094 676.071 187.552 677.322 187.634C696.698 188.905 716.032 190.698 735.287 193.388C740.272 194.084 742.242 196.653 740.4 200.808C734.068 215.086 709.279 272.107 702.687 287.41C703.08 293.153 703.001 299.416 702.922 305.668L702.922 305.671C702.847 311.671 702.772 317.639 703.111 323.132C704.126 339.542 705.455 355.946 707.048 372.31C712.748 430.847 721.389 489.099 729.197 547.38C733.105 576.548 736.668 605.759 740.185 634.976C741.961 649.741 743.468 664.521 744.628 679.349C745.111 685.527 745.549 691.71 745.936 697.895L746.269 703.382C746.317 704.106 746.372 704.826 746.427 705.543C746.893 711.662 747.337 717.501 743.513 722.806C741.576 725.494 737.152 727.008 734.605 723.954C731.403 720.115 730.213 717.247 729.907 712.204C729.673 708.344 729.617 704.466 729.441 700.602C729.061 692.226 728.583 683.854 728.023 675.487C726.906 658.761 725.631 642.038 724.154 625.34C718.977 566.787 709.138 508.675 702.591 450.266C699.291 420.82 696.947 391.319 695.706 361.71C695.085 346.924 694.86 332.139 695.006 317.34C695.061 311.812 695.323 306.31 695.702 300.82C685.894 323.101 675.583 345.167 664.803 366.94L662.248 372.096C655.416 385.858 648.401 399.671 640.19 412.645L638.779 414.857C635.453 420.127 630.909 428.436 624.843 430.099C621.728 430.953 618.104 430.734 614.674 430.527C613.454 430.453 612.26 430.381 611.123 430.359C606.824 430.277 602.52 430.259 598.224 430.085C593.405 429.891 588.807 429.258 584.15 428.002C583.376 427.794 582.644 427.568 581.977 427.28C577.285 434.958 569.313 440.806 561.162 444.213C554.633 446.942 547.79 448.813 540.936 450.544L538.517 451.151C531.169 452.982 522.763 453.852 518.619 460.948L517.656 462.592C514.575 467.827 511.619 472.424 506.52 476.177C501.031 480.218 494.528 482.759 488.05 484.737C481.417 486.761 474.629 488.311 467.894 489.971L466.059 490.427C461.613 491.54 457.127 492.561 452.707 493.772C450.822 494.288 448.903 494.82 447.053 495.456C444.887 496.2 443.313 497.362 441.604 498.626C440.068 503.992 433.503 506.906 428.105 506.532C425.27 506.336 422.727 505.374 420.413 503.964C416.374 507.402 411.927 510.482 407.81 513.667C402.045 518.127 396.257 522.556 390.437 526.944C378.437 535.989 366.346 544.914 354.129 553.663C332.444 569.193 310.29 584.012 287.757 598.282C278.362 604.232 268.904 610.172 259.353 615.97L260.372 616.348L262.394 617.112C267.173 618.896 272.498 621.779 273.424 627.354C274.158 631.776 271.688 634.824 267.322 635.364C262.133 636.005 258.095 632.339 254.864 628.839C253.438 627.296 251.842 625.862 250.476 624.273C249.919 623.624 249.491 622.876 249.114 622.092C239.688 627.646 230.162 633.013 220.485 638.032L218.063 639.28C194.066 651.551 170.709 664.995 146.508 676.917C140.195 680.027 132.498 683.391 124.475 685.687C126.604 693.939 126.571 702.999 126.625 711.374C126.676 719.536 113.705 719.497 113.979 711.374L114.111 707.451C114.347 700.855 114.733 694.007 116.298 687.589C92.6592 691.509 69.0446 682.989 64.6478 680.431C59.7948 677.609 55.3898 673.093 51.7238 668.904C43.8788 659.937 38.4348 649.189 33.6048 638.376C23.2588 615.22 15.9288 590.468 10.5698 565.714C-9.18718 474.448 -0.689184 376.766 31.3958 289.28C39.4118 267.421 48.8758 246.044 59.7208 225.441L61.0674 222.894C71.8895 202.519 83.9174 182.222 99.1958 164.884C115.11 146.825 134.741 132.78 156.115 121.878C166.546 116.558 177.279 111.947 188.249 107.861C190.011 107.204 191.785 106.615 193.563 106.054C204.995 98.7658 218.869 91.7938 232.748 92.0678C233.691 92.0848 234.455 92.4428 235.025 92.9818C235.694 93.0988 236.363 93.2408 237.033 93.4358C238.512 93.8648 240.074 95.4858 239.862 97.1508L239.79 97.7047C239.751 97.9753 239.701 98.2368 239.617 98.4918C240.113 98.5658 240.6 98.6838 241.077 98.8468C254.356 95.0968 267.421 89.3618 280.379 84.7358L283.33 83.6937C294.183 79.8904 305.317 76.1625 314.22 68.6358C323.077 61.1478 329.737 51.4488 334.552 40.9638C340.484 28.0458 343.14 14.0518 348.011 0.789763ZM221.874 101.489C224.675 100.955 227.479 100.4 230.283 99.7718C231.301 99.9118 232.314 100.116 233.319 100.38C231.826 101.712 230.736 103.693 230.394 105.741C229.908 105.821 229.457 106.136 229.355 106.637C223.462 135.816 240.848 166.587 258.475 188.558C264.095 195.564 270.371 202.056 277.135 208.026C275.934 208.247 274.776 208.628 273.609 209.027L272.742 209.321C271.587 209.713 270.439 210.112 269.313 210.588C265.749 212.093 263.466 214.407 262.399 218.252C260.701 224.37 265.479 230.556 271.788 230.577C275.083 230.589 278.142 229.463 280.301 226.892C281.192 225.83 281.993 224.695 282.778 223.55L284.024 221.73C284.722 220.692 285.331 219.686 285.829 218.505C286.2 217.626 286.389 216.691 286.546 215.745C300.831 226.62 316.849 235.29 333.55 241.359C365.941 253.128 401.28 255.195 435.14 249.563C468.336 244.042 502.27 231.062 526.826 207.437C550.468 184.689 566.205 154.411 569.226 121.821C574.025 126.989 579.285 131.765 585.17 135.56C594.47 141.558 604.668 145.791 614.575 150.646C624.48 155.5 634.016 161.137 642.689 167.978C647.071 171.435 651.24 175.175 655.186 179.12C657.563 181.499 659.723 184.259 662.09 186.738C652.856 186.253 643.616 185.861 634.373 185.53C632.251 185.454 630.107 185.34 627.953 185.225C622.015 184.908 616.002 184.587 610.16 185.058C602.428 185.681 597.041 189.706 592.993 196.152C583.888 210.652 576.656 226.816 569.403 242.388L566.606 248.371C564.45 252.998 562.318 257.672 560.267 262.391C558.698 261.26 556.937 260.302 555.327 259.467L554.154 258.862C550.86 257.167 547.342 256.791 543.71 256.622L542.717 256.581C539.211 256.445 538.115 260.653 540.066 262.982C542.209 265.542 543.935 268.257 546.447 270.487C549.131 272.868 551.149 275.545 554.266 277.142C550.974 285.909 548.182 294.837 546.266 303.933C542.609 304.659 538.967 305.45 535.343 306.302C521.729 309.504 508.321 313.515 494.964 317.642C490.72 318.954 486.41 320.212 482.161 321.623C483.013 320.469 483.565 319.034 483.645 317.387C483.846 313.266 481.816 309.231 479.845 305.314C478.941 303.519 478.051 301.75 477.394 300.009L476.819 298.524C474.871 293.603 472.604 288.939 470.463 284.073C469.447 281.765 465.285 282.288 464.894 284.801C463.888 291.267 463.494 297.073 464.513 303.56C465.495 309.816 466.161 318.143 470.996 322.626C472.035 323.59 473.201 324.175 474.392 324.466C469.33 326.536 464.476 329.041 460.063 332.38C450.175 339.864 441.962 349.846 434.208 359.679L429.728 365.379C423.664 373.077 417.832 380.946 412.088 388.88C408.272 388.848 404.636 390.218 401.49 392.449C400.379 391.212 398.814 390.394 397.069 390.452C391.215 390.644 387.02 393.373 381.994 396.116L376.623 399.044C373.042 400.995 369.459 402.942 365.874 404.884C355.641 410.423 345.349 415.852 335.105 421.37C314.66 432.385 293.979 443.001 273.118 453.208C243.545 467.679 212.692 479.9 181.284 490.11C182.147 485.267 182.138 480.013 182.365 474.949C182.93 462.372 183.361 449.816 183.593 437.228C183.819 425.013 183.779 412.696 183.078 400.498L183.004 399.162C182.409 387.981 182.226 375.664 176.948 365.624C176.511 364.792 175.332 365.076 175.063 365.87C171.435 376.591 170.202 388.347 168.459 399.505C167.8 403.728 167.22 407.975 166.697 412.233C166.299 412.112 165.882 412.005 165.441 411.909C162.595 411.298 159.722 411.134 156.835 411.491C153.648 411.887 152.437 416.51 156.025 417.477L156.591 417.642C159.946 418.695 162.541 420.836 165.55 422.45C165.083 427.047 164.675 431.648 164.311 436.236C163.363 448.146 162.554 460.04 161.92 471.972C161.618 477.657 161.115 483.366 160.957 489.055C160.886 491.609 161.242 493.925 161.859 496.157C156.248 497.823 150.625 499.431 144.992 500.974L144.238 501.181C128.883 505.416 114.002 510.463 101.245 519.381C96.8818 522.432 98.0291 526.809 102.147 524.556C113.992 518.074 126.841 513.01 140.094 510.452L149.374 508.68C154.284 507.732 159.18 506.75 164.063 505.729C164.368 507.168 164.906 508.534 165.854 509.992L170.289 516.814C172.722 520.556 177.622 521.73 181.274 518.911C184.989 516.044 184.938 511.16 182.031 507.754L177.744 502.732C188.345 500.28 198.875 497.534 209.326 494.321C227.855 488.623 245.821 481.096 263.643 473.431L273.911 469.005C295.014 459.917 315.562 449.777 335.91 439.116C347.302 433.148 358.551 426.929 369.767 420.638C375.368 417.495 380.96 414.337 386.547 411.172C388.104 410.29 389.666 409.466 391.195 408.626C390.071 414.532 390.115 420.913 390.281 427.01L390.387 430.628C390.628 438.95 391.42 447.423 393.06 455.585C395.776 469.112 401.227 482.224 409.629 493.224C410.145 493.9 410.678 494.583 411.225 495.267C408.975 496.956 406.773 498.72 404.528 500.4C399.138 504.433 393.723 508.431 388.283 512.398C377.898 519.97 367.409 527.396 356.828 534.691C335.662 549.284 314.182 563.462 292.471 577.23C258.766 598.602 224.516 619.112 189.525 638.279C189.269 637.03 189.063 635.777 188.979 634.548L188.961 634.339C188.408 628.887 180.962 626.232 177.957 631.563C175.177 636.491 174.02 640.972 174.681 646.307C169.448 649.097 164.201 651.861 158.934 654.586L157.702 655.226C145.791 661.442 133.732 668.422 121.031 672.793C114.608 675.003 111.162 676.208 98.4327 676.208C85.7031 676.208 74.9548 670.733 71.7928 668.208C67.9948 665.176 64.5118 661.976 61.3738 658.243C54.9868 650.651 49.8138 642.003 45.9068 632.897C37.942 614.335 32.4342 594.509 27.7086 574.866L26.9058 571.501C23.2678 556.122 20.4118 540.521 18.3208 524.806C21.0578 525.252 23.6258 525.44 26.5288 525.014C29.8598 524.525 33.1488 523.857 36.4178 523.052C45.2018 520.89 41.2818 506.702 32.6878 509.521C29.7098 510.497 26.7068 511.361 23.6538 512.071C21.2998 512.619 19.1998 513.524 17.0528 514.489C14.2588 489.3 13.4668 463.878 14.7508 438.654C16.2688 408.859 20.5548 379.243 27.4058 350.224C28.1238 350.628 29.0228 350.758 30.0688 350.415C36.9698 348.155 43.9288 345.587 51.0858 344.268C54.1558 343.702 56.0158 340.455 56.1648 337.597C56.2318 336.302 55.8668 335.21 55.2198 334.106C53.7808 331.648 50.2468 329.886 47.4078 330.927C40.7088 333.384 34.7348 336.253 29.6888 340.92C32.5428 329.784 35.7688 318.741 39.3738 307.821C53.4048 265.316 73.0098 223.425 99.3658 187.1C114.624 166.071 133.089 148.915 155.488 135.72C166.575 129.189 178.204 123.613 189.876 118.214C200.877 113.126 211.219 107.2 221.874 101.489ZM210.565 148.071C213.141 145.751 217.885 146.448 218.721 150.224C219.891 155.512 220.603 161.47 219.837 166.838C219.422 169.747 219.266 173.014 218.122 175.725C216.892 178.64 214.526 180.882 212.297 183.074C207.847 187.45 198.466 186.003 197.274 179.108L197.123 178.262C197.079 178.026 197.035 177.788 196.991 177.55C196.421 174.496 195.821 171.279 196.644 168.279C197.314 165.839 198.812 163.351 200.051 161.088L200.312 160.606C202.794 155.984 206.663 151.583 210.565 148.071ZM573.588 159.331L572.656 159.322C568.721 159.316 568.508 164.464 571.784 165.767C574.816 166.973 577.737 168.648 580.242 170.746C580.371 170.854 580.5 170.963 580.629 171.071C583.542 173.52 586.264 175.808 590.38 174.855C592.459 174.373 594.01 172.203 593.994 170.109C593.924 161.224 580.779 159.473 573.588 159.331ZM609.122 193.957C601.043 195.525 597.75 205.497 594.348 211.997C586.319 227.337 578.935 242.958 571.519 258.599C569.236 263.41 567.013 268.258 564.77 273.097C564.633 273.476 564.457 273.849 564.25 274.218C559.655 284.111 554.923 293.939 549.392 303.33C554.454 302.382 559.542 301.574 564.649 300.938C564.438 297.006 566.601 291.987 568.288 288.073C568.663 287.201 569.016 286.384 569.312 285.646L569.448 285.305C571.479 280.117 573.608 271.945 578.836 269.253C580.578 268.357 582.441 269.48 582.575 271.398C582.874 275.716 579.753 280.506 577.033 284.68C576.156 286.026 575.321 287.308 574.656 288.489C573.005 291.421 571.396 294.366 569.828 297.343C569.24 298.457 568.749 299.552 568.146 300.534C570.78 300.249 573.417 299.995 576.061 299.81L577.784 299.692C587.586 299.046 597.997 298.861 606.853 303.695C615.07 308.178 619.27 317.749 614.756 326.464C609.132 337.321 596.748 338.76 585.858 339.64C572.256 340.737 558.623 342.718 545.117 344.65C531.147 346.648 517.992 351.798 504.23 354.445C502.95 354.691 502.153 353.017 503.327 352.302C514.182 345.694 527.38 342.058 539.516 338.354L540.498 338.054C547.081 336.032 553.515 333.722 560.325 332.575C566.936 331.462 573.588 330.56 580.256 329.874L580.903 329.814C581.713 329.746 582.661 329.688 583.706 329.624C592.138 329.11 606.887 328.21 606.183 318.539C605.659 311.345 593.965 310.103 588.627 310.017C564.153 309.625 539.503 316.121 516.244 323.081L511.051 324.638C501.527 327.503 491.99 330.452 482.645 333.811C472.055 337.617 463.712 343.552 455.999 351.675C447.447 360.682 439.164 369.892 430.292 378.595C424.699 384.082 419.034 389.471 413.323 394.816C412.033 396.486 411.001 398.303 410.286 400.66C409.078 404.642 409.356 408.343 409.812 412.433C410.962 422.762 411.216 433.198 412.657 443.495C413.993 453.034 415.861 462.923 419.822 471.772C421.39 475.276 423.432 478.718 425.756 481.796L427.632 484.235C428.45 485.295 429.365 486.454 430.326 487.545C431.736 485.825 433.776 484.706 436.147 484.986C441.186 485.579 445.147 485.437 450.09 484.279C453.916 483.384 457.712 482.335 461.521 481.364C469 479.456 476.549 477.72 483.952 475.529L485.224 475.145C490.741 473.453 496.26 471.334 500.852 467.772C506.187 463.633 507.828 457.662 511.78 452.499C520.218 441.474 538.452 441.705 550.798 438.685C561.29 436.119 571.387 432.07 578.648 424.458L579.072 424.004C578.75 422.646 579.272 421.113 580.534 420.409L580.809 420.256C581.301 419.981 581.831 419.867 582.351 419.878C583.025 418.888 583.675 417.866 584.266 416.778C584.752 415.881 585.967 416.541 585.808 417.427C585.713 417.956 585.581 418.472 585.456 418.989C591.537 417.425 598.134 417.471 604.424 417.515C605.41 417.522 606.388 417.529 607.355 417.53L616.622 417.497C618.226 417.478 620.616 417.397 620.829 417.301L621.047 417.204C621.155 417.157 621.214 417.133 621.241 417.122L621.244 417.121C621.257 417.116 621.261 417.115 621.261 417.114C621.261 417.114 621.258 417.115 621.252 417.116C621.201 417.126 620.945 417.181 621.208 416.832C621.653 416.241 622.089 415.643 622.519 415.04C624.055 412.891 625.508 410.677 626.932 408.443C611.413 412.396 595.337 414.856 579.491 416.907C562.491 419.11 545.267 420.638 528.115 420.654C523.387 420.659 523.43 413.521 528.115 413.342C546.277 412.649 564.344 411.687 582.384 409.36C591.713 408.155 601.003 406.644 610.241 404.876C613.807 404.195 617.365 403.471 620.915 402.707L623.575 402.126C625.244 401.757 629.96 401.226 632.26 399.683C632.712 398.906 633.164 398.131 633.612 397.355C633.412 394.874 627.653 394.954 625.396 394.985L625.393 394.986L625.386 394.986C625.167 394.989 624.983 394.991 624.84 394.991C621.886 394.985 618.933 394.998 615.977 395.011L615.974 395.011L615.956 395.012L615.952 395.012L615.935 395.012L615.931 395.012L615.913 395.012L615.91 395.012L615.892 395.012L615.888 395.012C614.266 395.019 612.645 395.027 611.023 395.031C602.302 395.056 593.582 394.986 584.86 394.916L584.857 394.916L583.39 394.904C578.678 394.865 573.962 394.795 569.244 394.724C555.53 394.519 541.803 394.313 528.123 394.898C523.659 395.088 521.314 387.929 525.726 386.046C545.204 377.73 566.826 375.923 587.624 373.366C598.561 372.023 609.504 370.471 620.196 367.751L622.839 367.078C629.556 365.356 636.973 363.257 642.629 359.154C634.128 355.715 623.561 356.109 614.749 355.622L614.075 355.583C601.736 354.825 589.375 354.437 577.013 354.419C551.719 354.384 526.417 355.28 501.151 356.479C500.517 356.509 500.386 355.508 501.002 355.374C526.971 349.708 553.364 346.978 579.94 346.558C592.317 346.362 604.7 346.537 617.066 347.084L621.604 347.294C632.148 347.748 643.847 347.871 652.669 354.238C654.014 355.208 654.723 356.447 654.834 357.758C666.665 334.175 677.592 310.099 688.563 286.183C697.092 267.587 705.303 248.835 714.143 230.384L717.005 224.415C720.837 216.45 724.763 208.484 729.122 200.808C712.821 198.629 696.429 197.116 680.027 195.958C665.081 194.901 616.317 192.562 609.122 193.957ZM616.128 246.098C622.535 237.376 626.787 227.358 628.5 216.669C630.265 205.657 614.751 203.423 613.319 214.614L613.274 214.894C610.601 217.628 608.263 221.586 606.74 224.299L605.734 226.109C602.333 232.29 599.549 239.663 604.064 246.098C607.255 250.647 612.908 250.481 616.128 246.098ZM109.582 250.653C111.47 250.52 113.369 250.772 115.264 251.023C116.058 251.128 116.851 251.233 117.643 251.31L120.497 251.587C126.38 252.172 131.896 252.894 137.506 255.288C147.858 259.706 142.298 276.347 131.906 275.965C124.225 275.683 117.657 272.384 111.171 268.544C105.501 265.187 102.025 260.987 98.1962 255.716C96.9282 253.97 98.6952 252.013 100.422 251.837C103.464 251.527 106.539 250.866 109.582 250.653ZM405.615 285.02C395.269 284.602 384.942 284.14 374.609 283.46L374.416 283.453C371.006 283.409 370.761 288.399 373.799 289.445C383.778 292.885 393.669 296.526 403.559 300.214C413.57 303.946 417.599 285.505 405.615 285.02ZM253.009 298.981C254.215 298.598 255.407 298.193 256.594 297.789C262.056 295.934 267.392 294.121 273.274 294.728C275.177 294.923 276.54 296.776 275.501 298.606C272.108 304.577 266.59 307.948 261.159 311.942L260.68 312.296C254.735 316.718 248.352 320.747 241.887 324.376C230.756 330.622 220.781 312.745 232.022 307.499C238.786 304.342 245.891 301.243 253.009 298.981ZM626.931 375.691C635.709 373.08 645.679 369.929 652.15 363.075C647.358 372.482 642.405 381.798 637.237 390.987C636.333 390.257 635.298 389.657 634.19 389.225C629.549 387.41 624.085 387.471 618.902 387.529C617.22 387.547 615.568 387.566 613.984 387.52C605.102 387.262 596.222 387.07 587.337 386.909C579.633 386.771 571.912 386.714 564.19 386.618C574.398 384.933 584.691 383.62 595.064 382.152C605.799 380.632 616.523 378.784 626.931 375.691ZM318.345 387.962C317.509 384.952 321.254 382.963 323.437 384.997C327.799 389.061 332.36 392.829 336.632 396.996L336.919 397.28C339.978 400.354 344.429 406.278 340.45 410.256C335.352 415.354 328.253 407.79 325.518 403.848C322.049 398.848 319.968 393.809 318.345 387.962ZM70.8644 412.917C69.3924 412.594 67.7594 414.235 68.7474 415.671C70.6114 418.383 72.4814 421.37 74.7564 423.765C76.936 426.058 79.8445 427.921 82.5494 429.704L83.6934 430.464C89.8844 434.627 96.9794 439.638 104.24 441.588C108.154 442.64 112.301 440.874 114.394 437.456C115.174 436.183 115.415 434.968 115.56 433.574L115.622 432.918C115.865 430.111 113.797 426.304 111.168 425.155C104.591 422.281 97.3324 421.086 90.5364 418.706C87.2924 417.569 84.1224 415.917 80.8474 414.921C77.6494 413.947 74.1294 413.634 70.8644 412.917ZM207.607 441.7C211.957 434.081 222.268 427.272 231.266 427.946C244.777 428.958 247.534 447.15 234.453 451.491C226.634 454.085 215.877 451.421 209.037 447.151C207.193 446.001 206.517 443.609 207.607 441.7ZM607.069 451.653C606.611 449.361 603.763 448.519 601.904 449.552C594.474 453.678 589.25 461.519 586.407 469.389C585.323 472.393 586.68 475.674 588.659 477.905C590.31 479.767 592.442 480.413 594.848 480.468C597.885 480.538 600.909 478.757 602.406 476.134C604.799 471.942 605.927 468.118 606.845 463.412C607.244 461.366 607.992 459.093 607.992 457.001C607.992 455.255 607.41 453.36 607.069 451.653ZM641.028 462.723C641.264 461.69 642.868 461.7 643.108 462.723C645.297 472.046 645.246 482.086 645.889 491.644L645.963 492.704C646.734 503.245 647.382 513.815 647.844 524.374C648.751 545.149 649.835 565.925 651.05 586.684C651.653 596.978 652.299 607.271 652.988 617.561C655.146 616.358 657.369 615.302 659.673 614.37C663.125 612.975 666.486 612.815 670.195 612.853C674.712 612.899 678.113 616.872 677.515 621.297C676.863 626.116 672.62 628.181 668.214 627.493C663.334 626.729 658.433 625.546 653.506 625.056C654.055 633.012 654.622 640.966 655.223 648.915C656.02 659.44 657.059 669.952 657.789 680.481C657.859 681.485 657.934 682.491 658.011 683.5C660.949 681.972 664.069 681.19 667.605 680.227L668.525 679.969C668.936 679.851 669.349 679.73 669.764 679.608C674.533 678.204 679.532 676.732 683.903 679.908C687.097 682.229 687.735 686.049 685.089 689.11C681.501 693.264 676.374 692.982 671.366 692.707C670.775 692.674 670.185 692.642 669.599 692.617L666.618 692.508C663.808 692.398 661.216 692.218 658.619 691.509C659.096 698.368 659.347 705.253 658.506 712.012C658.051 715.665 653.242 716.624 651.969 712.896C648.644 703.157 647.957 692.654 646.74 682.453C645.604 672.926 644.913 663.329 644.169 653.759L643.943 650.889C642.269 629.835 640.93 608.77 639.952 587.673C638.973 566.579 638.385 545.489 638.151 524.374C638.045 514.787 638.204 505.165 638.579 495.579L638.698 492.704C639.13 482.845 638.828 472.383 641.028 462.723ZM679.618 494.911C676.316 492.968 671.267 496.248 672.732 500.204C673.976 503.562 675.13 507.193 676.831 510.356C678.638 513.717 681.709 516.843 684.2 519.72L684.502 520.064C688.832 524.922 697.384 531.567 703.834 526.364C710.612 520.897 702.788 511.473 698.048 507.663L696.771 506.652C694.186 504.563 691.729 502.28 689.033 500.353C686.1 498.257 682.727 496.74 679.618 494.911ZM479.701 507.779C479.516 506.684 480.317 505.839 481.43 506.05C487.857 507.268 493.793 510.372 499.312 513.94C502.272 515.854 505.127 517.956 508.08 519.889C511.728 522.275 513.094 524.246 513.633 528.626C513.989 531.516 511.29 534.156 508.815 534.954C502.07 537.129 494.341 529.991 489.771 525.354L489.565 525.145C484.781 520.269 480.835 514.503 479.701 507.779ZM261.593 511.496C258.927 509.867 255.983 513.062 257.424 515.665C262.905 525.57 269.838 532.735 279.967 537.867C284.512 540.17 288.768 538.671 291.743 534.78C292.592 533.669 292.776 532.343 292.878 531.007L292.918 530.435C293.175 526.654 290.056 523.15 286.599 522.136C278.057 519.631 269.198 516.144 261.593 511.496ZM128.919 574.493C130.32 570.693 124.972 569.279 122.921 571.964C119.068 577.008 114.214 580.087 109.726 584.446L109.352 584.804C105.18 588.736 99.2284 592.479 96.8087 597.642C94.8247 601.874 94.9637 606.759 98.4327 610.228C101.486 613.28 107.311 614.495 111.019 611.852C122.513 603.655 124.368 586.831 128.919 574.493ZM603.308 586.164C606.969 584.586 616.51 581.518 619.338 585.149C619.47 585.282 619.583 585.427 619.674 585.587C620.367 586.793 620.47 588.492 619.674 589.688C616.379 594.64 612.947 598.336 608.262 601.86L607.737 602.251C602.637 606 597.846 610.404 591.632 612.095C583.019 614.439 577.003 603.655 583.052 597.358C587.925 592.286 595.365 589.652 601.822 586.823L603.308 586.164ZM413.322 604.267C416.813 602.326 420.419 606.939 417.582 609.788L413.346 614.025C409.415 617.976 405.589 621.969 402.224 626.471L401.409 627.571C396.867 633.75 392.023 640.91 384.581 643.22C375.579 646.013 366.928 635.048 372.141 627.038C376.695 620.038 385.464 617.397 393.024 614.503C400.176 611.765 406.636 607.984 413.322 604.267ZM474.602 656.365C481.06 655.456 486.649 657.423 492.563 659.504C493.057 659.678 493.555 659.853 494.055 660.027L494.581 660.21C501.172 662.485 510.789 664.06 514.167 670.806C516.205 674.874 514.622 680.276 509.826 681.48C503.422 683.086 497.576 679.391 492.135 675.953C491.122 675.313 490.124 674.682 489.139 674.096L488.809 673.901C482.747 670.35 476.49 667.365 472.619 661.24C471.586 659.606 472.482 656.664 474.602 656.365ZM204.417 680.853C202.812 680.644 201.733 682.318 201.605 683.665C201.594 683.775 201.583 683.886 201.573 683.998C201.404 685.748 201.216 687.692 201.682 689.386C202.191 691.235 203.568 692.938 204.781 694.464L205.579 695.478C208.395 699.03 211.517 702.1 215.705 704.021C221.018 706.458 227.167 705.14 229.614 699.333C231.941 693.809 228.879 687.894 223.26 686.101C220.265 685.146 217.083 684.543 214.164 683.376C212.368 682.658 210.814 681.517 208.883 681.197C207.42 680.953 205.896 681.045 204.417 680.853ZM620.592 684.845C619.608 682.424 616.499 680.154 613.87 682.11C606.448 687.635 601.104 698.557 601.389 707.75C601.662 716.566 612.955 719.439 617.673 712.161C622.226 705.136 623.822 692.79 620.592 684.845Z" transform="translate(47.99989 -20.00006)" fill="#000000" fill-rule="evenodd" stroke="none"></path></g><g transform="translate(225 0)"><g><g><path d="M101.559 0.333343C253.129 -7.12039 355.969 112.412 360.393 160.078C363.464 193.166 361.38 237.293 361.38 266.859C361.38 281.951 368.996 327.825 360.393 349.821C341.247 398.78 319.615 437.129 259.678 437.129C199.741 437.129 108.369 406.064 76.9939 365.997C71.2653 358.681 0.0805339 305.131 0.0805339 263.038C0.0805339 173.233 -6.59297 5.6519 101.559 0.333343Z" transform="translate(47.92791 63.53391)" fill="#DC4B78" stroke="none"></path><path d="M130.169 8.08201C126.236 2.06001 120.723 -1.82699 112.085 0.873012C109.564 1.66201 107.285 3.04601 105.243 4.84101C100.149 1.50301 93.1925 2.28801 88.9815 8.45201C87.8215 10.151 86.8675 12.009 86.0795 13.963C81.7845 12.14 77.3215 12.22 73.0945 16.483C71.4035 18.188 70.3515 20.268 69.9015 22.47C69.7845 22.221 69.6615 21.986 69.5475 21.729L69.4385 21.496C67.2054 16.9608 59.6802 15.194 55.6535 18.086C52.9925 19.998 50.9535 22.158 49.7315 24.815C48.0485 24.808 46.3925 25.015 44.8015 25.576C38.8505 27.676 36.3325 33.844 36.7825 39.867C31.7175 41.682 26.8975 44.251 22.5025 47.612C18.9025 50.362 17.4725 54.052 18.5525 57.752C14.3025 59.592 10.7725 62.252 8.60248 66.602C6.15248 71.522 5.87248 77.212 7.77248 81.712C7.12948 82.952 6.60948 84.243 6.18348 85.563C2.34348 86.533 -0.50952 90.207 0.0764801 94.541C0.54448 97.998 2.84148 100.3 5.68748 101.133C6.37848 104.072 7.49148 106.916 8.98948 109.524C5.55448 112.069 2.55448 115.314 1.08148 119.193C-0.0355199 122.137 0.39548 124.764 1.74248 126.804C1.78648 130.366 3.75248 134.025 6.76748 135.751C4.49748 140.261 6.13948 146.521 10.9155 148.307C8.96848 152.259 7.86348 156.533 8.27248 161.163C8.83248 167.613 12.1225 173.783 17.1725 177.453C15.7635 183.522 15.8725 189.832 17.6725 196.062C19.1845 201.303 24.6405 203.464 29.4065 201.62C30.2185 203.8 31.9275 205.69 34.1285 206.721C34.1958 206.753 34.2636 206.782 34.3316 206.811L34.7415 206.972C34.0945 208.185 33.7905 209.621 34.0095 211.246C34.5635 215.346 38.8475 218.637 43.0445 217.265C46.3395 216.188 49.3435 214.307 52.2145 212.263C52.2255 213.059 52.3345 213.85 52.5155 214.582C53.7655 219.639 58.3425 222.881 63.3485 223.472C67.7635 223.993 71.9015 222.469 75.3495 219.895C79.0185 227.25 87.5185 229.858 94.9505 225.462C98.6995 223.245 103.16 219.539 106.525 215.261C107.589 214.535 108.618 213.734 109.599 212.875C107.895 216.956 106.287 221.085 104.792 225.272C103.843 227.932 102.944 230.611 102.083 233.301C99.7895 233.899 97.7075 234.667 96.1525 235.403C92.0265 237.353 90.1335 242.747 91.0645 247.176C88.9195 249.601 87.5175 252.564 87.5175 256.304C87.5175 258.383 87.9195 260.24 88.6105 261.898C87.2945 264.078 86.1525 266.431 85.1535 269.003C83.7495 272.622 84.8785 276.484 87.2555 279.39C85.5645 281.805 84.5175 284.644 84.5485 288.043C84.5625 289.578 84.8195 291.073 85.2715 292.487C84.0975 295.32 84.1505 298.495 85.1785 301.309C82.4005 304.868 80.5315 308.749 81.5525 312.828C82.0925 314.987 83.3005 316.757 84.8555 318.226C84.6965 319.601 84.7475 320.991 84.9935 322.332C83.8825 324.323 83.3715 326.648 83.5325 328.982C83.9425 334.916 87.3455 338.136 91.7655 339.694C91.6015 340.045 91.4415 340.398 91.3175 340.773C90.2705 343.952 90.4825 347.746 92.1055 350.707C92.2735 351.013 92.4595 351.295 92.6425 351.582C93.8995 353.896 95.9375 355.717 98.3415 357.064C98.9628 357.412 99.8264 357.711 100.769 358.011L102.222 358.468C102.16 358.539 102.102 358.605 102.05 358.664L101.422 359.394C99.2233 361.996 97.2682 364.809 97.0615 368.339C96.8365 372.211 98.8465 375.955 102.117 378.044C102.444 378.252 102.815 378.459 103.205 378.661L103.209 379.035C102.354 380.225 101.812 381.649 101.962 383.045C102.683 389.796 106.739 393.017 112.739 395.403L113.942 395.914L114.025 397.416C114.052 397.914 114.092 398.411 114.13 398.908C113.865 399.519 113.648 400.06 113.529 400.377L113.448 400.599C111.09 407.652 114.528 415.28 120.533 419.343C121.371 419.911 122.246 420.396 123.147 420.815C124.019 423.714 125.503 426.339 127.47 428.668C129.085 430.582 131.218 432.384 133.587 433.713C134.911 436.175 136.983 437.984 139.675 438.895C140.067 439.028 140.464 439.131 140.864 439.215C140.491 442.129 141.266 445.195 143.288 447.365C144.286 448.436 145.373 449.134 146.519 449.587C147.136 449.887 147.809 450.07 148.504 450.135C149.945 450.374 151.455 450.333 152.993 450.198C154.005 451.667 155.203 453.047 156.592 454.323C158.106 455.71 160.145 456.389 162.102 456.211C166.348 458.825 171.35 459.071 176.2 458.479C177.299 458.345 178.354 458.047 179.313 457.604C183.884 462.999 188.756 468.135 193.822 473.073C201.142 480.203 208.202 487.373 218.272 490.203C220.842 490.922 224.162 488.283 223.002 485.482C217.263 471.573 203.412 462.502 193.542 451.512C188.442 445.832 183.692 439.852 179.552 433.432C175.132 426.592 172.022 421.672 163.892 419.132L163.295 418.941C151.396 415.068 141.933 407.377 135.952 396.252C130.933 386.913 128.312 373.422 132.852 363.212C133.622 362.292 134.202 361.232 134.542 360.082C134.912 359.522 135.302 358.962 135.722 358.432C140.522 352.363 147.642 349.012 155.002 347.302C159.172 346.332 163.672 345.892 167.952 346.042C171.42 346.169 174.806 347.004 178.24 347.45C178.603 347.736 178.964 348.017 179.316 348.291L179.964 348.796C184.559 352.368 190.413 356.714 196.314 356.873C210.845 357.266 209.81 340.76 209.118 329.714C209.056 328.722 208.997 327.774 208.952 326.886L208.907 325.913C208.426 313.582 208.16 301.247 207.673 288.918L207.67 288.825C207.664 288.591 207.665 288.236 207.671 287.78L207.725 284.968C208.256 281.129 208.884 277.303 209.643 273.491C214.618 273.804 219.707 272.411 224.079 269.733C229.934 270.323 235.777 268.067 239.769 263.765C240.648 263.498 241.51 263.168 242.336 262.777C242.944 262.49 243.485 262.198 244.011 261.89C247.839 263.478 252.41 263.116 255.935 259.668C258.243 259.808 260.54 259.328 262.311 258.169C263.965 257.089 265.57 255.966 267.12 254.779C269.667 254.716 272.329 253.745 274.826 251.713L278.411 248.792C279.724 248.953 281.059 248.874 282.354 248.499C286.487 247.301 290.399 245.57 293.983 243.32C295.717 243.308 297.544 242.847 299.382 241.825C310.808 235.469 321.667 228.623 331.82 220.507C336.207 220.068 339.845 217.079 343.094 213.996C349.651 212.087 355.435 210.156 361.092 205.93C364.989 203.019 368.524 199.693 371.855 196.165C373.247 196.831 374.744 197.29 376.254 197.508C378.941 197.896 381.617 197.131 384.26 196.376C387.436 195.468 390.563 194.574 393.601 195.711C398.865 197.682 403.05 201.935 408.29 204.087C411.155 205.264 414.099 205.943 417.012 205.97C417.983 206.538 418.947 207.118 419.902 207.71C422.19 210.605 425.328 212.615 428.904 213.949C429.181 214.166 429.466 214.372 429.742 214.592C432.55 216.835 435.224 219.227 437.779 221.734C438.18 222.857 438.675 223.955 439.279 225.007C441.07 228.127 443.687 230.819 446.822 232.596C446.931 232.658 447.119 232.75 447.36 232.86L447.673 233C449.109 234.916 450.47 236.891 451.76 238.918C451.806 239.501 451.883 240.083 452.029 240.66C452.737 243.425 454.567 245.562 456.736 247.282C462.678 257.517 473.385 275.833 474.742 275.762C473.086 284.481 472.125 293.388 471.271 302.228L470.552 309.783C469.172 324.302 468.142 338.873 467.612 353.453C467.196 364.783 467.236 376.125 467.346 387.46L467.488 401.009C467.617 413.375 467.652 425.814 465.742 438.052C458.842 482.243 423.872 519.512 378.992 525.652C366.562 527.363 353.592 526.762 341.362 524.012C335.263 522.652 329.242 520.802 323.473 518.392C317.013 515.692 311.172 511.863 304.663 509.272C298.092 506.663 293.562 516.152 298.042 520.632C306.528 529.108 319.886 533.948 331.419 537.117L332.692 537.462C344.612 540.652 357.142 542.052 369.462 541.363C393.684 539.993 416.492 531.232 435.412 516.092C453.891 501.292 467.672 481.772 474.552 459.033C481.482 436.143 480.251 412.114 479.038 388.427C478.779 383.365 478.52 378.318 478.342 373.302C477.742 356.113 477.383 338.892 477.473 321.682C477.507 314.939 477.737 308.173 477.968 301.401C478.278 292.296 478.589 283.181 478.422 274.102C478.742 273.762 479.032 273.352 479.272 272.892C481.355 268.927 483.471 263.971 484.454 259.121C486.465 257.876 487.478 255.281 487.745 253.061C487.932 251.509 487.33 249.936 486.322 248.649C486.868 247.551 487.015 245.944 487.378 244.794C488.322 241.814 489.122 238.973 489.454 235.853C489.73 233.253 489.673 230.505 488.851 227.992C488.432 226.705 487.879 225.55 487.162 224.466C488.047 223.113 488.655 221.597 488.655 219.651C488.655 215.642 486.338 212.179 482.949 210.184C482.234 209.81 481.508 209.463 480.766 209.143L480.754 209.135L480.69 208.787C480.627 208.432 480.565 208.067 480.513 207.752L480.311 206.452C479.837 203.231 479.536 200.185 477.878 197.263C475.701 193.424 472.146 191.238 468.056 189.885C467.3 189.635 465.892 189.474 465.063 189.017C465.886 189.403 465.199 187.264 464.785 185.976C464.715 185.757 464.652 185.562 464.606 185.409L464.438 184.797C462.497 177.92 457.882 174.025 451.988 170.515L451.228 170.069C449.239 168.915 447.148 167.907 445.78 166.019C443.896 163.42 443.2 160.049 441.564 157.297C440.218 155.03 438.486 152.936 436.273 151.483C435.684 148.627 435.167 145.768 433.768 143.155C430.423 136.894 423.391 134.392 416.813 133.082C414.398 132.6 411.347 132.687 409.194 131.312C408.784 130.873 408.349 130.455 407.889 130.065C406.577 128.403 404.681 125.379 403.427 123.839C397.692 116.802 390.241 114.133 381.311 115.865C380.659 115.992 379.289 116.549 378.409 116.691C378.353 116.581 378.293 116.458 378.225 116.311L378.014 115.859C376.553 112.832 374.118 109.515 371.849 107.171C365.712 100.833 357.688 100.488 349.494 100.712L347.323 100.777C345.296 100.817 344.401 100.636 342.852 98.98L342.52 98.6262C339.202 95.1081 335.97 92.1964 331.098 90.887C326.443 89.636 321.57 90.516 317.015 91.704L316.533 91.8278C312.245 92.9088 309.46 93.0965 305.032 91.922L303.816 91.6054C294.32 89.1804 285.491 88.0846 275.835 91.036C275.481 91.144 275.137 91.281 274.777 91.399L273.914 91.6933C272.523 92.1779 271.152 92.7172 269.813 93.328C267.114 91.603 263.503 91.563 260.62 94.309C258.362 96.461 255.986 98.527 253.718 100.688C245.49 101.94 237.343 103.709 229.337 105.99C228.859 106.972 228.007 107.802 226.708 108.243C208.674 114.353 191.737 123.47 177.718 136.461C176.142 137.921 174.276 137.958 172.767 137.233C174.654 134.215 176.707 131.304 178.942 128.554C183.419 123.047 188.508 118.097 193.853 113.415C202.434 108.331 211.547 104.135 220.998 100.728C224.413 94.916 227.477 88.815 231.052 83.292L231.181 83.0864C233.822 78.6951 229.963 74.0264 225.492 73.602L225.472 73.602L225.539 73.1846C227.113 63.157 226.356 52.5272 217.942 45.632C216.222 44.222 214.36 43.097 212.427 42.256C212.979 41.253 213.575 40.266 214.26 39.311L214.428 39.0714C219.826 31.1498 212.015 21.925 203.938 21.326C200.19 21.047 196.327 21.454 192.726 22.56C191.741 22.863 190.78 23.305 189.834 23.776C188.733 23.102 187.558 22.6 186.369 22.321C185.325 20.309 183.948 18.547 182.076 17.14C178.232 14.248 173.276 13.106 168.559 14.316C167.724 14.531 166.944 14.823 166.206 15.17C165.155 14.412 163.935 13.796 162.635 13.37C162.056 12.12 161.378 10.935 160.539 9.87101C156.204 4.36301 149.272 3.32901 142.878 5.55701L142.13 5.83201C140.515 5.59201 138.813 5.93201 137.161 7.10001C136.426 7.62001 135.745 8.26501 135.097 8.97201L134.928 9.06101C134.644 8.88501 134.349 8.71901 134.022 8.58201C133.599 8.41601 133.04 8.20501 132.809 8.14901C131.875 7.92401 131.036 7.91301 130.169 8.08201ZM169.342 372.392C160.962 369.203 150.672 368.222 142.193 371.542C141.523 371.802 141.273 373.033 142.193 373.163C150.382 374.372 158.013 376.002 165.273 380.192C168.752 382.203 171.943 384.493 174.792 387.342C177.672 390.222 179.702 394.192 183.322 396.163C187.483 398.432 191.582 394.703 190.832 390.392C189.383 382.067 177.358 375.557 169.956 372.631L169.342 372.392Z" transform="translate(-65.99968 -34.00051)" fill="#000000" fill-rule="evenodd" stroke="none"></path></g></g><g transform="translate(159 186)"><g><path d="M161.26 3.75829C151.862 0.105287 135.062 -2.96371 127.162 5.02229C122.951 9.28029 125.484 15.1363 130.37 17.1713C133.516 18.4822 136.949 18.183 140.337 17.8877C141.669 17.7716 142.993 17.6562 144.29 17.6393C148.84 17.5813 153.361 18.1643 157.793 19.1723C161.357 19.9847 164.836 21.1098 168.293 22.2873L170.595 23.0773C171.32 23.3264 172.054 23.61 172.797 23.8967C175.616 24.9851 178.553 26.1192 181.532 25.5913C182.229 25.4673 182.565 24.7623 182.634 24.1453C183.089 20.0982 179.892 16.2352 177.024 13.4278L176.386 12.8144L175.972 12.4263C171.724 8.48129 166.624 5.84429 161.26 3.75829ZM33.6232 10.8211L35.7926 10.2262L38.0047 9.62924L39.5005 9.23374C49.7753 6.54436 61.1082 4.17756 71.2972 5.33309C75.0132 5.75509 78.0292 7.84609 78.5552 11.7391C78.9982 15.0241 76.8752 19.2621 73.2622 19.8461C61.2952 21.7821 49.0442 21.1541 37.0222 23.1501C31.0352 24.1431 25.0942 25.3761 19.1302 26.4871C14.5952 27.3331 9.90917 27.6301 5.33517 28.3141L6.38617 28.4601C6.75417 28.5101 6.66217 29.1291 6.29917 29.1041C4.79154 28.9536 3.28162 28.9302 1.7694 29.0359L1.12117 29.0891C0.134167 29.2281 -0.447833 28.0501 0.432167 27.4521C6.00517 23.6711 10.7342 19.5731 16.9742 16.7861C22.3712 14.3761 27.9262 12.3891 33.6232 10.8211ZM166.634 45.6655C168.478 45.1131 169.779 45.3742 171.441 46.2403C172.719 46.9059 173.589 47.9568 174.088 49.1838C174.599 50.4395 174.707 51.8878 174.454 53.2296C173.406 58.8007 170.042 63.7442 165.503 66.9282C161.091 70.0227 155.589 71.452 150.049 70.2614C146.003 69.3919 140.008 65.5531 136.85 60.8711C135.504 58.8752 134.671 56.736 134.581 54.6232C134.495 52.6084 135.008 50.5771 137.676 47.8994C137.936 47.8184 138.208 47.7747 138.477 47.7747C139.138 47.7747 139.821 48.0516 140.274 48.4513C141.469 49.502 142.312 50.8319 143.178 52.2626L143.41 52.6451C143.799 53.2818 144.2 53.9109 144.69 54.476C146.449 56.5028 149.003 58.2218 151.683 58.6693C154.167 59.0845 156.407 58.3485 158.181 56.9599C160.257 55.3353 161.713 52.8432 162.253 50.1809C162.472 49.1021 163.036 48.1297 163.818 47.3478C164.607 46.5588 165.615 45.9718 166.634 45.6655ZM49.1162 69.4299C47.1005 71.4882 44.4385 72.6496 41.0316 71.9587C38.3694 71.4193 33.3005 68.7424 29.2512 64.6199C26.481 61.7996 24.1647 58.2755 23.535 54.193C23.3888 53.2449 22.8856 52.6371 22.225 52.2543C21.7033 51.952 21.0154 51.8002 20.2661 51.876C19.6299 51.9404 18.9544 52.1708 18.4324 52.4762C17.4395 53.0572 17.0334 53.8821 16.9509 54.498C16.1543 60.4416 18.4501 66.3391 22.0288 71.3116C26.8584 78.0223 33.951 82.9399 38.1196 84.0909C45.2534 86.0617 52.7703 84.4928 58.3124 79.5277C62.7443 75.5578 65.0159 70.3856 67.1236 65.0671L67.53 64.0361C68.0041 62.8293 68.4745 61.6313 68.9729 60.4461C69.9719 58.0711 69.652 56.0181 68.6834 54.418C67.6103 52.6454 65.6296 51.3976 63.4246 51.0143C61.3865 50.6601 59.2055 51.0476 57.4838 52.2925C56.0293 53.3441 54.8564 55.0104 54.4397 57.4743C53.762 61.4809 52.1899 66.0779 49.4178 69.111L49.1162 69.4299ZM129.748 108.039C137.872 96.6602 126.366 85.9571 118.814 81.367C116.836 79.9471 118.406 75.2433 122.634 75.9703C161.031 82.5673 141.136 148.708 92.1122 112.413C86.2756 107.704 93.3436 97.3338 99.6344 101.366C99.9534 101.611 100.288 101.869 100.637 102.139C107.704 107.603 120.636 117.601 129.748 108.039ZM138.581 156.822C135.281 161.137 129.306 164.442 122.614 166.022C116.238 167.528 109.191 167.466 103.109 165.149L102.587 164.941C98.0396 163.053 93.6748 159.239 92.0173 155.26C91.3584 153.678 91.1354 152.069 91.5864 150.569C91.9921 149.219 92.9432 147.976 94.5273 146.909C95.0247 146.574 95.6918 146.55 96.3274 146.662C97.116 146.801 97.8933 147.17 98.3623 147.668C100.964 150.435 104.739 153.132 109.207 153.086C112.655 153.051 115.47 151.69 118.2 150.151L120.119 149.053C121.97 147.996 123.847 147.004 125.971 146.551C129.773 145.739 134.384 147.222 137.194 149.67C138.419 150.737 139.309 151.991 139.551 153.343C139.755 154.477 139.469 155.661 138.581 156.822Z" transform="translate(51.99983 63.00011)" fill="#000000" fill-rule="evenodd" stroke="none"></path></g></g><g transform="translate(123 338)"></g><g transform="translate(47 241)"><g><path d="M400.241 22.4717C406.555 19.4817 413.812 19.6607 420.603 20.5487C434.349 26.9267 404.861 34.3147 401.349 27.5287C404.801 52.9717 394.935 94.8897 366.724 108.133C334.13 124.07 298.773 99.8287 300.056 60.9787C293.067 59.2817 297.925 39.7137 300.739 31.7647C288.447 29.8527 276.738 28.7257 264.894 32.4797C271.42 50.8857 248.187 106.288 225.854 117.325C208.541 129.283 169.496 123.951 153.944 105.365C142.844 91.1707 137.3 58.2287 143.442 35.3387C143.388 35.3147 143.332 35.2967 143.279 35.2697C142.912 38.8697 118.056 38.4687 119.298 32.3037C83.5946 32.9447 49.0266 38.4207 13.6856 42.2807C9.41771 42.6777 9.20869 45.7037 9.00443 48.6607C8.82951 51.1931 8.65807 53.675 5.94363 54.4117C-4.52237 54.6617 0.226628 36.3637 9.44663 34.6657C18.2509 33.7459 27.1162 32.5506 36.011 31.3514C64.1217 27.5615 92.5269 23.7319 120.232 28.4287C124.112 23.4993 131.1 25.2524 136.795 26.6809C138.398 27.083 139.898 27.4593 141.198 27.6537C145.902 -0.109269 221.595 1.54173 246.677 12.8057C273.452 9.72473 301.309 7.96173 327.861 5.72573C344.673 0.333732 364.25 -2.44827 381.745 2.80973C384.166 2.67632 384.439 3.06209 384.978 3.82285C385.074 3.95736 385.177 4.10358 385.303 4.26073C392.194 7.30073 398.297 14.2087 400.241 22.4717ZM391.09 53.2827C381.556 117.772 315.002 124.904 303.177 60.8817C305.075 60.0507 306.44 58.4147 306.155 55.2387C306.088 41.2867 310.419 26.5407 323.005 18.7817C336.011 10.7757 351.232 9.98173 366.283 10.1837C395.005 9.49973 394.401 33.5067 391.09 53.2827ZM264.265 30.6657C272.34 25.1737 283.744 24.8557 292.758 25.2357C295.861 25.4177 300.059 25.2717 302.99 26.8347C306.149 20.6497 311.009 15.2997 316.233 11.7387C313.192 11.9693 310.141 12.2092 307.085 12.4496C288.207 13.9342 269.092 15.4374 250.449 14.8917C256.277 18.3047 262.045 24.6877 264.265 30.6657ZM253.026 60.1197C228.031 146.156 165.64 108.656 158.838 97.6297C146.569 79.3837 144.261 35.0297 154.948 23.1707C167.469 14.393 184.251 14.6491 199.84 14.8869C203.297 14.9396 206.695 14.9915 209.975 14.9437C243.176 15.3917 266.756 25.3237 253.026 60.1197Z" transform="translate(-1.999528 9.999668)" fill="#000000" fill-rule="evenodd" stroke="none"></path></g></g></g></g></svg>