<?xml version="1.0" encoding="UTF-8"?>
<svg width="240px" height="324px" viewBox="0 0 240 324" version="1.1" xmlns="http://www.w3.org/2000/svg" xmlns:xlink="http://www.w3.org/1999/xlink">
    <!-- Generator: Sketch 62 (91390) - https://sketch.com -->
    <title>peep-82</title>
    <desc>Created with Sketch.</desc>
    <g id="Introduction" stroke="none" stroke-width="1" fill="none" fill-rule="evenodd">
        <g id="variations" transform="translate(-2766.000000, -1406.000000)">
            <g id="images" transform="translate(126.000000, 110.000000)">
                <g id="a-person/bust" transform="translate(2640.000000, 1296.000000)">
                    <g id="body/Tee-1" transform="translate(31.056338, 135.052838)" fill-rule="evenodd">
                        <path d="M163.580535,116.881512 C162.728915,112.07037 161.948282,107.246318 161.238845,102.411896 C160.902085,100.116693 160.573563,97.8193746 160.278211,95.5182464 C160.07138,93.9059964 159.75638,92.0624272 160.852859,90.8683717 C162.395746,89.1877629 163.797296,87.7492668 163.986169,85.3418968 C164.163845,83.0767469 163.398211,80.607579 162.919479,78.408883 C161.915535,73.7981611 160.665676,69.2443696 159.28462,64.7337519 C157.881592,60.1509661 156.343141,55.6113542 154.782507,51.0804194 C153.323493,46.8440833 151.920887,42.5696524 150.020535,38.5051654 C146.413986,30.7918463 140.312577,25.0797659 132.772014,21.2656453 C130.896592,20.3170887 127.071493,16.930898 125.112197,16.1728145 C123.310929,15.4756825 123.317366,17.5112064 121.54462,16.7444458 C120.127437,16.1315453 118.807859,15.3142036 118.014338,13.945336 C117.152789,12.4590099 114.992223,10.3801664 114.66328,8.65003464 C113.966308,4.98279012 114.72131,1.86150285 112.104972,-0.898665838 C109.782296,-3.34963299 106.660394,-5.0287603 103.430113,-5.93012193 C96.3239155,-7.91294822 86.8468732,-6.5267264 82.5594085,0.0790967238 C80.5115915,3.23375663 79.7960282,7.04681898 77.0328592,9.62138209 C74.6199718,11.8693894 75.1599467,13.4062967 72.0348763,14.5647972 C71.8578341,14.6306163 67.0604789,13.6011899 66.8834366,13.667009 C63.4647042,12.9351685 60.1971549,14.9838383 57.0606761,16.1728145 C52.3846901,17.9448504 47.9328592,20.2514812 43.7503944,22.9928142 C35.3168028,28.5207705 28.0935634,35.6988599 22.1385634,43.8216964 C16.134338,52.0114102 11.4756761,61.1909499 8.15856338,70.7848747 C7.353,73.1152088 6.62940845,75.4739023 5.99116901,77.8556641 C5.63391549,79.1885535 5.25215493,80.5711774 5.68715493,81.9358123 C6.04292958,83.052197 6.83433803,83.8835068 7.76370423,84.5533377 C9.02349296,85.4614717 11.5504648,86.0517271 11.5012394,87.8781537 C11.4636338,89.2669151 10.9927183,90.7282681 10.7628592,92.1005218 C10.4892676,93.7347821 10.2644789,95.3785661 10.0396901,97.020022 C9.01715493,104.491228 8.22130986,112.004551 7.86933803,119.539248 C7.52285915,126.957969 7.23532394,134.528433 7.74976056,141.945037 C7.78377465,142.43413 7.9295493,142.883012 8.16469014,143.262477 C7.9451831,143.346497 7.92828169,143.755803 8.2014507,143.813791 C8.39285915,143.854425 8.58384507,143.894848 8.77525352,143.935482 C9.17285915,144.23643 9.66870423,144.420977 10.239338,144.438967 C10.626169,144.451242 11.0127887,144.468596 11.3991972,144.48849 C15.4768732,145.341175 19.5539155,146.146665 23.684831,146.756602 C28.7062394,147.497967 33.7424366,148.102402 38.7942676,148.593823 C49.1749014,149.603331 59.4737746,149.268521 69.8681408,148.724403 C80.2464507,148.180919 90.6186338,148.053937 101.007718,148.324197 C111.405887,148.594881 121.800254,149.04736 132.200746,149.232543 C143.820254,149.4391 155.422014,149.121645 167.00793,148.197638 C168.596451,148.071079 169.579268,146.80676 169.265958,145.228372 C167.388845,135.772012 165.261592,126.378719 163.580535,116.881512 Z" id="ðŸŽ¨-Background" fill="#FFFFFF"></path>
                        <path d="M63.6413239,13.4343123 C64.715831,13.3876039 65.8114648,13.5615452 66.8834366,13.667009 C66.9768169,13.6760971 67.0123099,13.820238 66.9070986,13.8422184 C64.9886303,14.2431499 63.0911897,14.7916568 61.2069925,15.3486993 L60.4002676,15.5875491 C58.2755493,16.2163162 56.2131549,16.8649503 54.1562535,17.7035883 C50.0568169,19.3749464 46.1633662,21.6308994 42.5800563,24.2226881 C28.7817465,34.2028603 18.7951268,49.3131382 12.4930141,64.9574982 C10.7815352,69.2060618 9.33139437,73.5603006 8.15674648,77.9878779 C7.87111268,79.0651303 7.60238028,80.1466098 7.34759155,81.2314708 C7.27280282,81.549553 6.9468169,82.3640971 7.1255493,82.6895765 C7.28357746,82.9772243 7.89794366,83.1549699 8.1833662,83.3046059 L9.14698228,83.8044493 C11.026604,84.7735821 14.1575601,86.3665725 14.4715352,86.52178 L14.9612138,86.7629923 C22.970505,90.6909542 31.5283606,94.0218115 40.5413239,94.2523397 L40.6118873,93.4823906 L40.6118873,93.4823906 C41.0137183,89.2255843 41.5410423,84.9461636 42.6920282,80.8201832 C42.7539296,80.5984767 43.0359718,80.6732947 43.0617465,80.8702732 C43.7029437,85.7547898 43.4980141,90.6773495 43.2742817,95.5844806 C42.8781549,104.275627 42.3520986,112.961913 41.8845634,121.649678 C41.6504789,125.995674 41.3479437,130.338712 41.0747746,134.682383 C40.8011831,139.034719 40.712662,143.491674 40.0879437,147.808081 C39.9487183,148.770148 38.8222394,149.293451 37.9691408,149.192003 C37.0251972,149.079565 36.2990704,148.247901 36.2946338,147.2945 C36.2832254,144.779854 36.5990704,142.23562 36.7746338,139.727314 C36.9413239,137.344128 37.1202676,134.962211 37.3036479,132.580293 C37.9737887,123.887244 38.7447042,115.20434 39.4577324,106.515095 C39.7104085,103.433185 39.9833662,100.354023 40.2643521,97.2750716 C30.7165352,96.9671342 21.7966056,93.4293417 13.287169,89.2957526 C13.164,92.0933965 12.8665352,94.8859679 12.5785775,97.6719875 C11.7747042,105.446719 11.0659014,113.218492 10.5354085,121.017318 C10.2675211,124.956254 10.0725211,128.90005 9.90266197,132.844269 C9.81921127,134.782774 9.7511831,136.721702 9.699,138.661263 C9.68153521,139.307714 9.66576056,139.954258 9.65180125,140.600833 L9.62277405,142.082063 C9.5990243,143.020561 9.50365554,143.889909 8.71428169,144.573154 C7.91252113,145.267017 6.82956338,145.304003 6.03604225,144.573154 C4.97378873,143.594602 5.16160563,142.261404 5.19308451,140.947228 C5.21928169,139.838696 5.25076056,138.730375 5.28730986,137.622265 C5.36061972,135.405835 5.45421127,133.190038 5.56808451,130.975299 C5.96656247,123.23231 6.76273357,115.5202 7.80322649,107.839158 L8.2093983,104.874102 C8.96790662,99.3620622 9.80064457,93.7246478 11.4962535,88.4148446 C10.8360423,88.0864063 10.1777324,87.7556431 9.52195775,87.4234004 C8.35871831,86.8341558 7.15597183,86.2812634 6.02526761,85.6309386 C5.12822535,85.1150325 4.35456338,84.4074317 4.10484507,83.3631499 C3.82634608,82.1996484 4.25221293,80.9270502 4.5351332,79.7921891 L4.55970423,79.692418 C4.83709859,78.5494356 5.13583099,77.4115256 5.45104225,76.2784767 C6.72921127,71.6839327 8.30970423,67.1790012 10.1593521,62.7839718 C13.8628732,53.9850364 18.6432254,45.6259209 24.4824507,38.0678231 C29.7385775,31.2644571 35.9477324,25.0947194 43.2250563,20.467416 C46.7828028,18.2051225 50.5742113,16.3475648 54.5838592,15.0342341 C56.4580141,14.4204728 58.497169,13.886602 60.4594225,13.6667977 C61.5178732,13.5484415 62.5778028,13.480598 63.6413239,13.4343123 Z M82.6794085,-0.508403131 C83.9563099,-1.88006654 86.4932113,-0.460637965 85.8801127,1.35570646 C84.438,5.62899804 82.1415211,9.52693151 78.5575775,12.3349315 C75.1887042,14.9746967 71.1714507,16.6889589 66.8451127,16.3231115 C66.8117324,16.3201526 66.7827887,16.3116986 66.7572254,16.2996517 L67.1300556,16.8055511 C70.0571184,20.7664722 73.1450351,24.6726817 76.8668028,27.91018 C84.449831,34.5066341 94.7744789,38.0645049 104.744197,35.5335851 C112.588141,33.542454 119.498704,27.3374207 121.531099,19.4295382 C121.239761,19.5601526 120.893493,19.6047476 120.513423,19.5221096 C118.887296,19.1689432 117.277437,17.4580626 116.228704,16.2313855 C115.094197,14.904317 114.208141,13.471362 113.558704,11.8515734 C112.370113,8.88717417 111.988986,5.07039922 113.611944,2.19878278 C113.812225,1.84477104 114.274056,2.04322896 114.313352,2.38878669 L114.375143,2.92817968 C114.688032,5.61937583 115.077771,8.22266243 116.346169,10.6760431 C116.966873,11.8765127 117.710958,13.0482387 118.616662,14.0536321 C119.10131,14.5915186 119.626732,15.1055225 120.193986,15.556544 C120.746761,15.9959537 121.415753,16.3136725 121.911219,16.8178812 L122.002014,16.914681 L122.004549,16.8973503 C122.129831,15.8319335 122.876662,15.3625245 123.607437,15.3919022 C124.314638,15.4203322 125.145294,15.7317346 125.466986,15.8808968 L125.497435,15.8952558 C130.430953,18.2644404 134.974756,21.3525226 139.250746,24.7786027 C148.093563,31.86391 154.719127,41.1263366 157.929338,52.0337025 C159.504938,57.3869199 160.409049,62.9029688 161.363415,68.3932924 L161.950955,71.7571824 C162.841744,76.825724 163.836781,81.9939549 165.847648,86.7088885 C166.367789,87.928591 165.966803,89.0724188 164.69138,89.5519726 C163.098845,90.1509393 161.500394,90.7308845 159.899408,91.3036438 C160.685535,94.6774286 161.164901,98.16809 161.753915,101.558571 C163.005887,108.765405 164.539901,115.926164 165.855254,123.123487 C166.527718,126.803519 167.134479,130.495808 167.80631,134.176262 C168.129761,135.948646 168.467366,137.718493 168.795676,139.490031 C168.972507,140.445335 169.132859,141.403597 169.301662,142.360168 L169.331039,142.518914 C169.427732,143.02356 169.549237,143.545531 169.410465,144.050548 C169.252225,144.626477 168.802859,145.033327 168.401662,145.446305 C168.071451,145.786368 167.594197,145.788481 167.18962,145.602916 L167.056548,145.541328 C166.333952,145.203229 165.767885,144.865974 165.511521,144.050548 C165.349268,143.534219 165.290746,142.952583 165.18469,142.420614 C164.981239,141.400849 164.788352,140.379816 164.606239,139.355824 C164.242014,137.307205 163.886239,135.257108 163.538915,133.205319 L163.214504,131.284113 C162.101053,124.662697 161.043665,118.001015 160.509127,111.30964 C160.272,108.341098 160.020676,105.375127 159.767054,102.408587 L159.576592,100.183526 C159.335746,97.3672838 159.041451,94.479816 158.999831,91.6255303 L158.042498,91.9655401 L158.042498,91.9655401 L153.371239,93.6175068 L153.371239,93.6175068 C152.21307,94.0268924 150.738423,94.865953 149.491944,94.7133581 C148.881803,94.6385401 148.416592,94.4464227 148.057437,94.097272 C148.487577,100.17 149.069831,106.23216 149.845817,112.263464 C150.551873,117.751386 151.33462,123.23191 152.259127,128.687495 C152.716944,131.388975 153.187437,134.087918 153.698493,136.779675 C153.953915,138.125765 154.217577,139.469953 154.489268,140.812873 C154.62469,141.482853 154.785887,142.153468 154.891521,142.828943 C155.012366,143.602485 154.799408,144.078446 154.367366,144.714822 C154.012648,145.237491 153.303,145.505906 152.727718,145.145131 C151.965887,144.666845 151.568493,144.252599 151.344338,143.381624 C151.140676,142.59054 151.016873,141.764583 150.859268,140.963354 C150.568352,139.484325 150.287155,138.003605 150.015676,136.520771 C149.448,133.41984 148.92469,130.311299 148.457366,127.19346 C146.810535,116.209796 145.765606,105.134196 145.237859,94.0406301 C144.977366,88.5672916 144.896873,83.089092 144.943141,77.610047 C144.966803,74.8016243 145.058493,71.9851703 145.257085,69.1837221 C145.458211,66.3480352 145.876521,63.5689902 146.250042,60.7605675 C146.263141,60.6616556 146.402577,60.6559491 146.408493,60.7605675 C146.585324,63.9092642 146.862507,67.0543679 146.998352,70.2113072 C147.12807,73.223683 147.184901,76.2407084 147.288,79.2541409 C147.423423,83.2152681 147.611239,87.1787202 147.859901,91.1394247 C148.310113,90.6467671 148.988704,90.3627123 149.667718,90.4736712 C150.65138,90.267182 151.710254,89.7508532 152.64807,89.4374207 L156.183423,88.2559726 L156.183423,88.2559726 C158.041944,87.6350254 159.900465,87.0183053 161.765535,86.420184 C160.098037,80.808125 158.955761,75.1124438 157.980376,69.3337199 L157.545373,66.7348328 C156.68431,61.619303 155.755897,56.5013559 154.196239,51.5475969 C152.556592,46.3395029 150.10293,41.4974677 146.84793,37.1125832 C143.639408,32.7911037 139.735817,28.985953 135.716662,25.4268141 C132.275746,22.3799883 128.594831,19.6290528 125.085254,16.6659217 C125.122014,16.8622661 125.129831,17.0784775 125.097507,17.3160352 C124.35131,22.7794403 121.502366,27.8672759 117.532014,31.6515029 C109.555606,39.2539843 97.748493,40.8312916 87.5396197,37.2662348 C77.664338,33.8178434 68.9332817,25.6508454 65.8485634,15.5447084 C65.7957465,15.3718239 66.0272958,15.303135 66.1202535,15.4301566 C66.2913803,15.6647554 66.4633521,15.8993542 66.6355352,16.133953 C66.6239155,16.0407476 66.6722958,15.9392994 66.7872254,15.8949159 C70.3863803,14.5046536 73.9206761,12.5329667 76.6185634,9.74377691 C77.933493,8.38416047 79.0810986,6.84383953 79.9870141,5.18262622 C80.4209577,4.38689237 80.8107465,3.56283757 81.1217324,2.71130724 L81.2007668,2.49100266 C81.5776499,1.42432911 81.8926138,0.336629884 82.6794085,-0.508403131 Z" id="ðŸ–-Ink" fill="#000000"></path>
                    </g>
                    <g id="head/Medium-Bangs-3" transform="translate(78.591549, 38.043053)" fill-rule="evenodd">
                        <path d="M54.2062587,8.23792153 C66.2021695,8.23792153 81.2265966,21.9272691 85.6238351,27.7526268 C89.3208234,32.6503094 88.7978181,57.8814922 88.7978181,72.848684 C88.7978181,75.9789906 87.3833653,81.9034493 86.8698864,84.8977081 C84.9882891,95.8698987 76.7905704,105.071902 60.5655366,105.071902 C47.3544685,105.071902 37.1877755,100.885755 27.3563474,90.179007 C25.1134108,87.7363755 14.1595085,96.4808926 11.9193032,93.3317782 C6.06789915,93.3317782 1.17515391,38.6390076 12.6636029,22.2343594 C24.1520519,5.82971124 42.2103478,8.23792153 54.2062587,8.23792153 Z" id="ðŸŽ¨-Background" fill="#FFFFFF"></path>
                        <path d="M18.1514155,12.0902724 C25.0831056,5.78146614 34.3176127,2.74647593 43.6345141,2.97050724 C48.4598662,3.0867499 53.2683169,4.00612368 57.8253592,5.58068337 C60.1049366,6.37113346 62.3126831,7.4025229 64.4232465,8.56917652 C65.1838099,8.98862556 65.8849683,9.48010879 66.5599553,10.002068 L66.7281761,10.1331687 L66.7302887,10.1331687 C68.5408521,10.7841276 70.1570493,11.9528947 71.6232465,13.3203311 C74.5619789,13.0857323 77.5239507,13.3499202 80.3655,14.2566129 C84.3204296,15.5204877 87.9816972,17.8347734 90.5528239,21.1212705 C93.5477353,24.9473925 94.5433874,29.5884231 94.188126,34.379394 L94.1225292,35.1932853 C93.7712165,39.4254951 93.1419085,44.8691178 89.6697254,47.6499593 C89.4056408,47.8613096 89.1140915,48.0219358 88.8119789,48.1191569 C91.0493028,51.9530513 92.8852183,56.2096462 93.9838099,60.5085112 C98.1774718,76.9283155 94.9535282,94.0519162 89.9105704,109.877826 C89.4964859,111.181858 87.5253592,112.048394 86.521838,110.773951 C84.7302887,108.495595 82.1274718,106.758296 79.1993028,106.432816 C77.3929648,106.232034 75.5950775,106.595556 73.8880352,105.775517 C73.2183169,105.452151 72.571838,104.923775 72.1070493,104.28127 C69.2253592,105.373951 66.121838,105.889646 63.043669,105.762836 C57.9922606,105.555713 52.5922606,103.805732 49.1169085,99.967611 C48.559162,99.3515249 48.4178239,98.6597753 48.5462746,98.036292 C48.9821197,97.8807382 49.4295845,97.7649182 49.8905704,97.692425 C54.2976127,100.290766 59.1555,102.027008 64.3763451,102.136065 C67.3930352,102.199047 70.3355704,101.776981 72.7816268,99.8925816 C73.3108521,99.4846755 73.7976127,99.03302 74.2476127,98.5477597 C79.3617676,95.2566129 82.9674718,89.666609 84.6816972,83.6788438 C86.2788803,78.0949691 86.0824014,72.2807225 85.5331056,66.5531295 L85.2433139,63.5306972 C84.8208915,59.0946479 84.4289898,54.6453252 84.319162,50.1903898 L84.352331,50.188699 L84.352331,50.188699 C85.432331,50.1189534 85.4401479,48.427517 84.352331,48.4978967 C81.5384577,48.6800806 78.7459225,48.2182802 75.9407113,48.4194857 C75.9172606,47.0928399 75.8217676,45.7721119 75.4319789,44.4925973 C75.2095141,43.7615366 73.9370493,43.6173957 73.8022606,44.4925973 C73.621838,45.6634779 73.5559225,46.8278067 73.5362746,48.003971 C69.3381761,47.9481746 65.1440915,47.5947969 60.9453592,47.7399945 C60.1708521,46.9136149 59.9243028,45.4483233 59.5619789,44.4289808 C59.509162,44.2789221 59.4563451,44.1309769 59.4014155,43.9809182 C59.0830352,45.4375444 58.6317676,46.8622568 58.0381056,48.2569573 L57.0083737,48.2604481 C51.1657999,48.2878641 45.204338,48.4625659 39.499162,49.6763859 C39.1026127,49.3718301 38.8666268,48.8404955 38.8028239,48.3579828 C38.3889955,45.2182141 37.7983619,42.1619141 36.7515986,39.1698117 L36.6018465,38.7476651 C36.5896099,38.7126486 36.5766972,38.6754341 36.5631761,38.636292 C35.791838,39.8817793 34.8715563,41.0427264 33.8678239,42.1237832 C33.2762746,42.7610043 32.655993,43.3703272 32.0194437,43.9623194 C31.4010634,44.6492078 30.7619789,45.3257401 30.1425423,46.0147421 C30.166838,46.1400728 30.1879648,46.2673057 30.2050775,46.3968634 C30.3945845,47.8266481 30.4142324,49.2767225 30.2754296,50.7120023 C30.0244437,53.3067499 29.2921901,55.8070239 28.1158521,58.1200415 L28.0786348,58.3516391 C27.900008,59.4355975 27.6458521,60.5558254 27.052331,61.3720885 C27.7930352,62.2022724 28.363669,63.193928 28.6945141,64.2956971 C28.9890211,65.2765738 27.6324718,66.1266247 26.9289507,65.3239162 C26.3701479,64.6862724 25.7492324,64.1585307 25.0672606,63.7375209 C25.024162,63.796065 24.9464155,63.8248086 24.859162,63.7759867 C22.9598662,62.7213487 19.7338099,63.0404877 17.8366268,64.0338341 C15.4767676,65.2681198 14.5556408,67.8022098 14.8176127,70.3701159 C15.0690211,72.8238928 16.1422606,75.6919162 18.2232465,76.9494505 C19.1781761,77.5264368 19.921838,77.5750474 20.9359225,77.2981785 C21.2601627,77.2100788 21.6621447,76.9398783 21.8346936,76.8056543 L22.0045066,76.6694912 C22.6693028,76.1438583 23.2884577,75.7839241 24.0732465,75.7701159 C24.8758873,75.5197098 25.6825793,75.8670792 25.9895475,76.7090488 L26.0084577,76.7634622 C26.1521197,77.1925033 26.4140915,77.7314466 26.3570493,78.3866325 C26.2978944,79.0883155 25.9767676,79.7265933 25.4971901,80.2401746 C25.4147958,80.3289417 25.3260634,80.4177088 25.2352183,80.5001354 C33.4957817,89.4465933 34.5563451,103.387259 30.3204296,114.563462 C30.1366268,115.053795 29.9401479,115.537787 29.7352183,116.017552 C29.0274718,117.661858 26.3021197,117.152503 25.9556408,115.522993 C25.8521197,115.034773 25.7380352,114.548668 25.6133873,114.066789 C25.3842793,113.1763 25.1217859,112.29416 24.8259069,111.424823 L24.7133873,111.099431 C24.4619789,110.38084 24.2274718,109.655908 23.9739507,108.937317 L23.9485986,108.855155 C23.9390915,108.82266 23.9285282,108.785145 23.9169085,108.742875 L23.4880352,109.679157 L23.4880352,109.679157 L22.1845141,112.50491 C21.5745442,113.823546 19.636479,113.106901 19.5644123,111.836192 L19.5626831,111.79266 C19.5563451,111.558061 19.5478944,111.325576 19.5331056,111.095204 C19.4401479,109.368472 19.1422606,107.690351 18.6690211,106.048159 L18.4982855,106.260418 C15.9559009,109.404836 12.9721089,112.352134 8.87888028,113.07767 C7.85211972,113.259431 6.69014789,112.185771 7.39578169,111.148041 C7.68733099,110.719 7.9683169,110.279392 8.23451408,109.833443 C8.00423239,109.725654 7.78662676,109.613638 7.58592254,109.499509 C6.03310563,108.626632 4.74014789,107.383893 3.6711338,105.974186 C1.40423239,102.985693 0.592964789,99.2236579 0.394373239,95.5419358 C0.183105634,91.6509769 0.525359155,87.5486677 1.58803521,83.7950865 C2.04859859,82.1719162 2.67183803,80.6142646 3.39226056,79.10311 C3.34155634,78.9678458 3.29296479,78.8325816 3.24437324,78.6973174 C2.46690845,76.5288634 1.82888028,74.3117988 1.29859859,72.0693722 C0.229584507,67.5422489 -0.34506338,62.8714074 -0.41478169,58.2195875 C-0.541542254,49.8860454 0.895077465,41.4193526 3.92254225,33.6480023 C7.04930282,25.6335992 11.7521197,17.912973 18.1514155,12.0902724 Z M14.2577535,84.9511726 C13.6836027,84.0467923 12.2470099,84.8617789 12.780125,85.7724653 L12.800007,85.8050278 C13.7105704,87.2400963 14.137331,88.8717205 14.6612746,90.4716423 C14.9971901,91.5009182 16.6302887,91.0613096 16.2901479,90.0214661 L16.1775457,89.6742849 C15.6561761,88.0518411 15.1805704,86.4030082 14.2577535,84.9511726 Z M19.2584577,67.6880595 L19.6398984,67.5033977 C20.8431242,66.9289899 21.8973894,66.5377157 23.3190211,67.0392141 C25.2225423,67.7091945 27.2612746,69.841719 25.9746549,71.9108384 C25.5014155,72.6738129 24.6605704,72.9781573 23.7943732,72.7985096 C22.3340915,72.4955486 21.9572544,71.1800261 21.2162081,70.100132 L21.0886881,69.9172774 C20.6368984,69.2638399 20.065564,68.3605377 19.3133873,68.1044196 C19.1422606,68.0452415 19.0704296,67.7789401 19.2584577,67.6880595 Z M20.3313895,23.7570499 L20.4542324,23.6469065 C21.271838,22.9240885 20.071838,21.7320728 19.2584577,22.4506638 C15.5359225,25.7413879 14.2429648,30.8919945 12.3119789,35.2817401 C11.8788803,36.268746 13.3345141,37.1310552 13.771838,36.1355953 C15.6138001,31.9467297 16.8364459,26.935916 20.3313895,23.7570499 L20.3313895,23.7570499 Z M65.0655,22.3175131 C64.0928545,21.8790249 63.2418714,23.2950676 64.1769681,23.7613147 L64.2119789,23.7779436 C67.4993028,25.2637362 68.8978944,28.6284329 70.237331,31.7521902 C70.6640915,32.7497636 72.1197254,31.8895679 71.6971901,30.9004485 L71.4554824,30.3399536 C70.057865,27.1207863 68.4277659,23.8395139 65.0655,22.3175131 Z M70.2183169,20.2843233 C69.187331,19.9271413 68.7457817,21.5587656 69.7683169,21.9159476 C72.5549366,22.8860454 74.4669085,24.9784133 76.0788803,27.3708986 C76.6831056,28.2670239 78.1471901,27.4216227 77.5366268,26.5170434 C75.6647958,23.7399006 73.4422606,21.4087068 70.2183169,20.2843233 Z" id="ðŸ–-Ink" fill="#000000"></path>
                    </g>
                    <g id="face/Smiling" transform="translate(112.183099, 77.354207)" fill="#000000" fill-rule="evenodd">
                        <path d="M30.968993,50.9198978 C29.548794,50.3403012 28.2816173,49.3734958 27.3551889,48.1384646 C27.0331038,47.7091169 26.9495926,47.2557326 27.017159,46.8410547 C27.0931327,46.3747786 27.3688808,45.9521824 27.7449394,45.6687178 C28.1221628,45.3843752 28.5940214,45.2441445 29.0502103,45.3156301 C29.4466117,45.3777469 29.8412104,45.5948709 30.1535058,46.0451781 L30.2187521,46.1352289 C30.7695298,46.8806513 31.4872438,47.4922614 32.3050288,47.8864795 C33.0932406,48.2664417 33.9747757,48.4437847 34.8870208,48.3406561 C36.6244504,48.1443157 37.8219743,47.2043274 39.0948115,45.9278391 C39.2525834,45.7666792 39.4104563,45.6004672 39.5690946,45.4315797 C39.6692778,45.278484 39.8083069,45.1800892 39.962667,45.1284632 C40.1340565,45.0711416 40.327938,45.0743848 40.5055187,45.1363808 C40.6767961,45.1961763 40.8299095,45.309486 40.9325762,45.4602937 C41.0301525,45.6036243 41.0854754,45.7806897 41.0675245,45.9843589 C40.9510195,47.3072301 40.2596776,48.4878363 39.2776553,49.4148615 C38.1869942,50.4444414 36.7412431,51.1567117 35.3801317,51.4065272 C33.8805866,51.6817086 32.3525901,51.4845569 30.968993,50.9198978 L30.968993,50.9198978 Z M36.0875289,30.5120405 C37.6828906,31.482148 40.1137318,33.7442494 38.3974899,36.149264 C36.3773089,38.2698449 33.4687045,35.8384541 32.0353946,34.7388307 C30.7063626,33.8866164 29.2131206,36.0784478 30.4461973,37.0735516 C40.8033244,44.7445605 45.006466,30.7657101 36.8944406,29.3714319 C36.0012775,29.2177885 35.6695544,30.2119271 36.0875289,30.5120405 Z M17.5274577,21.5886716 C17.7037243,19.3998697 21.0359789,18.9028321 21.3674577,21.0687499 C21.6642887,23.0089456 21.3148521,24.7912626 20.4412606,26.5380728 C19.6065423,28.2068947 17.5085456,27.4283107 17.3498837,25.9087021 C17.1372039,23.8717299 17.4178099,22.9502317 17.5274577,21.5886716 Z M42.8930282,20.6196517 C43.3576056,20.0109628 44.0283803,19.5954481 44.8320423,19.8302583 C47.3429577,20.5642779 46.6028873,24.1303914 45.7210563,25.8662114 C45.2419014,26.8088337 43.6930986,27.0478708 42.993169,26.2178982 C41.8523239,24.864411 41.3059859,22.1614521 42.756338,20.8282544 C42.7956338,20.7593542 42.8393662,20.68982 42.8930282,20.6196517 Z M20.4058944,12.0111429 L20.802522,11.9416942 C22.0295218,11.7294045 23.5551549,11.5254176 24.4231479,12.5122544 C24.8835,13.0355577 25.0419507,14.0081918 24.4231479,14.509092 C23.3346972,15.3904227 22.1313169,15.0488806 20.8269507,15.1234873 C19.7520211,15.1852016 18.7189225,15.3631585 17.6835,15.6592603 C15.4119507,16.3087397 13.5610352,17.4944149 11.6209648,18.7963327 C11.3663873,18.9671037 11.1065282,18.6414129 11.228007,18.4032211 C12.3479366,16.208771 14.5182887,14.4061644 16.6922324,13.3073542 C17.8525141,12.7208571 19.1222324,12.2343288 20.4058944,12.0111429 Z M40.6041287,11.0281289 L40.9077055,11.0902829 C44.2113469,11.7811043 48.5035506,13.1610768 50.0679842,16.4073021 C50.1275964,16.8663298 50.0646105,16.9647086 50.0133917,17.0289838 L49.9963385,17.0503723 C49.9541341,17.1052595 49.9204583,17.1809212 49.7215736,17.2433957 C49.6663832,17.2302408 49.6106433,17.216308 49.5543131,17.2015401 C48.8372041,17.0135386 48.2698321,16.7545401 47.720556,16.4857982 L47.1250012,16.192275 C46.4340388,15.8533498 45.7369757,15.5267598 44.9982488,15.2856588 C43.4217423,14.7712438 41.8001698,14.4088706 40.1534741,14.2153715 C39.7965654,14.1734678 39.4528848,14.0529641 39.1817455,13.8464404 C38.92438,13.6504079 38.7277692,13.3789964 38.6381257,13.0182314 C38.5219478,12.5513438 38.5553348,12.1978716 38.8057421,11.7766707 C38.9940329,11.4603578 39.263447,11.2411116 39.5728025,11.115213 C39.888177,10.9868648 40.2472278,10.9566068 40.6041287,11.0281289 Z" id="ðŸ–-Ink"></path>
                    </g>
                    <g id="facial-hair/*-None" transform="translate(104.577451, 109.479380)"></g>
                    <g id="accessories/*-None" transform="translate(88.521127, 88.978474)"></g>
                </g>
            </g>
        </g>
    </g>
</svg>