<svg width="130" height="49" viewBox="0 0 130 49" xmlns="http://www.w3.org/2000/svg"><title>Group</title><g fill="#009BC8" fill-rule="evenodd"><path d="M10.956.958v1.203c0 .427-.163.573-.633.573H8.145v6.584c0 .414-.162.562-.634.562H5.848c-.471 0-.617-.148-.617-.562V2.734H3.037c-.471 0-.619-.146-.619-.573V.958c0-.413.148-.561.62-.561h7.285c.47 0 .633.148.633.561M21.102.971v8.36c0 .414-.163.562-.619.562h-1.677c-.456 0-.619-.148-.619-.562V6.26h-2.855V9.33c0 .414-.147.562-.618.562H13.05c-.47 0-.633-.148-.633-.562V.971c0-.427.162-.574.633-.574h1.663c.471 0 .618.147.618.574v2.953h2.855V.97c0-.427.163-.574.619-.574h1.677c.456 0 .619.147.619.574M29.851.958v1.203c0 .427-.163.573-.633.573h-3.886v1.189h3.106c.471 0 .633.147.633.56v1.203c0 .427-.162.574-.633.574h-3.106v1.282h4.019c.456 0 .617.134.617.56v1.216c0 .414-.161.562-.617.562h-6.3c-.47 0-.633-.148-.633-.562V.958c0-.413.162-.561.633-.561h6.167c.47 0 .633.148.633.561M30.963 20.057c.735 1.38.315 2.093-1.257 2.665l-5.245 2.045c-1.415.571-1.992.38-2.83-.999-.997-1.808-2.885-2.474-5.297-2.474-3.565 0-4.98.809-4.98 2.474 0 2.045 3.092 2.474 6.868 2.902 6.082.761 13.947 2.094 13.947 11.085 0 6.993-6.973 10.848-16.254 10.848-7.812 0-13.266-2.427-15.26-7.375-.574-1.428-.104-2.093 1.417-2.616L7 36.994c1.573-.476 2.308-.333 3.095 1.046.943 1.665 2.989 2.523 5.924 2.523 3.514 0 5.611-.667 5.611-2.712 0-1.856-2.674-2.38-6.135-2.808-6.134-.76-14.734-1.76-14.734-10.99 0-6.28 5.558-10.656 15.573-10.656 7.76 0 12.165 2.093 14.63 6.66zM66.796 15.442v29.782c0 1.474-.573 1.999-2.203 1.999h-5.977c-1.624 0-2.198-.525-2.198-1.999V15.442c0-1.52.574-2.045 2.198-2.045h5.977c1.63 0 2.203.525 2.203 2.045M45.801 34.282v10.942c0 1.472-.523 1.999-2.198 1.999h-5.926c-1.68 0-2.259-.527-2.259-1.999V15.441c0-1.52.579-2.044 2.26-2.044h5.925c1.675 0 2.198.524 2.198 2.044v10.516M96.899 19.677c0 1.523-.579 2.046-2.255 2.046H80.8v5.52h11.064c1.678 0 2.254.523 2.254 1.997v4.282c0 1.523-.576 2.046-2.254 2.046H80.8v9.61c0 1.474-.524 1.998-2.2 1.998h-5.927c-1.676 0-2.255-.524-2.255-1.998V15.396c0-1.475.579-2 2.255-2h21.97c1.677 0 2.256.525 2.256 2v4.281zM129.831 15.396v4.281c0 1.523-.578 2.046-2.255 2.046h-7.76v23.455c0 1.474-.577 1.998-2.257 1.998h-5.923c-1.678 0-2.204-.524-2.204-1.998V21.723h-7.812c-1.676 0-2.202-.523-2.202-2.046v-4.281c0-1.475.526-2 2.202-2h25.956c1.677 0 2.255.525 2.255 2M58.682 1.397s-2.264 0-2.264 2.053v5.324s0 2.054 2.264 2.054h5.867s2.263 0 2.263-2.054V3.45s0-2.053-2.263-2.053h-5.867"/><path d="M40.418 28.397h11.064c1.679 0 2.255.524 2.255 1.999v4.281c0 1.523-.576 2.046-2.255 2.046H40.418"/></g></svg>